<svg width="20" height="20" viewBox="0 0 20 20" fill="none" xmlns="http://www.w3.org/2000/svg">
<g opacity="0.7">
<path fill-rule="evenodd" clip-rule="evenodd" d="M2.39999 8.8C2.39999 5.26538 5.26537 2.4 8.79999 2.4C12.3346 2.4 15.2 5.26538 15.2 8.8C15.2 10.4234 14.5956 11.9056 13.5995 13.0338L17.8829 17.3172L17.3172 17.8829L13.0338 13.5995C11.9056 14.5956 10.4234 15.2 8.79999 15.2C5.26537 15.2 2.39999 12.3346 2.39999 8.8ZM8.79999 14.4C5.7072 14.4 3.19999 11.8928 3.19999 8.8C3.19999 5.70721 5.7072 3.2 8.79999 3.2C11.8928 3.2 14.4 5.70721 14.4 8.8C14.4 11.8928 11.8928 14.4 8.79999 14.4Z" fill="white"/>
</g>
</svg>
