<svg width="30" height="30" viewBox="0 0 30 30" fill="none" xmlns="http://www.w3.org/2000/svg">
<g clip-path="url(#clip0)">
<path d="M15 0C6.72898 0 0 7.34089 0 16.3636V23.8636C0 24.2402 0.305284 24.5455 0.68184 24.5455H2.7273V27.2728C2.7273 28.7769 3.95041 30.0001 5.45459 30.0001H7.50005C7.87692 30.0001 8.18189 29.6951 8.18189 29.3182V17.0455C8.18189 16.6686 7.87692 16.3636 7.50005 16.3636H5.45459C3.95048 16.3636 2.7273 17.5868 2.7273 19.0909V16.3636C2.7273 8.84436 8.23309 2.7273 15 2.7273C21.767 2.7273 27.2728 8.84436 27.2728 16.3636V19.0909C27.2728 17.5868 26.0496 16.3636 24.5455 16.3636H22.5C22.1231 16.3636 21.8182 16.6686 21.8182 17.0455V29.3182C21.8182 29.6951 22.1231 30.0001 22.5 30.0001H24.5455C26.0496 30.0001 27.2728 28.7769 27.2728 27.2728V24.5455H29.3182C29.6948 24.5455 30.0001 24.2402 30.0001 23.8636V16.3636C30 7.34089 23.2711 0 15 0Z" fill="white"/>
</g>
<defs>
<clipPath id="clip0">
<rect width="30" height="30" fill="white"/>
</clipPath>
</defs>
</svg>
