<svg width="30" height="30" viewBox="0 0 30 30" fill="none" xmlns="http://www.w3.org/2000/svg">
<g clip-path="url(#clip0)">
<path d="M14.918 3.42641C14.7855 2.63412 14.6489 1.84218 14.5061 1.0507C14.3407 0.133438 13.0286 -0.303332 12.3799 0.404395C10.9293 1.98552 9.05867 3.03811 7.71205 4.73095C7.38203 5.1458 7.47092 5.94289 7.86411 6.28842C9.51958 7.74463 11.4339 8.98838 13.5121 9.75764C13.6876 9.89025 13.9027 9.95703 14.1306 9.96261C14.964 10.1445 15.5347 9.48824 15.5973 8.78838C15.6158 8.67164 15.6253 8.55066 15.6121 8.42011C15.5284 7.59765 15.4225 6.77925 15.3078 5.96187C22.8756 4.90018 27.6282 12.3895 26.0007 19.5991C25.0775 23.6877 22.0355 26.1662 18.0663 27.0635C10.8997 28.6839 5.31916 24.7409 4.35599 17.4102C4.14067 15.7721 1.64564 16.3602 1.85911 17.9835C2.86868 25.6674 8.56551 30.5769 16.2809 29.9128C21.6831 29.4483 26.1397 26.7747 28.0802 21.5966C29.6944 17.2893 28.8946 12.0524 26.3764 8.2657C23.7572 4.32754 19.3939 2.76195 14.918 3.42641ZM12.8299 6.66589C12.0637 6.26617 11.3298 5.79493 10.6448 5.27506C11.1923 4.75402 11.7929 4.28806 12.3909 3.81738C12.5506 4.76495 12.6986 5.71403 12.8299 6.66589Z" fill="white"/>
<path d="M9.14 15.238L11.1 13.936V22H12.78V12.2H11.1L9.14 13.516V15.238ZM14.6645 17.674H16.2885C16.5825 17.226 17.1565 16.89 17.8845 16.89C18.9485 16.89 19.6205 17.562 19.6205 18.724C19.6205 19.886 18.9485 20.558 17.8845 20.558C17.0725 20.558 16.4285 20.194 16.1485 19.508H14.3845C14.7065 21.174 16.0925 22.126 17.8845 22.126C20.0685 22.126 21.3845 20.782 21.3845 18.724C21.3845 16.652 20.0685 15.322 18.1645 15.322C17.4785 15.322 16.8765 15.518 16.4145 15.868L16.5825 13.684H20.7545V12.2H15.0845L14.6645 17.674Z" fill="white"/>
</g>
<defs>
<clipPath id="clip0">
<rect width="30" height="30" fill="white"/>
</clipPath>
</defs>
</svg>
