<svg width="30" height="30" viewBox="0 0 30 30" fill="none" xmlns="http://www.w3.org/2000/svg">
<g clip-path="url(#clip0)">
<path d="M15.0821 3.42641C15.2146 2.63412 15.3512 1.84218 15.494 1.0507C15.6594 0.133438 16.9715 -0.303332 17.6202 0.404395C19.0709 1.98552 20.9415 3.03811 22.2881 4.73095C22.6181 5.1458 22.5292 5.94289 22.136 6.28842C20.4805 7.74463 18.5662 8.98838 16.4881 9.75764C16.3125 9.89025 16.0974 9.95703 15.8696 9.96261C15.0361 10.1445 14.4655 9.48824 14.4028 8.78838C14.3844 8.67164 14.3748 8.55066 14.388 8.42011C14.4717 7.59765 14.5777 6.77925 14.6923 5.96187C7.12452 4.90018 2.3719 12.3895 3.99945 19.5991C4.92264 23.6877 7.96462 26.1662 11.9338 27.0635C19.1004 28.6839 24.681 24.7409 25.6441 17.4102C25.8594 15.7721 28.3545 16.3602 28.141 17.9835C27.1314 25.6674 21.4346 30.5769 13.7193 29.9128C8.31699 29.4483 3.8604 26.7747 1.91995 21.5966C0.305716 17.2893 1.10552 12.0524 3.6237 8.2657C6.24288 4.32754 10.6062 2.76195 15.0821 3.42641ZM17.1702 6.66589C17.9364 6.26617 18.6703 5.79493 19.3553 5.27506C18.8078 4.75402 18.2072 4.28806 17.6092 3.81738C17.4495 4.76495 17.3015 5.71403 17.1702 6.66589Z" fill="white"/>
<path d="M9.14 15.238L11.1 13.936V22H12.78V12.2H11.1L9.14 13.516V15.238ZM14.6645 17.674H16.2885C16.5825 17.226 17.1565 16.89 17.8845 16.89C18.9485 16.89 19.6205 17.562 19.6205 18.724C19.6205 19.886 18.9485 20.558 17.8845 20.558C17.0725 20.558 16.4285 20.194 16.1485 19.508H14.3845C14.7065 21.174 16.0925 22.126 17.8845 22.126C20.0685 22.126 21.3845 20.782 21.3845 18.724C21.3845 16.652 20.0685 15.322 18.1645 15.322C17.4785 15.322 16.8765 15.518 16.4145 15.868L16.5825 13.684H20.7545V12.2H15.0845L14.6645 17.674Z" fill="white"/>
</g>
<defs>
<clipPath id="clip0">
<rect width="30" height="30" fill="white"/>
</clipPath>
</defs>
</svg>
