<svg width="20" height="20" viewBox="0 0 20 20" fill="none" xmlns="http://www.w3.org/2000/svg">
<g clip-path="url(#clip0)">
<path d="M10 0C4.48598 0 0 4.89392 0 10.9091V15.9091C0 16.1601 0.203523 16.3636 0.45456 16.3636H1.8182V18.1818C1.8182 19.1846 2.63361 20 3.63639 20H5.00003C5.25128 20 5.45459 19.7967 5.45459 19.5455V11.3637C5.45459 11.1124 5.25128 10.9091 5.00003 10.9091H3.63639C2.63365 10.9091 1.8182 11.7245 1.8182 12.7273V10.9091C1.8182 5.89624 5.48873 1.8182 10 1.8182C14.5113 1.8182 18.1818 5.89624 18.1818 10.9091V12.7273C18.1818 11.7245 17.3664 10.9091 16.3636 10.9091H15C14.7488 10.9091 14.5454 11.1124 14.5454 11.3637V19.5455C14.5454 19.7967 14.7488 20 15 20H16.3636C17.3664 20 18.1818 19.1846 18.1818 18.1818V16.3636H19.5455C19.7965 16.3636 20 16.1601 20 15.9091V10.9091C20 4.89392 15.5141 0 10 0Z" fill="#373277"/>
</g>
<defs>
<clipPath id="clip0">
<rect width="20" height="20" fill="white"/>
</clipPath>
</defs>
</svg>
