<svg width="100" height="94" viewBox="0 0 100 94" fill="none" xmlns="http://www.w3.org/2000/svg">
<path d="M30.8546 27.2623C29.8846 27.2623 28.9364 26.9755 28.1299 26.4383C27.3233 25.901 26.6947 25.1374 26.3235 24.244C25.9523 23.3506 25.8552 22.3675 26.0444 21.419C26.2337 20.4706 26.7008 19.5993 27.3867 18.9155C28.0726 18.2317 28.9464 17.7661 29.8978 17.5774C30.8492 17.3888 31.8353 17.4856 32.7314 17.8557C33.6276 18.2257 34.3936 18.8524 34.9325 19.6565C35.4714 20.4605 35.759 21.4059 35.759 22.3729C35.7566 23.6689 35.2391 24.9111 34.3199 25.8276C33.4006 26.744 32.1546 27.2599 30.8546 27.2623ZM30.8546 19.0627C30.1954 19.0621 29.5507 19.2564 29.0023 19.6211C28.4539 19.9858 28.0263 20.5045 27.7736 21.1115C27.5209 21.7185 27.4544 22.3867 27.5826 23.0313C27.7109 23.676 28.0281 24.2683 28.494 24.7332C28.96 25.1982 29.5538 25.5149 30.2003 25.6433C30.8468 25.7718 31.517 25.7062 32.1262 25.4548C32.7353 25.2034 33.256 24.7776 33.6223 24.2312C33.9886 23.6847 34.1841 23.0423 34.1841 22.385C34.1825 21.5038 33.8317 20.6588 33.2081 20.0343C32.5845 19.4097 31.7386 19.0561 30.8546 19.0505V19.0627Z" fill="#7C5438"/>
<g opacity="0.5">
<path opacity="0.5" d="M30.8954 26.7399C30.018 26.7405 29.1602 26.4817 28.4304 25.9962C27.7006 25.5107 27.1317 24.8204 26.7955 24.0124C26.4594 23.2045 26.3711 22.3154 26.5419 21.4574C26.7127 20.5995 27.1349 19.8113 27.755 19.1926C28.3752 18.574 29.1655 18.1525 30.0259 17.9817C30.8864 17.8108 31.7783 17.8982 32.5889 18.2328C33.3995 18.5674 34.0924 19.1341 34.5799 19.8613C35.0674 20.5885 35.3276 21.4435 35.3276 22.3182C35.3268 23.4902 34.8597 24.6139 34.0287 25.4429C33.1978 26.2719 32.0709 26.7383 30.8954 26.7399ZM30.8954 18.4249C30.1222 18.4249 29.3665 18.6535 28.7237 19.0818C28.081 19.51 27.58 20.1187 27.2843 20.8309C26.9886 21.543 26.9114 22.3266 27.0624 23.0825C27.2135 23.8384 27.586 24.5327 28.1329 25.0775C28.6797 25.6223 29.3764 25.9931 30.1348 26.1431C30.8931 26.2931 31.679 26.2155 32.3931 25.9201C33.1072 25.6248 33.7174 25.1249 34.1465 24.4837C34.5756 23.8426 34.8043 23.089 34.8037 22.3182C34.8021 21.2856 34.3897 20.2958 33.657 19.5659C32.9243 18.8361 31.9311 18.4257 30.8954 18.4249Z" fill="#CE9F38"/>
</g>
<path d="M29.1254 18.6041C28.8966 18.554 28.6573 18.5885 28.4522 18.7013L28.1902 18.8561C27.7973 19.4635 27.2002 19.834 26.8773 20.5264C26.7196 20.8942 26.617 21.283 26.5727 21.6805C26.5178 22.1239 26.6153 22.7009 27.0083 22.1512C27.4012 21.6015 27.3525 20.6327 27.7698 20.0254C28.0288 19.588 29.2107 19.0505 29.1254 18.6041Z" fill="#E5AE41"/>
<path d="M35.0128 22.877C34.6168 22.7859 34.3335 24.4623 34.0228 24.8571C33.4471 25.589 32.8257 25.841 31.9788 26.0718L31.8204 26.1235C31.4031 26.1386 31.4518 26.4272 31.8204 26.4879C32.0913 26.4651 32.3552 26.3898 32.5972 26.2662C33.0492 26.0702 33.462 25.7945 33.8157 25.4523C34.4402 24.8814 35.3723 23.7881 35.0128 22.877Z" fill="#E5AE41"/>
<path d="M31.8438 27.0528H29.9033V30.8701H31.8438V27.0528Z" fill="#7C5438"/>
<path opacity="0.5" d="M30.2075 27.5235L30.235 30.7122L31.0483 30.8428L30.8899 27.9669L30.2075 27.5235Z" fill="#CE9F38"/>
<path d="M30.9149 16.1746C30.2141 16.1752 29.5289 15.9685 28.9459 15.5808C28.3629 15.1931 27.9083 14.6417 27.6397 13.9964C27.3711 13.351 27.3005 12.6408 27.4368 11.9555C27.5732 11.2701 27.9104 10.6405 28.4057 10.1463C28.9011 9.65201 29.5323 9.31533 30.2196 9.1788C30.9069 9.04228 31.6194 9.11205 32.2669 9.37928C32.9145 9.64651 33.468 10.0992 33.8574 10.6801C34.2468 11.261 34.4546 11.944 34.4546 12.6426C34.453 13.5783 34.0797 14.4753 33.4163 15.1372C32.7529 15.7992 31.8535 16.1721 30.9149 16.1746ZM30.9149 10.2465C30.4387 10.2459 29.973 10.3862 29.5768 10.6496C29.1806 10.913 28.8717 11.2876 28.6891 11.7262C28.5066 12.1647 28.4587 12.6473 28.5515 13.113C28.6442 13.5787 28.8735 14.0064 29.2102 14.3421C29.547 14.6778 29.976 14.9064 30.4431 14.9989C30.9102 15.0914 31.3944 15.0436 31.8342 14.8616C32.2741 14.6797 32.6499 14.3717 32.9141 13.9767C33.1783 13.5817 33.319 13.1174 33.3184 12.6426C33.32 12.3268 33.2591 12.0138 33.139 11.7215C33.019 11.4292 32.8423 11.1634 32.619 10.9394C32.3957 10.7154 32.1302 10.5375 31.8378 10.416C31.5453 10.2945 31.2317 10.2317 30.9149 10.2313V10.2465Z" fill="#7C5438"/>
<g opacity="0.5">
<path opacity="0.5" d="M30.878 15.7798C30.2445 15.7804 29.6251 15.5936 29.0981 15.2431C28.5712 14.8926 28.1603 14.3942 27.9176 13.8108C27.6749 13.2275 27.6113 12.5855 27.7347 11.966C27.8581 11.3466 28.1631 10.7776 28.6111 10.331C29.059 9.88448 29.6298 9.58043 30.2511 9.45737C30.8724 9.33431 31.5164 9.39777 32.1015 9.63973C32.6867 9.88168 33.1867 10.2913 33.5382 10.8166C33.8898 11.342 34.0771 11.9595 34.0765 12.591C34.0757 13.4365 33.7384 14.2471 33.1388 14.8449C32.5391 15.4427 31.726 15.779 30.878 15.7798ZM30.878 9.77884C30.3201 9.77884 29.7747 9.94377 29.3108 10.2528C28.8469 10.5618 28.4854 11.001 28.2719 11.5148C28.0584 12.0287 28.0025 12.5941 28.1114 13.1396C28.2202 13.6851 28.4889 14.1862 28.8834 14.5795C29.2779 14.9728 29.7805 15.2406 30.3277 15.3491C30.8749 15.4577 31.442 15.402 31.9574 15.1891C32.4729 14.9763 32.9134 14.6158 33.2234 14.1534C33.5333 13.6909 33.6988 13.1472 33.6988 12.591C33.698 11.8454 33.4005 11.1306 32.8717 10.6034C32.3428 10.0762 31.6259 9.77964 30.878 9.77884Z" fill="#CE9F38"/>
</g>
<path d="M29.6355 9.89727C29.4699 9.86015 29.2964 9.88501 29.1481 9.96712L28.9592 10.0795C28.6759 10.5138 28.2464 10.7871 28.0149 11.2942C27.8973 11.5586 27.8203 11.8391 27.7864 12.1264C27.7438 12.4483 27.8138 12.8643 28.0911 12.4665C28.3683 12.0687 28.3408 11.3702 28.6424 10.9207C28.8435 10.617 29.6964 10.2283 29.6355 9.89727Z" fill="#E5AE41"/>
<path d="M33.8407 12.9919C33.5543 12.9281 33.3503 14.1368 33.1279 14.4223C32.7584 14.882 32.2328 15.1909 31.6504 15.2908L31.5377 15.3273C31.2331 15.3273 31.2697 15.5459 31.5377 15.5915C31.7332 15.5743 31.9236 15.5197 32.0983 15.4305C32.4282 15.2909 32.7296 15.0922 32.9877 14.8444C33.4264 14.4405 34.1027 13.6509 33.8407 12.9919Z" fill="#E5AE41"/>
<path d="M31.8438 19.7551C31.8438 20.1499 31.4081 20.4718 30.875 20.4718C30.3389 20.4718 29.9033 20.1499 29.9033 19.7551V13.7116C29.9033 13.3138 30.3389 12.9919 30.875 12.9919C31.4081 12.9919 31.8438 13.3138 31.8438 13.7116V19.7551Z" fill="#7C5438"/>
<path opacity="0.4" d="M31.3072 17.9329C31.2986 18.0707 31.2359 18.1995 31.1327 18.2916C31.0295 18.3837 30.8942 18.4316 30.7559 18.4249C30.6179 18.4315 30.4828 18.3836 30.3801 18.2914C30.2774 18.1993 30.2154 18.0704 30.2075 17.9329V13.8058C30.2162 13.6688 30.2785 13.5407 30.3811 13.4492C30.4837 13.3577 30.6184 13.3102 30.7559 13.3168C30.8939 13.3093 31.0292 13.3565 31.1325 13.4481C31.2358 13.5397 31.2986 13.6682 31.3072 13.8058V17.9329Z" fill="#CE9F38"/>
<path d="M30.6599 15.5672C30.5807 15.0023 30.8457 14.4739 30.7604 13.9303C30.685 13.8924 30.6036 13.8677 30.5198 13.8574H30.4863C30.1238 14.2158 30.4406 15.0722 30.4162 15.5307C30.401 15.7828 30.1116 16.9945 30.5533 16.9945C30.995 16.9945 30.6903 15.7858 30.6599 15.5672Z" fill="#E5AE41"/>
<path d="M30.9149 7.06384C30.214 7.06444 29.5286 6.85773 28.9455 6.46987C28.3625 6.08201 27.9079 5.53043 27.6394 4.88493C27.3709 4.23943 27.3005 3.52903 27.4371 2.84362C27.5737 2.15822 27.9111 1.52861 28.4068 1.03448C28.9024 0.540348 29.534 0.203902 30.2215 0.0677185C30.909 -0.0684646 31.6216 0.0017352 32.269 0.269434C32.9165 0.537133 33.4698 0.990299 33.8589 1.57159C34.2479 2.15287 34.4552 2.83615 34.4546 3.53496C34.453 4.47038 34.0796 5.36703 33.4161 6.02848C32.7526 6.68993 31.8532 7.06224 30.9149 7.06384ZM30.9149 1.1358C30.4388 1.1352 29.9733 1.2754 29.5771 1.53866C29.181 1.80191 28.872 2.1764 28.6894 2.61474C28.5068 3.05307 28.4587 3.53556 28.5513 4.00115C28.6438 4.46674 28.8727 4.89451 29.2091 5.23034C29.5456 5.56617 29.9744 5.79497 30.4413 5.88779C30.9082 5.98061 31.3922 5.93328 31.8321 5.75178C32.272 5.57028 32.648 5.26278 32.9126 4.86817C33.1772 4.47357 33.3184 4.00959 33.3184 3.53496C33.3192 2.89838 33.0665 2.28751 32.6159 1.83653C32.1652 1.38555 31.5535 1.13134 30.9149 1.12973V1.1358Z" fill="#7C5438"/>
<g opacity="0.5">
<path opacity="0.5" d="M30.878 6.68119C30.2446 6.68179 29.6253 6.49511 29.0984 6.14476C28.5715 5.7944 28.1607 5.29612 27.9179 4.71295C27.6751 4.12978 27.6113 3.48793 27.7345 2.86858C27.8577 2.24924 28.1624 1.68023 28.61 1.23355C29.0576 0.786862 29.6281 0.482572 30.2492 0.35917C30.8703 0.235768 31.5142 0.298799 32.0994 0.540288C32.6846 0.781777 33.1848 1.19087 33.5367 1.71583C33.8887 2.24078 34.0765 2.858 34.0765 3.48941C34.0765 4.33539 33.7396 5.14678 33.1399 5.74527C32.5401 6.34375 31.7266 6.68039 30.878 6.68119ZM30.878 0.677231C30.3192 0.67663 29.7728 0.841304 29.308 1.15041C28.8431 1.45952 28.4807 1.89917 28.2666 2.4137C28.0525 2.92824 27.9963 3.49453 28.1052 4.04091C28.214 4.5873 28.4831 5.0892 28.8782 5.48309C29.2733 5.87699 29.7767 6.14518 30.3248 6.2537C30.8728 6.36223 31.4409 6.30623 31.957 6.09277C32.4731 5.87932 32.9141 5.51802 33.2242 5.05459C33.5342 4.59117 33.6994 4.04646 33.6988 3.48941C33.6956 2.7454 33.397 2.03291 32.8685 1.50767C32.3399 0.982425 31.6243 0.687137 30.878 0.686341V0.677231Z" fill="#CE9F38"/>
</g>
<path d="M29.6355 0.795669C29.4698 0.761552 29.2974 0.786259 29.1481 0.865516L28.9592 0.98092C28.6759 1.4152 28.2464 1.68548 28.0149 2.19568C27.8965 2.45978 27.8195 2.74041 27.7864 3.02779C27.7438 3.33148 27.8138 3.76576 28.0911 3.36793C28.3683 2.97009 28.3408 2.26857 28.6424 1.82214C28.8435 1.51845 29.6964 1.12973 29.6355 0.795669Z" fill="#E5AE41"/>
<path d="M33.8407 3.89331C33.5543 3.8265 33.3503 5.03823 33.1279 5.32066C32.7593 5.78147 32.2333 6.09069 31.6504 6.18921L31.5377 6.22869C31.2331 6.22869 31.2697 6.44735 31.5377 6.4929C31.733 6.47458 31.9231 6.41999 32.0983 6.33195C32.4282 6.19232 32.7296 5.99368 32.9877 5.74583C33.4264 5.33888 34.1027 4.54928 33.8407 3.89331Z" fill="#E5AE41"/>
<path d="M31.8438 10.6565C31.8438 11.0513 31.4081 11.3732 30.875 11.3732C30.3389 11.3732 29.9033 11.0513 29.9033 10.6565V4.61002C29.9033 4.21523 30.3389 3.89331 30.875 3.89331C31.4081 3.89331 31.8438 4.21523 31.8438 4.61002V10.6565Z" fill="#7C5438"/>
<path opacity="0.4" d="M31.3072 8.83436C31.2986 8.97188 31.2358 9.10043 31.1325 9.19201C31.0292 9.28359 30.8939 9.33078 30.7559 9.3233C30.6184 9.32996 30.4837 9.28239 30.3811 9.1909C30.2785 9.0994 30.2162 8.97133 30.2075 8.83436V4.7072C30.2154 4.56969 30.2774 4.44085 30.3801 4.34871C30.4828 4.25657 30.6179 4.2086 30.7559 4.21523C30.8944 4.20777 31.0302 4.25537 31.1335 4.3476C31.2369 4.43982 31.2993 4.56914 31.3072 4.7072V8.83436Z" fill="#CE9F38"/>
<path d="M30.6599 6.45646C30.5807 5.8916 30.8457 5.36621 30.7604 4.82261C30.6852 4.78375 30.6037 4.75807 30.5198 4.74668H30.4863C30.1238 5.10504 30.4406 5.96144 30.4162 6.42002C30.401 6.67208 30.1116 7.88684 30.5533 7.88684C30.995 7.88684 30.6903 6.68726 30.6599 6.45646Z" fill="#E5AE41"/>
<path d="M67 27C66.0111 27 65.0444 26.7068 64.2221 26.1574C63.3999 25.6079 62.7591 24.827 62.3806 23.9134C62.0022 22.9998 61.9031 21.9945 62.0961 21.0246C62.289 20.0546 62.7652 19.1637 63.4645 18.4645C64.1637 17.7652 65.0547 17.289 66.0246 17.0961C66.9945 16.9031 67.9998 17.0022 68.9134 17.3806C69.827 17.759 70.6079 18.3999 71.1573 19.2222C71.7067 20.0444 72 21.0111 72 22C71.9984 23.3256 71.471 24.5964 70.5337 25.5337C69.5964 26.471 68.3256 26.9984 67 27ZM67 18.6149C66.328 18.6149 65.6712 18.8142 65.1124 19.1875C64.5537 19.5608 64.1183 20.0914 63.8611 20.7123C63.604 21.3331 63.5367 22.0162 63.6678 22.6752C63.7989 23.3343 64.1224 23.9397 64.5976 24.4148C65.0727 24.89 65.6781 25.2136 66.3372 25.3447C66.9962 25.4758 67.6794 25.4085 68.3002 25.1513C68.921 24.8942 69.4516 24.4587 69.8249 23.9C70.1982 23.3413 70.3975 22.6844 70.3975 22.0124C70.3987 21.5653 70.3118 21.1224 70.1416 20.7089C69.9715 20.2955 69.7215 19.9196 69.4059 19.6029C69.0903 19.2862 68.7154 19.0348 68.3026 18.8631C67.8897 18.6915 67.4471 18.6029 67 18.6025V18.6149Z" fill="#7C5438"/>
<g opacity="0.5">
<path opacity="0.5" d="M67.1716 26.7399C66.2944 26.7399 65.4369 26.4806 64.7075 25.9947C63.9781 25.5089 63.4097 24.8183 63.074 24.0103C62.7383 23.2024 62.6504 22.3133 62.8215 21.4556C62.9927 20.5978 63.4151 19.81 64.0354 19.1916C64.6557 18.5732 65.446 18.1521 66.3063 17.9814C67.1667 17.8108 68.0585 17.8984 68.869 18.2331C69.6794 18.5677 70.3721 19.1345 70.8595 19.8616C71.3468 20.5888 71.6069 21.4437 71.6069 22.3182C71.6061 23.4907 71.1386 24.6149 70.307 25.444C69.4754 26.273 68.3477 26.7391 67.1716 26.7399ZM67.1716 18.4249C66.3985 18.4249 65.6428 18.6535 65 19.0818C64.3572 19.51 63.8563 20.1187 63.5605 20.8309C63.2648 21.543 63.1876 22.3266 63.3386 23.0825C63.4897 23.8384 63.8622 24.5327 64.4091 25.0775C64.956 25.6223 65.6527 25.9931 66.411 26.1431C67.1694 26.2931 67.9553 26.2155 68.6694 25.9201C69.3835 25.6248 69.9937 25.1249 70.4227 24.4837C70.8518 23.8426 71.0805 23.089 71.0799 22.3182C71.0783 21.2856 70.6659 20.2958 69.9332 19.5659C69.2006 18.8361 68.2074 18.4257 67.1716 18.4249Z" fill="#CE9F38"/>
</g>
<path d="M64.9968 19.018C64.8188 18.9779 64.6326 19.0053 64.4731 19.0948L64.267 19.2173C63.9637 19.6975 63.4969 19.9904 63.2481 20.5378C63.1254 20.8286 63.0456 21.136 63.0111 21.4502C62.9685 21.8007 63.0419 22.2569 63.3499 21.8224C63.658 21.3878 63.6177 20.6219 63.94 20.1417C64.1437 19.7959 65.0608 19.3709 64.9968 19.018Z" fill="#E5AE41"/>
<path d="M70.9317 23.003C70.601 22.9273 70.3627 24.3187 70.1013 24.6464C69.6169 25.2539 69.094 25.4631 68.3789 25.6547L68.2482 25.6975C67.8971 25.7101 67.9381 25.9496 68.2482 26C68.4753 25.981 68.6965 25.9185 68.8992 25.816C69.2802 25.6546 69.6277 25.4256 69.9244 25.1405C70.4524 24.6666 71.2367 23.7592 70.9317 23.003Z" fill="#E5AE41"/>
<path d="M68 27H66V31H68V27Z" fill="#7C5438"/>
<path opacity="0.5" d="M66 28L66.0291 30.882L67 31L66.8145 28.4007L66 28Z" fill="#CE9F38"/>
<path d="M67.5 16C66.8078 16 66.1311 15.7947 65.5555 15.4101C64.9799 15.0256 64.5313 14.4789 64.2664 13.8394C64.0015 13.1999 63.9322 12.4961 64.0672 11.8172C64.2023 11.1382 64.5356 10.5146 65.0251 10.0251C65.5146 9.53564 66.1382 9.2023 66.8172 9.06725C67.4961 8.9322 68.1999 9.00152 68.8394 9.26642C69.479 9.53133 70.0256 9.97993 70.4102 10.5555C70.7947 11.1311 71 11.8078 71 12.5C70.9992 13.428 70.6302 14.3178 69.974 14.974C69.3178 15.6302 68.428 15.9992 67.5 16ZM67.5 10.1255C67.0296 10.1255 66.5699 10.2651 66.1788 10.5264C65.7878 10.7878 65.4831 11.1593 65.3032 11.5939C65.1234 12.0285 65.0764 12.5067 65.1684 12.9679C65.2604 13.4292 65.4872 13.8528 65.82 14.1852C66.1528 14.5176 66.5766 14.7438 67.038 14.8352C67.4994 14.9266 67.9775 14.879 68.4119 14.6986C68.8463 14.5182 69.2174 14.213 69.4783 13.8217C69.7391 13.4303 69.8781 12.9703 69.8775 12.5C69.8791 12.1868 69.8187 11.8763 69.7 11.5865C69.5812 11.2966 69.4063 11.0331 69.1854 10.8111C68.9645 10.589 68.7018 10.4128 68.4126 10.2926C68.1234 10.1724 67.8132 10.1105 67.5 10.1105V10.1255Z" fill="#7C5438"/>
<g opacity="0.5">
<path opacity="0.5" d="M67.1572 15.7798C66.5238 15.7804 65.9044 15.5936 65.3774 15.2431C64.8504 14.8926 64.4396 14.3942 64.1969 13.8108C63.9542 13.2275 63.8906 12.5855 64.014 11.966C64.1374 11.3466 64.4424 10.7776 64.8904 10.331C65.3383 9.88448 65.909 9.58043 66.5304 9.45737C67.1517 9.33431 67.7957 9.39777 68.3808 9.63973C68.9659 9.88168 69.4659 10.2913 69.8175 10.8166C70.169 11.342 70.3564 11.9595 70.3558 12.591C70.355 13.4365 70.0177 14.2471 69.4181 14.8449C68.8184 15.4427 68.0053 15.779 67.1572 15.7798ZM67.1572 9.77884C66.5993 9.77884 66.054 9.94377 65.5901 10.2528C65.1262 10.5618 64.7647 11.001 64.5512 11.5148C64.3377 12.0287 64.2818 12.5941 64.3907 13.1396C64.4995 13.6851 64.7682 14.1862 65.1627 14.5795C65.5572 14.9728 66.0598 15.2406 66.6069 15.3491C67.1541 15.4577 67.7213 15.402 68.2367 15.1891C68.7522 14.9763 69.1927 14.6158 69.5027 14.1534C69.8126 13.6909 69.9781 13.1472 69.9781 12.591C69.9772 11.8454 69.6798 11.1306 69.151 10.6034C68.6221 10.0762 67.9051 9.77964 67.1572 9.77884Z" fill="#CE9F38"/>
</g>
<path d="M65.9967 10.0185C65.8192 9.97771 65.6331 10.0049 65.4741 10.0948L65.2716 10.2174C64.9679 10.6913 64.5041 10.9895 64.2559 11.543C64.1313 11.832 64.0488 12.1379 64.011 12.451C63.9685 12.8023 64.0436 13.2563 64.3376 12.8222C64.6315 12.3881 64.6054 11.6258 64.9254 11.1354C65.1475 10.804 66.062 10.3798 65.9967 10.0185Z" fill="#E5AE41"/>
<path d="M69.9539 13.0028C69.734 12.9293 69.5756 14.3228 69.4005 14.652C69.1141 15.1827 68.7059 15.5391 68.2535 15.6534L68.166 15.6954C67.9295 15.6954 67.9603 15.9475 68.166 16C68.3178 15.9802 68.4656 15.9172 68.6012 15.8144C68.8573 15.6534 69.0914 15.4244 69.2918 15.1387C69.6418 14.673 70.1573 13.7626 69.9539 13.0028Z" fill="#E5AE41"/>
<path d="M68 19.3293C68 19.6987 67.551 20 66.9984 20C66.4459 20 66 19.6987 66 19.3293V13.6736C66 13.3013 66.4459 13 66.9984 13C67.551 13 68 13.3013 68 13.6736V19.3293Z" fill="#7C5438"/>
<path opacity="0.4" d="M68 17.518C67.9843 17.6528 67.8706 17.7789 67.6835 17.869C67.4964 17.9591 67.2508 18.0059 67 17.9994C66.7491 18.0059 66.5036 17.9591 66.3164 17.869C66.1293 17.7789 66.0157 17.6528 66 17.518V13.4792C66.0157 13.3446 66.1295 13.2188 66.3168 13.1292C66.5041 13.0396 66.7497 12.9934 67 13.0008C67.2503 12.9934 67.4959 13.0396 67.6832 13.1292C67.8705 13.2188 67.9843 13.3446 68 13.4792V17.518Z" fill="#CE9F38"/>
<path d="M67.5 7C66.8076 7 66.1308 6.79465 65.5552 6.40993C64.9796 6.02522 64.531 5.47841 64.2661 4.8387C64.0013 4.19898 63.9322 3.49509 64.0675 2.81608C64.2028 2.13706 64.5364 1.51343 65.0262 1.02406C65.516 0.534701 66.1399 0.201595 66.819 0.0668868C67.4982 -0.0678214 68.202 0.00191877 68.8415 0.267287C69.481 0.532655 70.0274 0.981727 70.4116 1.55769C70.7958 2.13366 71.0006 2.81065 71 3.50301C70.9992 4.43075 70.6301 5.32021 69.9738 5.97594C69.3175 6.63167 68.4277 7 67.5 7ZM67.5 1.12554C67.0298 1.12554 66.5701 1.26498 66.1792 1.52622C65.7882 1.78746 65.4835 2.15877 65.3035 2.59319C65.1236 3.02762 65.0765 3.50565 65.1682 3.96683C65.2599 4.42802 65.4864 4.85164 65.8189 5.18414C66.1514 5.51663 66.575 5.74306 67.0362 5.8348C67.4974 5.92654 67.9754 5.87945 68.4098 5.69951C68.8442 5.51956 69.2155 5.21484 69.4768 4.82386C69.738 4.43289 69.8775 3.97323 69.8775 3.50301C69.8779 3.1904 69.8167 2.88077 69.6974 2.59181C69.5782 2.30285 69.4032 2.0402 69.1824 1.81887C68.9616 1.59755 68.6994 1.42187 68.4107 1.30188C68.1221 1.18188 67.8126 1.11991 67.5 1.11952V1.12554Z" fill="#7C5438"/>
<g opacity="0.5">
<path opacity="0.5" d="M67.1572 6.68119C66.5239 6.68179 65.9046 6.49511 65.3777 6.14476C64.8508 5.7944 64.44 5.29612 64.1972 4.71295C63.9544 4.12978 63.8906 3.48793 64.0138 2.86858C64.137 2.24924 64.4416 1.68023 64.8893 1.23355C65.3369 0.786862 65.9074 0.482572 66.5285 0.35917C67.1496 0.235768 67.7935 0.298799 68.3787 0.540288C68.9639 0.781777 69.4641 1.19087 69.816 1.71583C70.1679 2.24078 70.3558 2.858 70.3558 3.48941C70.355 4.33515 70.0178 5.14606 69.4183 5.74438C68.8187 6.34269 68.0056 6.67958 67.1572 6.68119ZM67.1572 0.677231C66.5985 0.67663 66.0521 0.841304 65.5873 1.15041C65.1224 1.45952 64.76 1.89917 64.5459 2.4137C64.3318 2.92824 64.2756 3.49453 64.3845 4.04091C64.4933 4.5873 64.7624 5.0892 65.1575 5.48309C65.5526 5.87699 66.056 6.14518 66.604 6.2537C67.1521 6.36223 67.7201 6.30623 68.2363 6.09277C68.7524 5.87932 69.1934 5.51802 69.5034 5.05459C69.8135 4.59117 69.9787 4.04646 69.978 3.48941C69.974 2.74564 69.6753 2.03362 69.1469 1.50855C68.6185 0.983478 67.9033 0.687933 67.1572 0.686341V0.677231Z" fill="#CE9F38"/>
</g>
<path d="M65.9967 1.0165C65.8191 0.978954 65.6341 1.00595 65.4741 1.09278L65.2716 1.21881C64.9679 1.69308 64.5041 1.98825 64.2559 2.54543C64.1305 2.8344 64.048 3.14063 64.011 3.45417C63.9685 3.78582 64.0436 4.26009 64.3376 3.82562C64.6315 3.39115 64.6054 2.62503 64.9254 2.13749C65.1475 1.80584 66.062 1.38132 65.9967 1.0165Z" fill="#E5AE41"/>
<path d="M69.9539 4.00204C69.734 3.95069 69.5756 4.88199 69.4005 5.09905C69.1149 5.45372 68.7063 5.6915 68.2535 5.76659L68.166 5.79694C67.9295 5.79694 67.9603 5.96499 68.166 6C68.3176 5.98592 68.4652 5.94396 68.6012 5.87629C68.8573 5.76898 69.0914 5.61631 69.2918 5.42582C69.6418 5.11306 70.1573 4.5062 69.9539 4.00204Z" fill="#E5AE41"/>
<path d="M68 10.3293C68 10.6987 67.551 11 66.9984 11C66.4459 11 66 10.6987 66 10.3293V4.67073C66 4.30126 66.4459 4 66.9984 4C67.551 4 68 4.30126 68 4.67073V10.3293Z" fill="#7C5438"/>
<path opacity="0.4" d="M68 8.52079C67.9843 8.65536 67.8705 8.78116 67.6832 8.87077C67.4959 8.96039 67.2503 9.00657 67 8.99925C66.7497 9.00657 66.5041 8.96039 66.3168 8.87077C66.1295 8.78116 66.0157 8.65536 66 8.52079V4.48217C66.0143 4.34707 66.1275 4.22052 66.315 4.13027C66.5024 4.04003 66.7488 3.99345 67 4.00074C67.2512 3.99345 67.4975 4.04003 67.685 4.13027C67.8724 4.22052 67.9857 4.34707 68 4.48217V8.52079Z" fill="#CE9F38"/>
<path d="M98.3272 69.6642C98.4886 68.033 96.5517 67.7873 95.1504 67.5693C91.2765 66.9681 87.3308 67.1305 83.4041 66.9842C69.0636 66.4283 54.6511 67.7624 40.3194 66.7808C29.9745 66.0728 19.2392 65.0985 8.86203 66.0216C6.0579 66.2717 4.31321 68.33 3.69986 70.9954L3.50468 71.2558C0.989623 78.0903 25.0001 76.9054 27.1674 76.9902C32.8241 77.2141 38.4749 77.8475 44.1331 78.0728C49.1691 78.2717 54.2153 78.0303 59.2469 78.2571C63.6842 78.459 68.1333 77.7465 72.5999 77.7465C74.4679 77.7465 76.1598 77.4964 77.9896 77.2375C81.7123 76.7079 85.6844 76.1666 89.2883 75.0124C90.6984 74.5604 92.0044 73.8246 93.4101 73.3565C94.3477 73.0449 95.7359 72.8342 96.7645 72.211C97.212 71.9439 97.5879 71.5727 97.86 71.1292C98.1322 70.6856 98.2925 70.183 98.3272 69.6642Z" fill="#895B3D"/>
<path d="M97.841 51.1646C95.119 49.8597 91.9847 49.5013 88.8563 49.3594C84.9634 49.1839 81.0147 49.5847 77.0895 49.4033C72.2472 49.178 67.5942 47.7839 62.7592 47.5308C50.8017 46.9047 38.8911 49.9036 27.0626 51.2509C23.5043 51.6576 20.1249 52.3291 16.5827 51.8054C14.3406 51.4733 12.0427 51.4528 9.75363 51.4528C7.54084 51.4528 5.11676 51.6444 3.20625 52.2442L2.41093 52.4037C1.98099 52.9289 0.280312 54.0304 0.846715 54.9491C1.28692 55.6469 4.1747 55.4055 4.95533 55.4114C7.07911 55.4139 9.19681 55.638 11.2738 56.0799C14.276 56.7426 17.29 56.3988 20.3583 56.5553C24.5241 56.7689 28.5872 57.3233 32.7956 57.1566C37.3224 56.9781 41.8639 56.9942 46.4054 56.9957C55.663 56.9957 65.2523 57.4623 74.4923 56.5568C80.0917 56.0097 85.6545 55.8634 91.2011 54.9681C93.5724 54.5848 95.7015 54.0041 98.1652 53.9602C98.1374 53.0254 97.863 52.1711 97.841 51.1646Z" fill="#895B3D"/>
<path d="M19.9769 87.2801C20.8426 87.3021 21.7069 87.3343 22.5653 87.3825C22.5448 87.8741 22.219 88.0745 21.792 88.1461C29.7392 91.7624 39.3446 93.9143 49.7072 93.9976C63.4153 94.1044 75.8703 90.5687 84.9606 84.7567C84.3812 84.812 83.7994 84.8374 83.2173 84.8327C83.2246 84.7168 83.2246 84.6005 83.2173 84.4846C83.951 84.0457 84.9782 84.0633 85.9892 84.0764C91.1484 80.5787 95.1294 76.3232 97.5124 71.5776C96.2461 71.6946 94.9783 71.8278 93.6973 71.9448C89.4962 72.3281 85.1073 72.3485 80.8828 72.3602C76.2606 72.3719 71.6897 72.8079 67.0631 72.7713C62.1724 72.7333 57.3653 72.4363 52.4878 72.3983C47.9316 72.3617 43.4576 72.3734 39.0071 73.3316C36.0769 73.9856 33.0825 74.3109 30.0797 74.3015C23.949 74.2532 17.7538 74.3351 11.6012 74.2869C9.21963 74.2678 6.81462 74.2869 4.44336 74.4639C7.92982 79.5357 13.3018 83.9418 19.9769 87.2801Z" fill="#C68655"/>
<path d="M0.147795 58.8213C0.0604956 59.5747 0.0115208 60.332 0.00105843 61.0902C-0.0400278 65.2916 1.11627 69.316 3.25862 73.0273C5.89987 73.1385 8.58662 73.235 11.1824 73.5159C15.5991 73.9914 20.1216 73.5861 24.5559 73.6198C28.9492 73.6549 33.6815 74.243 37.7784 72.8108C41.8752 71.3787 46.4138 72.1935 50.8599 72.0077C55.8695 71.797 61.039 71.7151 66.0442 71.9989C71.9929 72.3325 78.0766 72.056 83.9548 71.7751C86.9057 71.6288 89.7406 71.0437 92.6431 70.6384C94.244 70.4132 96.4128 70.1425 98.2294 70.3459C98.9311 68.6659 99.4305 66.9089 99.7173 65.1117C99.4095 65.0271 99.12 64.8868 98.8632 64.6977C98.806 64.0862 99.3196 63.9955 99.8699 63.9663C99.9418 63.2743 99.9828 62.5765 99.9887 61.8743C99.9887 61.5262 99.9887 61.1795 99.9741 60.8342C99.8353 60.7775 99.6926 60.731 99.547 60.6953C98.2176 60.3603 96.6783 60.3954 95.3298 60.1496C96.8779 59.6639 98.3805 59.7912 99.9095 59.7737C99.6871 57.2325 99.0424 54.7458 98.0019 52.4154C95.0789 52.6231 91.9652 52.449 88.9908 52.4256C79.6085 52.3525 70.1983 52.0087 60.7969 52.3291C49.3368 52.7197 37.8532 53.6559 26.3637 54.1153C20.5838 54.3478 14.6424 54.6799 8.89181 55.3075C6.38262 55.5825 3.87491 55.6893 1.38479 55.8926C1.15295 55.9117 0.909358 55.9263 0.662841 55.9424C0.540561 56.43 0.435396 56.922 0.347354 57.4184C0.907887 57.5018 1.48604 57.5472 2.01283 57.7388C2.0187 58.6765 1.16028 58.8915 0.147795 58.8213Z" fill="#C68655"/>
<path d="M12.1852 44.8479C10.1793 45.0103 8.09415 45.259 6.0912 45.534C4.17356 47.857 2.65936 50.4836 1.61133 53.3048C7.10954 53.8329 12.7428 53.3048 18.2336 53.3487C31.6952 53.454 44.859 51.0886 58.3822 51.1939C63.1629 51.2305 67.2612 50.2562 71.9773 50.5619C75.2833 50.7755 78.9928 51.7527 82.2679 51.6401C87.5681 51.4587 92.7625 51.5815 98.048 51.6327C95.5168 46.1982 90.9122 41.3517 84.8417 37.497C83.3303 37.5379 81.7602 37.497 81.6399 36.5827C82.1931 36.5593 82.7874 36.5988 83.3728 36.6017C82.5237 36.1024 81.6482 35.6225 80.7463 35.1622C79.2686 35.1871 77.7499 35.1622 76.2694 35.2207C74.7521 35.2822 73.1879 35.4007 71.6266 35.3173C70.193 35.2412 69.2788 34.561 67.9406 34.2435C70.0125 34.3167 72.2576 33.9861 74.3442 33.8047C75.1593 33.7133 75.9646 33.5498 76.7506 33.3161C69.157 30.1592 60.1914 28.2999 50.5743 28.2253C33.0775 28.0877 17.6217 33.8851 8.59892 42.7765C12.1103 43.1773 15.7685 43.4421 19.2182 44.0287C18.2806 44.4193 16.847 44.2145 15.7567 44.3608C14.5579 44.5202 13.4016 44.7499 12.1852 44.8479Z" fill="#C68655"/>
<path d="M81.5002 79.8838C74.8237 79.9233 68.9689 80.9268 62.6695 81.6744C56.8001 82.3692 52.8015 81.9567 47.1155 81.0892C43.0553 80.4704 38.7867 79.8882 34.5372 79.5708C30.4902 79.2694 26.3684 79.461 22.3053 79.4962C17.8944 79.5357 13.5612 79.7741 9.17969 79.8897C10.1325 80.782 11.1489 81.6407 12.2289 82.4658C13.5246 82.4585 14.6251 82.4556 14.9802 82.4365C18.0616 82.2742 21.2898 82.3034 24.3713 82.1162C30.6296 81.7387 36.1102 81.2882 42.3436 82.0942C48.1118 82.8388 52.376 85.2394 58.69 84.9995C64.0576 84.7962 69.4854 83.5015 74.7225 82.7203C79.7819 81.964 84.4071 81.2297 89.4724 81.4637C90.0505 80.9761 90.6076 80.4802 91.1437 79.976C87.9375 79.9906 84.6726 79.8648 81.5002 79.8838Z" fill="#DA9859"/>
<path d="M94.3998 74.7111C90.8077 74.9393 87.3447 74.9349 83.7116 74.9071C78.7563 74.8676 73.9022 74.6862 69.0775 74.3468C63.1802 73.9314 56.8309 73.4062 50.8044 73.7383C49.3591 73.8173 47.7494 73.7953 46.3539 73.9606C44.9585 74.1259 43.7611 74.5663 42.4214 74.8076C38.8997 75.4425 34.8557 75.64 30.9847 75.6854C26.1909 75.7395 21.2561 75.7044 16.4461 75.8009C12.7102 75.877 9.16944 75.9106 5.46875 75.8126C5.7769 76.2125 6.09728 76.6075 6.42988 76.9976C8.40935 77.0839 10.4196 77.2536 11.9883 77.2594C16.1879 77.274 20.722 76.9434 24.9333 76.7562C32.7529 76.408 40.8997 76.8279 47.9328 75.2099C56.6387 73.2058 67.1391 75.1777 76.2221 75.9692C80.3803 76.3317 84.5567 76.4446 88.7285 76.3071C90.1401 76.2661 92.4776 76.0789 94.7447 76.0335C95.0968 75.5761 95.4328 75.1119 95.7527 74.6409C95.2098 74.6657 94.7403 74.6891 94.3998 74.7111Z" fill="#DA9859"/>
<path d="M93.6466 77.0546C89.5233 77.1834 85.5174 77.2506 81.3779 77.1204C76.1541 76.9551 70.8599 76.7416 65.7329 76.2427C62.5634 75.9311 59.6962 75.7673 56.4401 75.741C52.5853 75.7088 49.9499 76.1506 46.4444 76.765C42.616 77.435 38.6953 77.3033 34.6233 77.1936C30.4971 77.0824 26.7817 77.1599 22.6555 77.2858C18.6584 77.4072 14.7083 77.4218 10.7302 77.6383C9.53433 77.7027 8.35603 77.7846 7.17773 77.849C7.64044 78.358 8.12321 78.8583 8.62602 79.3499C8.80211 79.3426 8.96646 79.3352 9.11173 79.325C11.8997 79.1363 14.4515 79.0778 17.3392 79.088C22.2212 79.1026 26.6922 78.5277 31.5727 78.7676C38.6263 79.1158 45.2852 80.4661 52.3315 80.9298C55.5362 81.1419 58.8818 81.2882 61.9412 80.7981C64.9229 80.3212 67.8885 79.72 71.0389 79.4918C77.9531 78.9871 85.2444 78.734 92.367 78.7808C92.91 78.2161 93.4274 77.6403 93.9195 77.0532L93.6466 77.0546ZM66.9684 78.3566C64.9288 79.4874 59.9251 79.1802 56.9683 79.3177C53.2618 79.4903 49.9543 79.5488 46.663 78.794L46.3109 78.3434C48.7878 77.5432 53.5479 78.1679 56.6338 78.1284C59.2809 78.0903 64.8921 77.5593 66.9684 78.3566Z" fill="#DA9859"/>
<path d="M11.8572 75.2406C14.8815 75.3869 17.9952 75.3606 21.065 75.3869C24.4575 75.4147 27.9733 75.3021 31.3468 75.1733C34.2888 75.0607 37.2808 75.0271 39.9264 74.3995C45.5024 73.0829 50.5252 73.0829 57.03 73.1341C63.7579 73.1868 69.6391 74.1128 76.4697 74.0279C80.6531 73.9753 84.7104 74.0572 88.8293 73.905C91.0641 73.8217 93.7611 73.6944 96.3495 73.7002C96.7839 73.002 97.1825 72.2925 97.5454 71.5717C96.2791 71.6888 95.0113 71.8219 93.7303 71.9389C89.5292 72.3222 85.1403 72.3427 80.9158 72.3544C76.2936 72.3661 71.7228 72.802 67.0962 72.7655C62.2054 72.7274 57.3984 72.4305 52.5208 72.3924C47.9647 72.3559 43.4907 72.3676 39.0402 73.3257C36.1099 73.9797 33.1155 74.305 30.1127 74.2956C23.9821 74.2473 17.7869 74.3293 11.6342 74.281C9.25267 74.262 6.3781 73.6212 4.00391 73.8012C4.1301 73.987 4.72878 74.8252 4.86084 75.0095C7.36417 74.9568 10.3884 75.1719 11.8572 75.2406Z" fill="#DA9859"/>
<path d="M30.8505 89.3062C32.9503 88.8191 32.893 87.6765 35.5372 87.3313C37.954 87.0153 40.7728 86.8076 43.009 87.4644C44.406 87.874 44.9915 88.4475 46.1492 88.9405C47.4155 89.4788 48.5366 89.3896 50.2857 89.4027C53.3994 89.4276 56.5147 89.4627 59.5756 89.549C63.9131 89.6719 68.1112 89.4028 72.3505 89.3501C73.0841 89.3501 74.5119 89.2989 76.0673 89.2828C77.0387 88.8927 77.9866 88.485 78.911 88.0598C72.6249 88.1681 66.2712 88.111 59.916 88.0598C54.7098 88.0189 51.1118 88.2061 47.2967 86.5443C43.3729 84.8415 38.9166 85.3374 34.3575 86.278C30.9825 86.9744 28.1197 87.9794 24.1446 88.0028C23.5107 88.0028 22.8753 88.0028 22.237 88.0028C22.1087 88.0704 21.9697 88.1159 21.8262 88.1374C22.9737 88.6601 24.1559 89.1511 25.3728 89.6105C27.3229 89.6544 29.4491 89.6324 30.8505 89.3062Z" fill="#DA9859"/>
<path d="M74.1884 89.9996C71.9258 90.0215 69.6396 90.0289 67.3681 89.9674C62.7855 89.8431 57.9638 89.7933 53.3607 89.7992C49.9534 89.7992 46.7957 90.2673 44.3819 89.0546C43.1346 88.4285 42.3554 87.8316 40.2131 87.6809C37.4119 87.482 35.6496 88.1359 33.9298 88.9185C32.0604 89.7699 30.2819 89.9191 27.5145 89.8957C27.0655 89.8957 26.618 89.8957 26.1719 89.9104C28.5367 90.7648 30.9491 91.4818 33.3972 92.0579C34.5799 92.1266 35.7552 92.2042 36.9188 92.2627C39.9225 92.409 43.0818 92.6781 46.1632 92.5757C49.007 92.4821 51.9652 92.2232 54.8867 92.1208C58.8882 91.9745 63.214 91.8926 67.3593 92.0286C69.6713 91.4777 71.9511 90.8003 74.1884 89.9996Z" fill="#DA9859"/>
<path d="M88.2064 82.4599C84.8916 82.2054 81.235 82.1469 78.5071 82.5243C75.524 82.9383 72.579 83.3903 69.7528 83.9623C67.5019 84.4158 65.3508 85.0565 62.9208 85.3301C57.0778 85.9899 51.7336 85.0375 46.749 83.7853C41.848 82.5536 37.0761 82.1586 31.3226 82.2493C26.4803 82.3254 21.6042 82.6004 16.8192 82.8842C16.4406 82.9076 14.8045 82.9749 12.9395 83.0188C14.9547 84.4851 17.0804 85.7943 19.2975 86.9349L20.2029 87.0109C23.3416 87.2479 26.8354 87.3313 29.7745 86.7652C32.3365 86.2707 34.1913 85.5495 36.947 85.1809C39.8949 84.7874 43.129 84.3792 46.027 85.1399C47.4739 85.5188 48.2692 86.1274 49.38 86.6365C50.7006 87.245 51.6426 87.2494 53.4739 87.3416C56.5407 87.4966 59.584 87.3884 62.6875 87.4132L75.8938 87.5171C77.2936 87.5273 78.6597 87.5171 80.0449 87.5039C81.7302 86.6774 83.3679 85.7578 84.9503 84.7493C84.371 84.8047 83.7891 84.8301 83.2071 84.8254C83.2144 84.7095 83.2144 84.5932 83.2071 84.4773C83.9408 84.0384 84.9679 84.0559 85.979 84.0691C86.7528 83.5503 87.4952 83.0139 88.2064 82.4599Z" fill="#DA9859"/>
<path d="M54.11 92.6386C49.7373 92.6825 45.8194 93.0775 41.3807 92.8537C39.7108 92.7659 38.0439 92.722 36.377 92.6986C40.7751 93.5279 45.2393 93.9602 49.7153 93.9903C54.7254 94.0377 59.7274 93.5775 64.6443 92.6167C61.1211 92.6357 57.573 92.6021 54.11 92.6386Z" fill="#DA9859"/>
<path d="M67.6149 42.9447C62.215 42.5936 56.6727 42.1577 51.5296 41.3677C46.3586 40.5734 41.845 39.2773 36.6154 38.5312C32.3937 37.9285 28.068 37.1708 23.7202 36.8475C21.8126 36.7012 19.1111 36.7012 17.0451 36.4086C16.4268 36.7685 15.8233 37.1381 15.2344 37.5175C15.8727 37.5423 16.4831 37.576 17.0451 37.6111C20.7663 37.8451 24.3306 38.2065 27.9374 38.6863C31.4179 39.1486 34.9425 39.7103 38.2412 40.4037C42.5171 41.2975 46.2779 42.579 50.6668 43.3909C58.1694 44.7792 66.5437 45.1537 74.623 45.2166C79.4037 45.2546 84.6451 45.2458 89.3084 44.8845C90.4045 44.7997 91.7471 44.5919 93.1558 44.3857C92.742 43.9292 92.3121 43.4801 91.866 43.0383C84.0053 43.584 75.4814 43.4567 67.6149 42.9447Z" fill="#DA9859"/>
<path d="M24.4198 34.324C23.8989 34.2699 22.7338 34.1572 21.7698 33.9846C20.545 34.5424 19.3594 35.1335 18.2129 35.7576C20.3699 35.781 22.9994 36.0502 24.2203 36.1775C28.0926 36.5797 31.9195 37.0713 35.5923 37.7047C43.0128 38.9833 50.3687 40.4491 58.0283 41.4584C65.2096 42.4049 72.9955 42.6946 80.5671 42.4942C84.0124 42.4035 87.4079 42.2689 90.8049 42.0333C89.9469 41.2473 89.0391 40.4881 88.0814 39.7557C84.3984 40.076 80.661 40.3013 76.8634 40.3935C71.6924 40.5178 64.8413 40.6509 60.5082 39.1588C57.8669 38.2474 57.459 36.8709 55.3724 35.8629C53.6541 35.0335 51.4105 34.9969 49.0129 35.1315C44.42 35.3773 40.0619 35.2237 35.4911 35.0042C31.8403 34.8214 27.9665 34.6941 24.4198 34.324Z" fill="#DA9859"/>
<path d="M28.0273 31.5709C28.0699 31.5709 28.1139 31.5855 28.1565 31.5899C31.3377 32.0024 34.4383 31.704 37.6738 31.663C41.869 31.6118 45.9028 32.0463 50.0774 31.9834C53.2117 31.9366 54.569 31.2724 57.3746 30.8482C60.2081 30.421 63.156 31.1949 66.0908 31.2154C67.3204 31.2227 69.0549 31.1788 70.7746 31.1861C64.6117 29.3356 57.7811 28.2808 50.5866 28.2253C42.4838 28.1609 34.8183 29.3722 28.0273 31.5709Z" fill="#DA9859"/>
<path d="M16.4461 50.6512C20.1233 50.341 22.3155 49.0069 25.6905 48.3574C33.6362 46.8199 42.2717 46.3518 51.004 46.7482C55.8712 46.9691 60.0693 47.6186 64.7972 48.1804C69.6395 48.7567 74.7753 48.9118 79.8201 48.8401C84.1576 48.7845 88.6507 48.8489 92.9882 48.7904C94.1621 48.7743 95.3154 48.7655 96.4629 48.748C95.7568 47.625 94.9769 46.5498 94.1283 45.5296C89.5956 45.9685 85.0057 46.0489 80.3351 46.0109C71.8919 45.9422 63.5558 46.1162 55.3987 44.9225C46.2086 43.5781 37.9004 41.3985 28.9862 39.8025C24.6238 39.0356 20.1908 38.7442 15.7652 38.9335C15.0829 38.9613 14.0645 38.9862 13.0169 39.0359C11.4486 40.174 9.96689 41.4263 8.58393 42.7823C12.0953 43.1832 15.7535 43.448 19.2032 44.0346C18.2656 44.4252 16.832 44.2203 15.7417 44.3666C14.5429 44.5261 13.3866 44.7558 12.1702 44.8538C10.1643 45.0162 8.07916 45.2648 6.07621 45.5399C4.73137 47.1836 3.57753 48.9739 2.63672 50.8764C7.06963 51.2436 12.2729 51.0008 16.4461 50.6512Z" fill="#DA9859"/>
<path d="M67.069 31.742C65.1614 31.6791 63.339 31.4816 61.471 31.4012C59.1878 31.3017 57.6441 31.625 55.5898 31.9527C49.9082 32.8582 42.677 32.5802 36.7239 32.3915C33.8552 32.3038 29.2844 32.608 25.9725 32.2555C25.0276 32.5978 24.1012 32.9591 23.1934 33.3395L23.5059 33.3936C30.1472 34.4776 38.4275 34.286 45.5164 34.4761C49.0747 34.5727 54.2237 34.0694 57.4372 34.9589C58.9868 35.389 59.81 36.3764 60.8826 36.9835C61.9552 37.5906 63.4475 38.3571 64.9472 38.7858C67.8159 39.6064 71.9715 39.4543 75.2672 39.4792C79.4051 39.5128 83.3729 39.4221 87.3671 39.2422C86.5453 38.6385 85.6913 38.0533 84.805 37.4867C83.2937 37.5277 81.7236 37.4867 81.6032 36.5724C82.1564 36.549 82.7507 36.5885 83.3362 36.5914C82.4871 36.0921 81.6116 35.6123 80.7096 35.152C79.232 35.1768 77.7133 35.152 76.2327 35.2105C74.7154 35.2719 73.1512 35.3904 71.59 35.307C70.1563 35.231 69.2422 34.5507 67.9039 34.2333C69.9759 34.3064 72.2209 33.9758 74.3075 33.7944C75.1226 33.7031 75.928 33.5395 76.714 33.3058C75.5401 32.8182 74.3315 32.3608 73.0881 31.9336C70.9282 31.9834 68.0419 31.7742 67.069 31.742Z" fill="#DA9859"/>
<path d="M96.99 49.6008C95.439 49.6432 93.8836 49.6579 92.3751 49.6974C86.5923 49.8436 81.0383 50.0177 75.2525 49.6198C63.9538 48.8445 53.0424 46.9501 41.5031 47.4255C36.5463 47.6274 32.2587 48.2213 28.0151 49.2629C23.5103 50.3674 18.8793 51.1866 13.6114 51.3811C9.93182 51.5062 6.24795 51.4026 2.58125 51.071H2.55485C2.20268 51.8024 1.88573 52.5544 1.61133 53.3121C7.10954 53.8402 12.8704 53.5652 18.3613 53.6047C31.8229 53.71 44.9059 51.5918 58.4291 51.703C63.2098 51.7395 68.0726 51.4484 72.7887 51.7542C76.0947 51.9677 78.9928 51.7542 82.2679 51.6474C87.5681 51.466 92.7625 51.5889 98.048 51.6401C97.7339 50.9486 97.3813 50.2689 96.99 49.6008Z" fill="#DA9859"/>
<g opacity="0.5">
<path opacity="0.5" d="M98.0203 51.6328C96.3695 48.0882 93.7166 44.7938 90.4693 41.8622C90.0555 43.0325 92.9183 45.2268 93.3497 45.8485C93.8486 46.5653 94.0834 47.3875 94.5148 48.1409C94.9125 48.8387 95.6549 49.5233 95.8076 50.2547C94.8464 50.401 85.5815 50.9467 81.4127 50.7477C77.1324 50.5414 72.0773 49.9987 67.8323 50.6278C62.403 51.4353 56.403 50.6278 50.7727 50.6278C48.9722 50.6278 47.0896 50.4815 45.32 50.774C43.4887 51.0769 41.5752 51.6693 39.7176 51.703C37.0572 51.7512 34.3485 51.9385 31.7131 51.9341C21.7174 51.9224 11.6102 52.6334 1.67909 52.7387C1.60572 52.9259 1.53234 53.1146 1.46484 53.3048C6.96159 53.8329 12.9411 53.4365 18.4305 53.5974C26.8884 53.8344 41.7411 52.1535 56.312 51.6957C68.6378 51.3095 79.7795 51.7249 82.1214 51.6445C84.7803 51.5494 89.9161 51.5552 98.0203 51.6328Z" fill="#895B3D"/>
<path opacity="0.5" d="M8.287 46.2289C10.2157 46.1391 12.1356 45.9118 14.0317 45.5486C15.4316 45.2809 18.7009 45.8719 19.4962 44.453C19.3689 44.2802 19.1977 44.1444 19.0002 44.0594C18.0611 44.4061 16.6803 44.2189 15.6253 44.3608C14.4265 44.5202 13.2775 44.7499 12.0537 44.8479C10.0478 45.0103 7.96271 45.259 5.95829 45.534C5.7059 45.8456 5.45939 46.1616 5.22461 46.4805C6.24883 46.2859 7.3743 46.2698 8.287 46.2289Z" fill="#895B3D"/>
<path opacity="0.5" d="M18.8245 43.979C18.4992 43.8811 18.162 43.8284 17.8223 43.8225C18.1583 43.8766 18.4855 43.9292 18.8245 43.979Z" fill="#895B3D"/>
</g>
<path d="M98.6493 69.2619C96.0799 69.1946 93.5018 69.1068 90.9133 69.1302C83.9874 69.1946 77.1098 69.4228 70.1707 69.4886C66.8676 69.5208 63.6923 69.9567 60.4274 70.0094C57.4516 70.0591 54.2909 69.7797 51.3679 69.5501C44.3099 68.9942 37.3003 69.0454 31.4205 70.9925C28.7969 71.8599 26.9568 72.7596 23.394 72.8503C20.3243 72.9293 16.7601 72.6309 13.7857 72.3105C11.0917 72.0179 8.25818 71.7736 5.47313 71.8117C4.59271 71.8248 3.60371 71.8863 2.63672 71.8907C2.83237 72.273 3.03877 72.6518 3.25594 73.0273C5.90453 73.1385 8.58395 73.235 11.1871 73.5159C15.6038 73.9913 20.1248 73.5861 24.5591 73.6198C28.9524 73.6549 33.6157 73.965 37.9122 73.1312C41.0963 72.5124 44.8234 72.2535 50.8602 72.0077C55.8698 71.797 61.0393 71.7151 66.0445 71.9989C71.9931 72.3324 78.0769 72.056 83.9551 71.7751C86.906 71.6288 89.5531 71.7341 92.4555 71.3275C94.055 71.1022 96.0814 70.7672 97.898 70.9661C98.0491 70.6033 98.5187 69.6247 98.6493 69.2619Z" fill="#DA9859"/>
<path d="M5.66696 60.5446C6.71319 59.8775 2.18343 59.6405 0.067493 59.4109C0.035211 59.7756 0.0127172 60.1408 0 60.5066C0.460752 60.5329 0.871608 60.5665 1.07557 60.5855C2.01909 60.6719 4.96116 60.9937 5.66696 60.5446Z" fill="#DA9859"/>
<path d="M0.92004 58.8857C2.48865 59.0846 3.66107 59.3714 5.37349 59.3684C6.19521 59.3684 8.93771 59.0905 9.25319 59.6361C9.31922 59.7502 7.26639 60.8064 6.91863 60.9279C5.35442 61.4852 2.36979 61.2848 0 61.1297C0 61.6505 0.0141903 62.1684 0.0425593 62.6833C0.796784 62.714 1.56567 62.7667 2.30522 62.7725C4.60312 62.7901 7.15487 62.8033 8.77191 62.0236C10.6589 61.1136 10.4315 60.1584 13.4176 59.5966C14.1894 59.4504 16.2481 59.4152 16.6458 59.0276C17.4411 58.2376 14.8849 58.4556 13.9282 58.4673C10.9465 58.5053 8.01327 58.3708 5.35441 57.8939C4.14384 57.6773 3.00663 57.3497 1.79752 57.1229C1.41307 57.0498 0.931778 56.9986 0.441678 56.943C0.410863 57.1024 0.378582 57.2619 0.350702 57.4228C0.911235 57.5062 1.48937 57.5515 2.01616 57.7432C2.01616 58.5843 1.32063 58.8418 0.444616 58.833C0.611895 58.8491 0.774771 58.8681 0.92004 58.8857Z" fill="#DA9859"/>
<path d="M1.75832 69.2531L1.46484 69.2443C1.65462 69.7475 1.86152 70.2464 2.08554 70.7408L2.27777 70.7482C6.10172 70.8608 9.7804 71.127 13.4297 71.5981C16.5567 72.0033 20.8781 72.4568 24.1019 72.1086C27.4768 71.7444 29.7923 70.2552 32.8063 69.5544C36.2663 68.7469 39.923 68.1603 43.8614 68.0916C47.3493 68.0287 50.3427 68.5714 53.6751 68.9137C57.3655 69.2911 60.2137 69.4989 63.8146 69.2165C67.7002 68.9152 71.7252 68.6957 75.756 68.5641C80.6247 68.4046 85.5874 68.4939 90.5163 68.5319C93.1942 68.5538 96.0922 68.5085 98.8714 68.6299C99.0636 68.0448 99.2309 67.4523 99.3747 66.8569C97.5258 66.8203 95.6564 66.7106 93.9646 66.696C90.6997 66.6667 87.4568 66.794 84.1332 66.7677C76.4882 66.7092 68.8976 66.6653 61.3979 67.0398C55.4565 67.3323 50.6861 66.0231 45.0045 65.7334C41.9685 65.5798 38.1724 65.6047 35.1996 65.8797C31.8921 66.184 28.9941 67.5006 26.4643 68.3505C21.082 70.1615 15.6836 70.1425 9.19199 69.6671C6.72682 69.4886 4.23963 69.3175 1.75832 69.2531Z" fill="#DA9859"/>
<path d="M90.1893 64.8718C84.5194 65.0707 78.8114 64.9157 73.1063 64.983C63.4378 65.0971 54.8699 63.643 45.9087 62.2781C44.139 62.0075 42.5337 61.8261 40.7553 61.6608C39.9072 61.5832 37.0443 61.5057 36.5234 61.2365C35.3202 60.6163 41.8954 60.293 43.0825 60.1876C47.3276 59.8058 50.2036 58.4658 54.3152 57.9802C59.8075 57.3321 65.3835 57.2063 71.0109 57.0483C74.3359 56.9532 77.6404 56.9708 80.9728 56.8099C84.6177 56.6358 88.2333 56.0784 91.8885 56.0185C94.2921 55.9804 96.769 55.9351 99.2341 55.9248C99.1476 55.5986 99.0522 55.2724 98.951 54.9491C97.3471 54.9696 95.6905 54.9198 95.0962 54.9271C90.5723 54.9754 86.0719 54.7809 81.5818 54.6726C72.3623 54.4605 62.8156 54.6872 54.1567 56.0067C48.8654 56.8128 43.5638 57.6364 37.9893 57.926C33.169 58.1762 29.1675 59.0656 26.8887 60.8971C25.4433 62.0572 24.6715 63.1602 22.0082 63.9692C19.5871 64.7006 16.5907 65.2112 13.6325 65.375C9.30085 65.6149 4.84742 65.7042 0.439453 65.7144C0.665952 66.8248 0.973935 67.9171 1.36094 68.9825C2.01392 69.0132 2.68159 69.0337 3.35511 69.041C8.11523 69.0819 13.2481 69.1258 17.9069 68.8581C21.4095 68.6562 23.2702 67.4918 25.9276 66.6799C29.0253 65.7658 32.2065 65.1611 35.4243 64.8747C42.8507 64.2003 48.6453 65.9733 55.6549 66.4678C62.9682 66.9842 69.5949 66.3829 76.8231 66.1284C82.2157 65.9382 87.6185 66.4531 93.014 66.3873C94.8908 66.3654 97.2341 66.2249 99.5173 66.1898C99.5922 65.83 99.6641 65.4686 99.7169 65.1058C99.4092 65.0212 99.1197 64.8809 98.8629 64.6918C98.8629 64.6801 98.8629 64.6699 98.8629 64.6582C95.9399 64.7006 93.0052 64.7738 90.1893 64.8718Z" fill="#DA9859"/>
<path d="M88.9965 52.4242C79.6156 52.351 70.2054 52.0072 60.804 52.3276C49.3424 52.7182 37.8603 53.6544 26.3708 54.1138C20.5894 54.3464 14.4353 53.7466 8.68614 54.3742C6.17695 54.6477 1.28917 54.2542 1.04265 54.2718C1.00743 54.4181 0.602422 56.232 0.567206 56.3754C2.68755 56.6212 4.99571 57.3789 6.82405 57.5194C10.2797 57.7871 13.932 57.4521 17.3201 57.7476C21.9775 58.1528 19.4757 59.2104 16.5864 59.8278C14.7464 60.2184 13.5211 60.508 12.086 61.1444C10.8549 61.6827 9.4609 62.461 7.83066 62.8062C5.65749 63.2699 2.74772 63.4455 0.0976562 63.3914C0.144612 63.8931 0.210653 64.392 0.291358 64.8879C4.01406 64.9259 7.78958 64.8191 11.3758 64.566C17.0369 64.1667 20.5131 63.4133 23.6327 61.3638C24.9754 60.4861 26.3341 59.2148 28.1537 58.5156C30.8551 57.4755 35.2806 57.2575 38.7187 56.9532C41.7297 56.6884 45.2455 56.4778 48.1098 56.0038C51.2925 55.4787 54.3623 54.8745 57.7328 54.5526C61.3513 54.2059 65.3924 54.0304 69.1313 53.9894C72.8701 53.9485 76.5253 54.2718 80.2832 54.2294C86.1527 54.1635 92.6091 53.8592 98.6634 54.0962C98.4624 53.5345 98.2409 52.9757 97.9958 52.4242C95.0846 52.6217 91.9708 52.4476 88.9965 52.4242Z" fill="#DA9859"/>
<path d="M96.2916 58.9574C93.4802 59.1622 90.3004 59.5586 87.4346 59.8614C80.9122 60.5504 74.5761 61.5086 67.8057 61.4223C65.1424 61.3872 62.4792 61.1795 59.8145 61.2234C61.3801 62.0265 66.8211 62.3395 69.1762 62.401C72.3296 62.4829 75.4375 62.4171 78.4778 62.2547C85.5359 61.8787 92.8067 61.7573 99.9909 61.6549C99.9909 61.3799 99.9909 61.1063 99.9762 60.8328C99.8375 60.776 99.6948 60.7296 99.5492 60.6938C98.2198 60.3588 96.679 60.3939 95.3305 60.1482C96.8801 59.6625 98.3812 59.7897 99.9116 59.7722C99.8882 59.5016 99.8588 59.2309 99.8265 58.9618C98.3929 58.9427 97.0224 58.9003 96.2916 58.9574Z" fill="#DA9859"/>
<path d="M96.1867 56.8128C92.9673 56.9196 89.5043 57.0293 86.3465 57.316C82.8073 57.6379 79.5321 58.2479 75.8769 58.2845C72.1777 58.321 68.4858 58.2844 64.766 58.3415C60.6735 58.4029 56.741 58.8828 52.8716 59.4606C51.2862 59.6933 49.7206 60.044 48.1877 60.5095C46.7541 60.9308 44.9815 60.9162 43.7988 61.2248C49.0373 62.2635 55.1489 62.8486 60.8437 63.5142C68.3434 64.392 76.0897 64.7533 83.9195 64.2939C88.4052 64.0292 92.9189 63.9151 97.4486 63.7454C98.2557 63.7146 99.073 63.6869 99.8932 63.6634C99.9343 63.209 99.9617 62.7521 99.9754 62.2927C99.3048 62.3088 98.6548 62.3293 98.1794 62.3366C96.1251 62.3629 94.0517 62.4054 92.0282 62.5078C88.078 62.7082 84.1587 62.8706 80.1909 63.0154C76.816 63.1383 73.9869 63.5479 70.4447 63.3884C67.0052 63.2334 63.6347 62.7726 60.358 62.2459C58.0748 61.8787 55.8914 61.5247 53.5876 61.3038C54.468 60.3061 60.6119 60.4466 62.6501 60.4261C67.8049 60.3661 72.6839 60.1994 77.7889 59.8512C82.8542 59.506 87.6202 58.9237 92.599 58.4395C93.6657 58.3357 96.8411 58.0943 99.6878 58.0621C99.6183 57.6408 99.5367 57.2214 99.4428 56.804C98.1544 56.8128 96.9981 56.7967 96.489 56.8128L96.1867 56.823V56.8128Z" fill="#DA9859"/>
<path opacity="0.5" d="M92.5167 71.3786C94.1176 71.1534 96.1425 70.8198 97.9606 71.0188C98.0178 70.8725 98.1249 70.6428 98.2423 70.3868C97.753 70.2325 97.2427 70.1545 96.7295 70.1557C95.6774 70.1659 94.7823 70.6297 93.7243 70.6311C92.6209 70.6311 91.6245 70.3839 90.5357 70.3927C89.6127 70.4014 73.0741 70.1776 71.1489 70.4219C67.4321 70.893 63.5553 70.8681 59.8032 70.8681C54.2816 70.8681 48.8244 70.3927 43.2778 70.3927C36.9036 70.3927 30.9285 73.1721 24.6628 73.2424C20.786 73.2892 16.9386 72.96 13.1088 72.7684C11.1616 72.6704 9.34207 72.2944 7.38607 72.2929C5.97153 72.2929 4.45134 72.3646 2.92969 72.3968C3.05295 72.625 3.17767 72.8532 3.30826 73.0785C5.94952 73.1912 8.63626 73.2877 11.232 73.5671C15.6488 74.044 20.1697 73.6373 24.6041 73.6724C28.9974 73.7061 33.6607 74.0177 37.9571 73.1824C41.1413 72.5636 44.8684 72.3047 50.9052 72.0589C55.9133 71.8497 61.0828 71.7663 66.088 72.0501C72.0381 72.3836 78.1204 72.1072 83.9986 71.8263C86.9686 71.6858 89.6157 71.7868 92.5167 71.3786Z" fill="#895B3D"/>
<path opacity="0.5" d="M97.4112 71.5791C96.6922 71.6464 95.9732 71.718 95.2512 71.7883C94.2666 72.5533 94.2388 74.3044 93.5374 75.4455C92.5102 77.1117 90.8594 78.4326 89.6019 79.9262C88.5116 81.2238 87.7237 82.7174 86.0802 83.0729C85.3641 83.228 83.9349 83.1329 83.3157 83.522C82.2886 84.1642 83.0941 84.7903 83.056 85.6388C81.7016 86.2312 80.4734 87.0227 79.0266 87.4396C77.0222 88.0247 74.9503 88.4197 72.9781 89.0136C70.9238 89.6324 68.4293 89.8445 66.2517 89.9396C63.452 90.064 60.9589 90.7471 58.1812 91.2723C54.143 92.0374 50.1107 91.9291 46.0212 92.0974C42.1048 92.2598 38.3278 91.8048 34.4804 91.1509C31.484 90.6404 27.2683 90.4195 24.5874 88.8352C23.4766 88.1813 24.1384 87.264 23.2756 86.6101C22.605 86.0996 21.2374 86.4112 20.4171 86.3717C19.5969 86.3322 18.5375 86.2722 17.8243 85.8699C17.4824 85.6783 17.2843 85.2657 16.9439 85.0917C16.5506 84.8956 16.0635 85.0507 15.657 84.7991C14.9996 84.3939 14.7766 83.3801 13.9666 83.0714C13.4721 82.8827 13.1537 82.89 12.9395 83.0232C15.1594 84.6362 17.5116 86.0603 19.9711 87.2801C20.8368 87.3021 21.7011 87.3342 22.5595 87.3825C22.5389 87.8741 22.2132 88.0745 21.7862 88.1461C29.7334 91.7624 39.3388 93.9143 49.6999 93.9976C63.4095 94.1044 75.8644 90.5687 84.9548 84.7567C84.3754 84.812 83.7935 84.8374 83.2115 84.8327C83.2188 84.7168 83.2188 84.6005 83.2115 84.4846C83.9452 84.0457 84.9724 84.0633 85.9834 84.0764C91.128 80.5889 95.1001 76.3466 97.4861 71.6186L97.4112 71.5791Z" fill="#895B3D"/>
<path opacity="0.2" d="M56.885 33.8632C55.3971 31.8459 51.4763 32.0097 49.3516 31.7523C45.4073 31.2724 41.1124 31.1671 37.2018 31.9731C34.1967 32.5876 31.1695 33.1434 28.2934 34.2757C25.9104 35.2134 23.9618 35.6216 21.5436 36.1043C20.6632 36.2799 15.9089 37.4209 16.848 39.1661C17.2882 39.9736 19.7446 40.0248 20.5502 40.55C21.523 41.1849 22.424 42.538 22.1907 43.8268C21.9295 45.2663 20.6118 45.436 19.5069 45.8749C16.3286 47.149 13.5655 46.8155 10.2786 47.1037C8.14947 47.2909 5.22943 48.2213 5.54051 51.1398L5.77969 51.6444C5.91029 52.4403 10.308 51.3255 11.14 51.1471C14.3095 50.4668 17.5553 50.5795 20.7879 50.894C24.0689 51.2129 26.8041 51.0403 29.9604 50.2884C34.8848 49.1181 40.1894 49.1371 44.7309 46.6019C46.3112 45.7242 47.2459 45.3746 47.2254 43.3251C47.2166 42.0699 46.21 40.4344 46.5915 39.2963C47.3985 36.887 51.7698 36.65 53.6627 36.138C54.8777 35.8088 58.1367 35.5616 56.885 33.8632Z" fill="#FFDC78"/>
<path opacity="0.2" d="M68.898 55.5459C68.7395 54.3595 66.5502 53.6442 65.7343 53.4072C64.0454 52.9069 62.1686 53.2185 60.4606 53.4145C58.0996 53.6837 55.6873 53.6749 53.3204 54.1006C50.2801 54.6492 47.4114 54.9418 44.3592 55.2285C41.4069 55.5079 38.5382 56.2905 35.5697 56.4515C30.3753 56.7338 24.9035 57.1829 19.7222 56.6504C15.7002 56.2364 11.6194 55.9438 7.60178 55.7917C6.85195 55.7639 4.84166 55.4435 4.7052 56.7587C4.61129 57.6364 5.87908 58.5741 5.90109 59.6581C5.93043 60.8416 3.93336 65.5096 2.92382 65.1819L2.44692 66.5629C1.59879 68.0155 3.67657 67.5401 4.23416 67.2226C5.01627 66.775 5.80279 65.9368 6.35452 65.1468C7.68395 63.2451 8.43524 60.7669 10.6656 60.0428C12.5908 59.4167 15.1147 59.7239 17.0986 59.9419C20.1668 60.2783 23.3114 59.8336 26.3899 59.6581C31.0282 59.3918 35.6504 58.7321 40.299 58.5536C44.4986 58.3927 48.6278 59.0568 52.8333 58.833C57.363 58.5917 61.8209 58.1338 66.2699 57.1346C67.0946 56.9518 69.0814 56.9137 68.898 55.5459Z" fill="#FFDC78"/>
<path opacity="0.2" d="M68.2593 76.9815C66.5513 75.109 62.7229 74.9334 60.2783 74.9334C57.2599 74.9334 54.5028 75.5274 51.4961 75.5274C42.422 75.5274 33.4182 75.2626 24.3792 75.6459C22.4614 75.7278 21.0146 76.2895 19.0556 76.114C17.5516 75.9809 15.1656 75.6502 13.7335 76.1213L11.6044 76.2398C10.5537 76.1096 9.58968 77.1058 9.73054 78.0201C9.90076 79.1187 11.1627 79.2665 12.137 79.5912C14.3498 80.3227 15.6088 82.0094 17.5927 82.7774C18.7988 83.244 20.5069 83.0261 21.8143 83.3362C23.4768 83.7297 25.8848 84.6762 27.1731 85.7397C28.3191 86.6862 28.4805 87.8302 30.2017 88.2076C31.3962 88.4694 32.6508 88.3158 33.8702 88.4709C35.1908 88.6421 36.4938 89.0005 37.832 89.157C41.1952 89.5505 45.0397 90.1971 47.1395 87.3723C48.039 86.1639 47.6883 85.216 48.2459 83.9843C48.7595 82.8505 50.5335 81.964 51.8043 81.5837C53.4771 81.0834 55.3758 81.0585 57.1279 80.725C59.3465 80.3037 61.5094 79.9292 63.7515 79.6805C65.3554 79.5005 70.4354 79.363 68.2593 76.9815Z" fill="#FFDC78"/>
</svg>
