<svg width="30" height="30" viewBox="0 0 30 30" fill="none" xmlns="http://www.w3.org/2000/svg">
<g clip-path="url(#clip0)">
<path d="M29.1906 13.0486C29.1899 13.0479 29.1892 13.0472 29.1885 13.0465L16.9509 0.809326C16.4293 0.287476 15.7358 0 14.9981 0C14.2604 0 13.5669 0.287247 13.0451 0.809097L0.813843 13.0401C0.809723 13.0442 0.805603 13.0486 0.801483 13.0527C-0.269684 14.13 -0.267852 15.878 0.806748 16.9526C1.2977 17.4438 1.94612 17.7283 2.6394 17.758C2.66756 17.7608 2.69594 17.7621 2.72455 17.7621H3.2123V26.768C3.2123 28.55 4.66226 30 6.44479 30H11.2325C11.7178 30 12.1114 29.6066 12.1114 29.1211V22.0605C12.1114 21.2473 12.7729 20.5859 13.5861 20.5859H16.4101C17.2233 20.5859 17.8848 21.2473 17.8848 22.0605V29.1211C17.8848 29.6066 18.2782 30 18.7637 30H23.5514C25.334 30 26.7839 28.55 26.7839 26.768V17.7621H27.2362C27.9736 17.7621 28.6672 17.4749 29.1892 16.953C30.265 15.8766 30.2654 14.1257 29.1906 13.0486Z" fill="white"/>
</g>
<defs>
<clipPath id="clip0">
<rect width="30" height="30" fill="white"/>
</clipPath>
</defs>
</svg>
