<svg width="84" height="19" viewBox="0 0 84 19" fill="none" xmlns="http://www.w3.org/2000/svg">
<path d="M0.45 1.44C0.45 1.92 0.57 2.49 0.96 2.55C1.14 2.58 1.56 2.61 2.07 2.61V16.02C1.44 16.02 0.96 16.02 0.87 16.08C0.66 16.26 0.33 16.65 0.33 16.92C0.33 17.07 0.66 17.85 0.93 17.85C0.99 17.85 1.41 17.88 1.68 17.88C2.94 17.91 5.16 17.97 5.46 17.91C5.82 17.82 5.91 17.31 5.91 16.77C5.82 16.44 5.58 16.14 5.22 16.02H4.17V15.09L4.2 12.06C4.23 10.14 4.23 7.77 4.23 5.4V2.58C4.44 2.58 4.68 2.55 4.83 2.55H5.49C5.73 2.55 6.03 1.68 6.03 1.56C6.03 1.26 5.7 0.93 5.55 0.81C5.31 0.689999 2.04 0.689999 1.17 0.689999C0.75 0.749999 0.48 0.989999 0.45 1.44ZM10.4388 1.98C10.4088 2.73 10.3788 5.79 10.3788 9.09V13.53C10.3788 14.13 10.3488 14.7 10.3488 15.21C10.3488 16.83 10.4988 17.91 10.9788 17.91C11.5188 17.91 11.9088 17.79 12.4488 17.31C12.4488 14.82 12.3888 13.86 12.3888 10.74V8.19L15.4788 17.1C15.5988 17.46 15.9588 17.55 16.3788 17.55C17.0388 17.55 17.8788 17.07 18.0288 16.59C18.1188 16.29 18.1488 15.33 18.1488 13.95C18.1488 11.46 18.1488 7.86 18.1188 5.07C18.0888 3.33 18.0888 1.77 18.0888 1.17C18.0288 0.839999 17.6988 0.78 17.3988 0.78C16.4688 0.78 16.0488 1.35 16.0488 1.92V4.11C16.0488 4.92 16.1088 6.18 16.1388 7.32C16.1688 8.73 16.1988 10.23 16.1988 11.55C16.1988 11.91 16.2288 12.54 16.2588 13.02C16.2588 13.23 16.2888 13.44 16.2888 13.71C15.0888 10.5 13.9788 6.48 12.8688 2.73C12.6288 1.89 12.5088 1.11 11.9388 0.989999C11.0688 0.989999 10.4688 1.29 10.4388 1.98ZM23.1982 1.98C23.1682 2.73 23.1382 5.79 23.1382 9.09V13.53C23.1382 14.13 23.1082 14.7 23.1082 15.21C23.1082 16.83 23.2582 17.91 23.7382 17.91C24.2782 17.91 24.6682 17.79 25.2082 17.31C25.2082 14.82 25.1482 13.86 25.1482 10.74V8.19L28.2382 17.1C28.3582 17.46 28.7182 17.55 29.1382 17.55C29.7982 17.55 30.6382 17.07 30.7882 16.59C30.8782 16.29 30.9082 15.33 30.9082 13.95C30.9082 11.46 30.9082 7.86 30.8782 5.07C30.8482 3.33 30.8482 1.77 30.8482 1.17C30.7882 0.839999 30.4582 0.78 30.1582 0.78C29.2282 0.78 28.8082 1.35 28.8082 1.92V4.11C28.8082 4.92 28.8682 6.18 28.8982 7.32C28.9282 8.73 28.9582 10.23 28.9582 11.55C28.9582 11.91 28.9882 12.54 29.0182 13.02C29.0182 13.23 29.0482 13.44 29.0482 13.71C27.8482 10.5 26.7382 6.48 25.6282 2.73C25.3882 1.89 25.2682 1.11 24.6982 0.989999C23.8282 0.989999 23.2282 1.29 23.1982 1.98ZM40.7576 3.66C40.8776 4.32 40.9976 4.8 41.0876 5.16C41.2376 5.49 41.4476 5.76 41.8376 5.76C42.1976 5.76 42.8576 5.64 42.9776 5.22C42.9176 3.63 42.8276 2.49 41.7776 1.41C41.5376 1.14 40.4576 0.66 39.6776 0.66C38.0876 0.66 36.7076 1.74 36.2876 2.91C35.8376 4.08 35.8376 5.7 35.8376 5.97C35.8376 6.57 35.8976 9.51 35.9576 11.55C35.9876 12.63 35.9876 13.5 35.9876 13.77C35.9876 16.02 37.1876 18.03 39.6776 18.03C42.9176 18.03 43.3076 15.06 43.3076 12.6C43.3076 12.27 43.2776 11.94 43.2776 11.61V11.31C43.5476 11.31 43.7576 11.28 44.0876 11.22C44.3876 11.16 44.7476 11.01 44.9276 10.74C44.9876 10.62 45.0176 10.17 45.0176 9.96C45.0176 9.87 44.9576 9.69 44.7776 9.6C44.3876 9.42 43.9976 9.42 43.6076 9.42H42.4676C42.0776 9.42 41.6876 9.45 41.1776 9.45C40.6376 9.45 40.1876 9.54 39.9476 9.69C39.7676 9.84 39.6776 10.26 39.6776 10.35C39.6776 10.86 39.8876 11.1 40.3076 11.25C40.6376 11.31 40.9376 11.34 41.2676 11.37V12.36C41.2676 12.69 41.2976 13.08 41.2976 13.5C41.2976 14.91 40.8176 16.2 39.6176 16.2C38.5976 16.2 38.1776 14.58 38.1776 13.53V10.32C38.1476 9.12 38.1176 7.89 38.1176 6.9C38.1176 5.91 38.1176 5.19 38.1476 4.92C38.2076 3.87 38.5676 2.43 39.6176 2.43C40.3376 2.43 40.6076 3.03 40.7576 3.66ZM56.6822 16.53C56.1122 12.21 55.4222 7.44 54.8222 3.09C54.6722 2.1 54.4622 0.689999 53.2922 0.689999C51.7622 0.689999 51.5222 1.92 51.3122 3.03C50.5322 6.78 49.9322 10.41 49.3022 13.92L48.8522 16.56C48.7922 16.74 48.7622 17.01 48.7622 17.13C48.7622 17.67 49.0322 17.85 49.3322 17.85C49.6022 17.85 50.5622 17.52 50.7422 17.37C50.9822 16.8 51.2822 14.64 51.4922 13.23L51.6422 12.21C52.3622 12.21 53.2922 12.18 54.0422 12.18L54.7022 17.28C54.7022 17.58 54.8522 17.91 55.3322 17.91C56.1722 17.88 56.7122 17.64 56.7122 16.86C56.7122 16.74 56.7122 16.65 56.6822 16.53ZM52.5722 6.6L53.0522 3.87L53.8322 10.44C53.2022 10.44 52.5122 10.47 51.9422 10.47L52.5722 6.6ZM61.4177 1.98C61.3877 2.73 61.3577 5.79 61.3577 9.09V13.53C61.3577 14.13 61.3277 14.7 61.3277 15.21C61.3277 16.83 61.4777 17.91 61.9577 17.91C62.4977 17.91 62.8877 17.79 63.4277 17.31C63.4277 14.82 63.3677 13.86 63.3677 10.74V8.19L66.4577 17.1C66.5777 17.46 66.9377 17.55 67.3577 17.55C68.0177 17.55 68.8577 17.07 69.0077 16.59C69.0977 16.29 69.1277 15.33 69.1277 13.95C69.1277 11.46 69.1277 7.86 69.0977 5.07C69.0677 3.33 69.0677 1.77 69.0677 1.17C69.0077 0.839999 68.6777 0.78 68.3777 0.78C67.4477 0.78 67.0277 1.35 67.0277 1.92V4.11C67.0277 4.92 67.0877 6.18 67.1177 7.32C67.1477 8.73 67.1777 10.23 67.1777 11.55C67.1777 11.91 67.2077 12.54 67.2377 13.02C67.2377 13.23 67.2677 13.44 67.2677 13.71C66.0677 10.5 64.9577 6.48 63.8477 2.73C63.6077 1.89 63.4877 1.11 62.9177 0.989999C62.0477 0.989999 61.4477 1.29 61.4177 1.98ZM78.9771 3.66C79.0971 4.32 79.2171 4.8 79.3071 5.16C79.4571 5.49 79.6671 5.76 80.0571 5.76C80.4171 5.76 81.0771 5.64 81.1971 5.22C81.1371 3.63 81.0471 2.49 79.9971 1.41C79.7571 1.14 78.6771 0.66 77.8971 0.66C76.3071 0.66 74.9271 1.74 74.5071 2.91C74.0571 4.08 74.0571 5.7 74.0571 5.97C74.0571 6.57 74.1171 9.51 74.1771 11.55C74.2071 12.63 74.2071 13.5 74.2071 13.77C74.2071 16.02 75.4071 18.03 77.8971 18.03C81.1371 18.03 81.5271 15.06 81.5271 12.6C81.5271 12.27 81.4971 11.94 81.4971 11.61V11.31C81.7671 11.31 81.9771 11.28 82.3071 11.22C82.6071 11.16 82.9671 11.01 83.1471 10.74C83.2071 10.62 83.2371 10.17 83.2371 9.96C83.2371 9.87 83.1771 9.69 82.9971 9.6C82.6071 9.42 82.2171 9.42 81.8271 9.42H80.6871C80.2971 9.42 79.9071 9.45 79.3971 9.45C78.8571 9.45 78.4071 9.54 78.1671 9.69C77.9871 9.84 77.8971 10.26 77.8971 10.35C77.8971 10.86 78.1071 11.1 78.5271 11.25C78.8571 11.31 79.1571 11.34 79.4871 11.37V12.36C79.4871 12.69 79.5171 13.08 79.5171 13.5C79.5171 14.91 79.0371 16.2 77.8371 16.2C76.8171 16.2 76.3971 14.58 76.3971 13.53V10.32C76.3671 9.12 76.3371 7.89 76.3371 6.9C76.3371 5.91 76.3371 5.19 76.3671 4.92C76.4271 3.87 76.7871 2.43 77.8371 2.43C78.5571 2.43 78.8271 3.03 78.9771 3.66Z" fill="white"/>
</svg>
