<svg width="1194" height="834" viewBox="0 0 1194 834" fill="none" xmlns="http://www.w3.org/2000/svg">
<g clip-path="url(#clip0)">
<path d="M1193.85 -271.846H0.178833V921.826H1193.85V-271.846Z" fill="#A65911"/>
<path d="M1193.85 318.693C1187.23 318.425 1180.57 318.514 1174.48 318.186C1154.97 317.171 1138.88 311.71 1121.63 303.414C1088.81 287.688 1058.34 294.969 1023.31 291.03C1011.19 289.657 1001.85 282.883 989.942 279.809C970.097 274.706 947.776 279.809 927.274 277.929C885.018 273.722 837.749 256.533 793.941 270.32C776.961 272.2 774.454 281.749 762.189 288.225C738.316 300.937 700.656 288.851 674.693 297.386C644.105 307.413 619.516 310.069 585.586 310.069C556.281 310.069 530.498 308.666 506.356 323.229C473.261 343.164 430.528 341.612 395.105 357.965C427.931 357.398 461.324 362.113 493.315 357.965C514.204 355.22 533.87 347.879 555.356 348.416C569.411 348.744 581.527 352.952 595.045 354.384C609.701 356.219 624.48 356.888 639.241 356.383C656.37 355.548 680.005 348.654 696.985 353.101C711.578 356.891 709.31 367.455 722.41 373.483C735.511 379.511 761.98 377.661 776.901 378.616C795.612 379.809 813.726 382.376 832.258 383.39C848.91 384.315 863.711 378.824 880.005 378.616C896.298 378.407 899.402 388.075 915.099 389.776C937.266 391.732 959.6 389.173 980.751 382.256C997.283 376.676 1010.35 363.844 1026.53 359.427C1041.81 355.22 1059.62 354.712 1075.5 353.22C1105.34 350.415 1134.2 346.357 1163.83 341.88C1172.51 340.597 1183.38 340.209 1193.88 338.628L1193.85 318.693Z" fill="#AB5D13"/>
<path d="M166.666 381.69C140.913 377.243 146.821 371.633 120.799 370.797C74.7833 369.245 35.989 356.354 0.178833 370.2V421.379C7.96754 421.111 16.0248 420.066 20.6205 420.066C56.9678 420.066 192.569 415.291 229.095 415.291C239.391 410.785 265.144 410.845 274.276 404.25C266.815 396.402 239.421 393.835 229.095 390.254C218.77 386.673 177.26 383.45 166.666 381.69Z" fill="#AB5D13"/>
<path d="M545.836 431.227H544.225C520.351 432.928 493.643 428.66 469.441 428.392C447.179 428.153 432.407 441.373 412.175 445.611C393.166 449.579 369.232 451.072 350.074 451.937C334.079 452.653 304.983 450.117 294.568 462.74C318.442 477.959 356.102 477.661 383.139 484.136C396.388 487.3 404.774 496.073 416.89 498.132C433.959 501.116 455.684 494.76 473.738 496.55C512.354 500.34 552.043 501.116 590.121 508.04C621.336 513.739 650.103 506.577 681.199 500.102C709.906 494.133 740.226 500.967 769.142 492.969C799.551 484.554 824.588 477.034 856.251 474.169C886.779 471.364 917.695 467.902 947.089 463.187C965.71 460.203 988.867 469.961 1006.98 463.187C994.836 445.044 946.94 440.955 926.647 435.643C897.76 428.093 869.411 426.452 838.405 426.452C760.817 426.452 684.242 429.645 606.385 429.645C586.182 429.645 564.398 425.288 545.836 431.227Z" fill="#AB5D13"/>
<path d="M494.896 631.973C469.859 631.973 445.538 636.747 420.501 635.166C400.835 633.912 382.184 625.199 362.876 620.812C313.1 609.532 263.95 618.574 215.129 626.78C181.677 632.45 146.493 629.018 112.921 633.554C95.7919 635.852 80.0952 643.462 63.6225 649.49C43.6285 656.801 20.5309 661.039 0.178833 666.679V708.159C9.579 708.159 20.5309 708.159 23.7837 708.487C51.3575 711.471 77.3199 721.677 104.894 724.333C133.691 727.078 162.906 726.422 190.898 732.211C216.976 738.223 243.87 739.867 270.486 737.075C322.918 731.823 375.111 719.708 426.469 709.621C462.279 702.608 494.359 689.836 531.572 686.135C562.846 683.002 632.139 693.238 653.923 665.724C633.84 657.816 611.518 659.755 590.42 651.042C560.261 638.081 527.72 631.585 494.896 631.973V631.973Z" fill="#AB5D13"/>
<path d="M1193.85 657.249C1143.78 655.667 1091.34 663.217 1042.37 660.651C1013.88 659.218 989.345 664.261 962.816 670.289C933.989 676.855 903.878 669.364 875.29 678.168C860.369 682.763 854.4 693.088 841.867 700.131C829.93 706.846 793.225 704.518 781.825 709.889C765.77 717.41 726.349 734.449 741.957 735.106C758.996 735.822 843.419 720.334 860.548 721.199C890.181 722.662 916.83 734.031 945.299 736.777C974.603 739.582 1004.18 740.507 1032.88 741.88C1054.76 742.895 1075.05 752.086 1096.51 754.682C1119.4 757.457 1142.4 757.278 1164.93 760.65C1174.48 762.404 1184.15 763.402 1193.85 763.634V657.249Z" fill="#AB5D13"/>
<path d="M531.363 854.682C524.082 849.549 501.521 853.16 492.837 852.205C475.38 850.206 458.042 844.655 440.674 840.268C418.054 834.658 394.449 831.644 372.545 823.497C354.222 816.663 337.391 807.412 317.726 805.592C262.011 800.4 201.88 828.272 146.285 811.56C118.382 803.205 92.5693 795.894 62.2799 797.445C46.1653 798.251 17.9947 797.774 0.0597534 804.757V887.687C34.8851 894.222 77.6484 861.486 111.22 864.41C141.062 866.977 168.934 878.705 200.298 875.661C213.578 874.377 227.156 866.708 240.137 867.633C253.805 868.499 264.01 878.824 278.693 878.854C297.135 878.854 316.681 873.244 335.571 872.408C360.31 871.334 385.317 872.408 410.176 872.408C428.409 872.408 535.511 883.539 535.989 855.1C534.646 854.861 532.736 855.547 531.363 854.682Z" fill="#AB5D13"/>
<path d="M1193.85 800.31C1181.6 800.711 1169.39 802.078 1157.35 804.398C1131.57 808.815 1108.98 817.588 1080.69 812.396C1060.16 808.666 1042.49 800.638 1021.34 798.908C996.149 796.848 970.604 801.444 945.627 805.592C913.457 810.904 879.646 810.158 848.223 816.455C839.091 818.275 815.875 819.618 817.516 831.375C819.963 848.863 856.758 848.087 867.68 848.624C896.656 849.997 920.828 851.608 948.491 860.889C958.25 864.172 975.349 865.007 983.227 872.109C991.106 879.212 982.213 880.167 986.928 886.762C995.88 899.146 1027.27 897.445 1040.64 897.923C1069.53 898.907 1096.72 893.476 1125.04 889.597C1142.55 887.209 1160.31 879.6 1177.59 878.764C1183 878.869 1188.41 879.348 1193.76 880.197L1193.85 800.31Z" fill="#AB5D13"/>
<path d="M1193.85 -21.1751C1180.21 -21.9211 1166.84 -24.7859 1152.82 -23.3833C1134.26 -21.5331 1116.05 -15.8632 1097.61 -13.8638C1062.34 -10.0142 1024.92 -13.8638 989.643 -8.82055C937.54 -1.50931 884.451 -0.0470577 834.078 5.59304C819.396 7.26418 765.86 -1.03185 775.648 26.2436C782.661 45.7899 808.086 50.4453 822.947 62.7998C867.113 62.7998 911.547 64.4112 954.699 62.7998C1015.16 60.4721 1074.96 62.7998 1135.72 62.7998C1149.68 62.7998 1177.5 68.4697 1193.85 63.516V-21.1751Z" fill="#AB5D13"/>
<path d="M270.575 0.669468C257.714 0.0129484 247.179 -3.74713 234.765 -5.86589C201.76 -11.5358 168.487 -18.3994 134.467 -18.3696C106.684 -18.3696 87.2273 -12.8489 64.9952 -28.665C42.7631 -44.4812 22.2916 -39.0798 0.178833 -33.8873V48.1478C16.2636 51.311 36.1979 49.4608 46.4038 45.1636C57.5348 40.5381 64.3088 32.3316 76.7529 29.9443C89.1969 27.5569 105.162 29.4071 117.636 29.9443C140.137 30.929 160.578 35.9126 182.691 29.6458C164.786 12.069 223.395 14.9637 233.422 14.5161C253.983 13.6208 297.97 17.7987 313.518 2.69871C302.058 -2.64297 283.974 1.35583 270.575 0.669468Z" fill="#AB5D13"/>
<path d="M540.315 4.36982C514.729 5.61791 489.467 10.646 465.353 19.2907C437.093 28.8998 415.636 30.7798 386.123 31.2274C359.909 31.3003 334.031 37.138 310.325 48.3268C288.242 58.9803 262.339 73.9311 237.182 71.5735L265.204 73.3342C277.141 67.157 292.569 66.3512 305.461 62.7404C317.397 59.3981 328.319 52.7434 340.465 48.2671C371.62 36.8377 396.359 45.0143 428.17 43.4924C455.595 42.2092 479.916 30.8395 505.281 24.6026C530.647 18.3656 559.623 17.2316 587.615 18.9326C612.592 20.4546 642.285 26.3931 664.636 38.2403C685.526 49.3414 712.711 65.2769 737.719 62.8896C672.336 24.4533 618.352 0.460546 540.315 4.36982Z" fill="#924B0F"/>
<path d="M1193.85 -35.7077C1168.81 -36.036 1145.3 -36.7224 1120.35 -31.9775C1092.69 -26.7253 1065.53 -21.1748 1038.02 -15.8928C1010.5 -10.6108 979.736 -13.5353 952.132 -9.23805C924.529 -4.94083 899.641 1.38562 869.769 1.38562C840.989 1.88413 812.203 0.888059 783.526 -1.59856C768.605 -3.18017 704.654 -11.8045 717.337 15.5605C722.142 25.9454 737.988 27.9448 747.179 32.6598C760.488 39.5234 762.756 50.177 772.992 58.0552C791.942 72.6478 837.48 60.2336 860.548 59.3981C887.644 58.4431 914.621 66.4706 941.449 65.0382C917.576 65.6649 887.197 50.1173 864.994 43.194C854.341 39.8815 799.163 31.5258 805.311 19.4996C810.115 10.2188 824.499 19.2609 850.461 14.1281C868.705 9.98986 887.35 7.8782 906.057 7.83146C944.851 7.83146 994.657 15.9186 1032.76 10.3382C1080.12 3.38502 1145.33 -19.8916 1193.91 -0.822663L1193.85 -35.7077Z" fill="#9B530E"/>
<path d="M946.343 64.4116C944.702 64.4116 943.06 64.6802 941.389 64.7697C943.046 64.7428 944.7 64.6232 946.343 64.4116V64.4116Z" fill="#9B530E"/>
<path d="M586.302 208.607C605.191 200.848 625.842 189.06 646.851 188.076C670.306 187.001 695.105 188.076 717.755 189.299C742.016 190.463 835.391 174.826 845.776 161.725C830.019 158.95 757.385 166.351 739.36 164.56C687.674 159.398 643.866 157.1 591.524 154.533C568.247 153.37 455.714 164.262 385.078 132.421C376.991 128.78 360.041 124.572 354.341 125.885C351.894 134.838 430.856 154.802 440.286 157.935C462.518 165.277 490.778 162.859 513.965 161.755C538.167 160.591 565.054 157.727 587.644 164.202C622.888 174.289 604.893 190.254 586.302 208.607Z" fill="#8F450D"/>
<path d="M1193.85 72.0509C1173.77 76.5869 1150.85 82.7641 1131.69 81.0035C1103.64 78.258 1083.44 90.4036 1057.95 99.5651C1034.08 108.16 1008.98 110.219 984.182 114.128C950.7 119.41 926.259 124.931 890.897 118.365C855.534 111.8 827.901 109.413 793.076 112.755C765.979 115.262 750.461 82.7343 726.857 93.0297C679.796 113.621 652.61 131.257 603.7 123.946C580.662 120.514 559.593 109.025 536.555 112.546C485.824 120.454 466.875 105.951 442.375 112.755C423.007 118.127 376.484 99.5054 370.516 109.473C365.383 118.127 414.204 137.106 482.96 138.359C508.325 144.656 527.722 144.179 553.774 145.85C595.075 148.476 714.263 148.476 738.793 148.476C779.318 148.476 858.16 140.418 898.566 144.387C958.578 150.356 1026.5 150.356 1086.57 141.403C1124.53 135.823 1156.85 121.141 1194 115.65L1193.85 72.0509Z" fill="#A05410"/>
<path d="M465.293 183.749C456.908 185.092 443.628 193 435.451 187.569C429.035 183.331 433.87 175.632 425.186 172.469C419.575 170.529 411.429 172.469 405.46 171.573C398.034 170.207 391.057 167.041 385.138 162.352C373.201 153.818 363.682 150.863 349.089 154.444C338.316 157.1 336.317 156.802 330.289 147.491C324.798 139.016 315.607 129.079 304.744 127.348C294.896 125.766 283.616 134.003 273.38 134.719C259.982 135.674 247.209 130.81 233.93 130.213C225.932 129.825 208.504 133.525 207.072 122.663C206.236 116.336 216.979 108.936 210.862 103.862C205.341 99.2966 184.929 104.041 178.484 104.608C168.934 105.504 160.966 105.295 154.61 112.845C148.254 120.395 144.434 125.289 133.721 126.482C125.007 127.437 116.622 124.304 108.176 124.185C98.1196 124.006 91.2262 132.719 81.1098 132.272C70.9934 131.824 59.4148 127.497 49.567 125.707C38.2271 123.618 28.26 117.828 16.5321 120.574C10.7846 121.95 5.27333 124.173 0.178833 127.169L0.178833 176.736C1.67092 178.318 1.49187 180.407 1.90966 185.689C3.16301 201.356 12.1155 217.56 31.2143 212.009C46.8812 207.413 68.815 171.514 87.5855 186.017C91.4649 189.001 93.3151 195.238 98.0599 197.357C102.805 199.476 107.669 196.641 112.175 197.118C122.411 198.162 124.112 209.443 134.855 209.92C145.598 210.398 155.147 203.653 164.935 207.682C179.677 213.65 190.032 218.962 207.012 218.932C219.307 218.932 231.393 217.56 243.658 217.44C250.76 217.44 262.787 220.424 269.441 218.216C276.096 216.008 272.813 215.232 274.574 210.129C277.021 203.206 281.915 199.177 288.152 195.417C307.848 183.48 330.408 186.644 352.163 189.807C382.422 194.223 412.563 200.222 442.942 203.743C452.7 204.847 476.573 206.339 479.587 191.806C481.288 183.57 471.948 182.675 465.293 183.749Z" fill="#AB5D13"/>
<path d="M638.196 465.246C630.766 464.56 621.276 467.902 621.992 474.468C623.216 486.225 655.863 491.925 653.714 477.72C652.431 471.215 647.298 466.052 638.196 465.246Z" fill="#924B0F"/>
<path d="M635.809 462.859C640.469 462.401 645.159 463.358 649.268 465.605C645.239 459.994 634.347 459.457 627.125 460.144C622.977 460.531 613.01 462.889 610.653 467.127C607.46 472.856 614.801 478.019 617.337 480.615C621.423 484.898 626.977 487.477 632.885 487.837C624.529 485.748 617.397 478.138 620.112 471.036C621.038 468.231 624.35 463.635 635.809 462.859Z" fill="#86420D"/>
<path d="M656.967 487.837C666.785 487.837 671.142 483.361 681.706 478.705C692.27 474.05 716.203 471.215 716.382 465.247C716.561 459.278 671.62 460.83 659.235 456.025C649.298 452.146 630.736 450.475 617.874 452.504C587.883 457.249 563.145 452.176 559.504 460.86C556.52 468.171 590.808 480.734 611.906 482.555C600.835 474.318 604.386 460.86 618.591 458.681C628.677 457.1 641.241 457.189 650.462 461.337C667.054 468.738 664.607 481.212 656.967 487.837Z" fill="#924B0F"/>
<path d="M637.898 477.78L652.968 482.226L639.898 477.482C639.334 475.342 638.905 473.169 638.615 470.976C638.615 469.603 644.583 467.126 644.583 467.126H643.479C643.479 467.126 637.51 469.603 637.779 470.976C638.048 472.349 638.495 476.944 638.495 476.944L637.361 475.512L626.379 474.169L621.873 474.348L636.794 475.9L637.481 477.153L629.572 479.57L637.898 477.78Z" fill="#7C3A09"/>
<path d="M643.27 477.004C644.966 477.062 646.662 476.891 648.313 476.497C649.798 476.356 651.249 475.973 652.61 475.363C651.029 475.389 649.457 475.6 647.925 475.99C646.402 476.429 644.845 476.739 643.27 476.915V477.004Z" fill="#7C3A09"/>
<path d="M640.286 482.435C639.39 483.298 638.83 484.451 638.704 485.688C639.57 484.804 640.126 483.663 640.286 482.435V482.435Z" fill="#7C3A09"/>
<path d="M627.006 471.215C626.286 470.203 625.227 469.483 624.022 469.185C624.768 469.991 625.484 470.14 627.006 471.215Z" fill="#7C3A09"/>
<path d="M649.566 484.345C647.886 482.838 645.996 481.582 643.956 480.615C645.715 482.018 647.592 483.266 649.566 484.345V484.345Z" fill="#7C3A09"/>
<path d="M634.705 471.215C633.565 469.413 632.256 467.724 630.796 466.171C630.945 467.514 634.735 471.215 634.705 471.215Z" fill="#7C3A09"/>
<path d="M566.367 439.941C536.705 436.3 462.279 437.523 462.279 465.127C462.279 478.974 489.734 482.286 522.977 482.256C575.738 482.256 595.971 497.177 630.796 500.907C655.565 503.474 676.484 497.625 700.566 492.134C712.503 489.448 824.409 477.034 824.409 460.74C824.409 437.792 718.143 439.851 658.877 446.566C640.823 448.595 593.464 443.253 566.367 439.941ZM700.656 447.52C757.952 440.806 796.657 447.162 799.313 459.457C801.968 471.752 710.921 484.465 698.955 487.18C675.499 492.552 651.208 498.072 627.931 494.79H627.752C623.216 494.372 561.294 480.555 537.54 479.242C519.068 478.228 487.734 475.751 485.078 464.56C482.423 453.369 515.428 447.908 527.096 446.834C546.591 444.491 566.26 443.952 585.854 445.223C608.952 447.043 661.772 452.056 700.656 447.52Z" fill="#9B530E"/>
<path d="M625.484 435.136C600.984 430.003 519.009 414.724 459.444 430.362C444.762 434.241 372.336 453.31 372.336 472.349C373.828 492.462 418.591 491.985 456.281 493.238C575.439 496.879 615.04 512.904 661.473 513.262C716.293 513.68 740.584 495.357 768.426 490.373C857.474 474.229 944.493 488.165 944.493 456.891C944.493 432.629 896.955 449.908 818.381 427.467C784.571 417.798 744.642 425.288 707.161 428.959C697.463 429.824 645.09 439.225 625.484 435.136ZM670.456 437.255C673.619 436.957 783.019 426.482 817.039 432.301C833.213 435.077 903.968 446.327 903.968 460.74C903.968 481.391 850.969 475.303 819.396 478.138C808.176 479.153 761.085 488.404 745.418 492.612C717.457 500.102 691.017 507.174 661.235 508.129C636.048 508.935 533.362 493.805 533.362 493.805C533.362 493.805 405.043 486.404 403.73 469.932C402.417 453.459 455.237 412.606 611.011 436.3C630.71 439.072 650.677 439.393 670.456 437.255V437.255Z" fill="#924B0F"/>
<path d="M1193.85 469.186C1170.78 466.679 1129.96 486.882 1047.63 472.528C998.924 464.023 960.01 469.812 912.323 484.793C885.078 493.358 825.991 486.076 790.599 493.417C730.706 505.861 741.718 517.291 672.186 523.08C609.787 528.302 503.819 501.534 372.396 501.534C294.449 501.534 288.063 483.808 232.497 476.706C202.655 472.886 130.617 481.331 81.4381 478.675C25.7235 475.691 6.83362 469.723 0.238586 465.814V474.587C65.8905 498.461 179.677 474.736 232.348 486.792C273.082 496.103 323.276 513.173 372.396 513.173C495.881 513.173 594.747 537.046 670.426 532.54C733.093 528.929 747.209 509.95 792.568 501.534C824.29 495.566 888.42 497.028 917.695 487.837C963.502 473.453 997.909 476.646 1046.58 482.555C1117.37 491.149 1171.29 471.155 1193.91 472.826L1193.85 469.186Z" fill="#95470E"/>
<path d="M1193.85 306.786C1095.07 335.076 934.048 270.976 777.289 271.424C685.615 271.424 666.874 291.955 560.399 274.826C483.317 262.441 448.015 285.658 395.463 289.568C369.083 291.507 283.198 288.732 196.299 284.644C144.673 282.197 44.9415 297.923 0.178833 306.309V316.186C41.1815 307.234 142.435 287.926 191.375 289.776C257.922 292.343 369.471 300.907 397.045 299.535C473.917 295.745 496.418 276.288 554.46 284.107C644.732 296.252 718.053 278.825 783.406 279.929C857.205 281.182 906.176 294.163 994.03 306.637C1089.88 320.275 1130.68 325.975 1193.97 311.83L1193.85 306.786Z" fill="#924B0F"/>
<path d="M1193.85 581.629C1176.15 583.211 1157.12 584.852 1153.59 584.972C1133.99 585.598 1107.79 577.511 1079.56 577.75C1049.18 578.019 1021.34 586.374 978.393 590.134C935.451 593.894 866.725 564.351 832.705 572.229C811.458 577.094 786.898 589.239 721.753 584.166C687.764 581.45 623.067 577.78 628.08 562.262C630.796 553.817 699.7 560.651 716.292 558.413C788.33 548.744 867.74 520.872 900.536 513.65C952.162 502.34 989.852 509.651 1002.51 510.308C1063.8 513.531 1075.41 494.044 1114.38 498.132C1144.58 501.265 1178.27 500.907 1193.85 499.027V493.059C1159.83 499.684 1139.33 492.164 1110.05 492.015C1057 491.776 1059.68 507.681 1001.37 500.191C977.498 497.207 944.373 492.015 898.297 503.653C865.472 511.949 758.041 551.012 716.263 552.116C685.376 552.922 604.087 540.328 603.669 561.068C603.252 581.808 673.29 585.3 727.692 590.522C782.094 595.745 809.16 583.45 824.827 579.928C870.037 569.812 908.235 592.343 959.324 595.357C1010.41 598.371 1064.1 581.45 1084.66 583.897C1090.21 584.554 1140.37 591.209 1161.14 590.552L1193.82 589.597L1193.85 581.629Z" fill="#924B0F"/>
<path d="M214.204 446.506C227.365 446.088 264.16 444.566 277.827 445.103C323.933 446.983 374.276 448.088 440.495 427.676C440.495 427.676 358.669 443.074 294.27 438.538C280.513 437.553 139.69 433.793 135.512 451.519C131.155 469.991 254.073 462.62 296.419 475.094C339.63 487.837 365.801 487.837 365.801 487.837C344.703 484.853 321.038 476.557 311.787 473.304C268.487 457.786 212.772 459.696 192.211 457.756C161.743 454.772 163.712 453.28 162.548 451.519C162.011 450.594 193.226 447.133 214.204 446.506Z" fill="#924B0F"/>
<path d="M1193.85 554.384C1173.95 555.727 1152.73 557.726 1130.8 559.815C1058.76 566.649 973.409 573.602 912.622 558.711C872.485 548.893 823.484 563.366 785.108 570.319C750.402 576.586 697.85 578.705 699.104 569.454C699.969 563.038 799.939 564.023 890.091 530.182C917.934 519.708 948.611 521.916 981.079 524.214C1009.4 526.243 1038.67 528.332 1067.44 521.856C1088.33 517.201 1128.94 519.141 1164.87 520.872C1174.9 521.319 1184.66 521.797 1193.79 522.125V517.082C1184.84 516.753 1175.11 516.306 1165.23 515.828C1127.04 514.008 1087.64 512.128 1065.89 516.992C1038.14 523.229 1009.4 521.2 981.616 519.2C948.313 516.843 916.889 514.605 887.614 525.586C793.463 560.919 691.852 558.412 681.855 567.365C664.965 582.972 752.61 585.777 791.076 574.079C820.59 565.127 866.128 552.832 904.773 562.292C966.725 577.481 1058.79 571.573 1131.57 564.679C1153.3 562.62 1174.27 560.621 1193.94 559.308L1193.85 554.384Z" fill="#9B530E"/>
<path d="M1193.85 540.597C1180.83 539.814 1167.77 539.923 1154.76 540.925C1127.18 543.641 1096.92 548.654 1087.2 549.878C1072.69 551.519 1028.62 549.878 1021.28 549.878C1012.02 550.093 1002.78 550.94 993.642 552.414C981.168 554.115 969.381 555.757 957.832 554.294C951.467 553.27 945.205 551.682 939.121 549.549C932.157 547.096 924.956 545.376 917.635 544.417C911.727 543.986 905.8 543.866 899.879 544.059C894.12 544.059 885.406 544.268 884.54 543.044C884.54 542.567 884.928 542.029 885.674 541.462C895.313 534.241 948.193 531.734 983.138 534.867C1024.2 538.508 1041.75 539.911 1064.28 537.851C1071.74 537.135 1109.91 532.51 1123.57 531.525C1146.95 529.747 1170.43 529.876 1193.79 531.913V528.929C1166.9 526.461 1139.89 525.555 1112.89 526.213C1098.57 526.661 1024.32 535.166 983.555 531.525C951.296 528.541 894.716 530.152 882.989 538.985C882.306 539.392 881.727 539.951 881.297 540.619C880.867 541.287 880.599 542.046 880.512 542.835C880.523 543.311 880.642 543.778 880.859 544.202C881.076 544.626 881.386 544.995 881.765 545.282C884.272 547.341 890.031 547.371 899.939 547.222C905.459 547.222 911.696 547.073 917.187 547.58C924.185 548.511 931.066 550.171 937.718 552.534C944.07 554.727 950.6 556.365 957.235 557.428C969.351 558.98 982.004 557.249 994.239 555.548C1003.13 554.122 1012.1 553.294 1021.1 553.071C1028.35 553.071 1035.78 553.339 1042.97 553.608C1057.84 554.516 1072.75 554.307 1087.58 552.981C1097.37 551.877 1142.22 545.073 1155.03 544.029C1167.9 543.372 1180.8 543.372 1193.67 544.029L1193.85 540.597Z" fill="#9B530E"/>
<path d="M486.183 842.596C444.404 841.492 336.974 802.459 304.148 794.163C258.072 782.524 225.007 787.597 201.044 790.701C142.763 798.161 145.449 782.256 92.3903 782.524C66.7264 782.524 32.3188 790.969 0.149353 788.731V800.191C25.5746 797.206 63.8914 791.059 88.0633 788.522C127.096 784.553 138.675 803.951 200.119 800.728C212.742 800.041 250.433 792.76 302.059 804.07C334.885 811.262 414.264 839.134 486.302 848.833C502.954 851.041 571.799 844.237 574.514 852.682C579.498 868.2 514.831 871.871 480.871 874.586C415.696 879.779 391.137 867.663 369.889 862.65C335.87 854.861 267.174 884.345 224.202 880.555C181.229 876.765 153.417 868.469 123.038 868.2C94.8075 867.931 68.6064 876.019 49.0004 875.392C44.912 875.392 19.8449 873.064 0.298562 871.304V880.047L41.4206 881.211C62.3098 881.898 112.354 875.243 117.905 874.586C138.466 872.139 192.151 889.06 243.241 886.045C294.33 883.031 332.527 860.501 377.738 870.617C393.405 874.109 420.411 886.404 474.873 881.181C529.334 875.959 599.313 872.587 598.895 851.727C598.477 830.868 517.069 843.431 486.183 842.596Z" fill="#95470E"/>
<path d="M314.801 816.335C285.526 805.353 254.103 807.591 220.829 809.979C193.017 811.948 164.279 814.008 136.526 807.771C114.831 802.877 75.3804 804.786 37.1829 806.577C24.1122 807.233 11.4592 807.83 0.179051 808.099V813.142C11.6085 812.844 24.3509 812.247 37.541 811.62C73.3511 809.919 114.205 807.95 134.974 812.635C163.742 819.081 193.017 817.022 221.337 814.992C253.804 812.665 284.482 810.486 312.324 820.961C402.536 854.831 502.506 853.787 503.312 860.232C504.565 869.483 452.014 867.394 417.308 861.098C378.901 854.145 329.931 839.671 289.794 849.489C229.006 864.41 143.569 857.457 71.6203 850.623C46.5234 848.236 22.4112 845.968 0 844.655V849.698C22.0531 851.011 45.9564 853.249 70.8146 855.667C143.45 862.56 235.511 868.469 297.612 853.309C336.257 843.849 381.796 856.114 411.309 865.097C449.776 876.765 537.421 874.049 520.53 858.382C510.474 849.042 409.012 851.668 314.801 816.335Z" fill="#924B0F"/>
<path d="M319.486 829.645C307.758 820.692 251.178 819.319 218.919 822.184C178.155 825.825 103.909 817.32 89.5848 816.902C70.9039 816.335 28.6479 816.723 0.238517 820.602V823.587C26.3545 820.602 52.6973 820.143 78.9015 822.214C92.569 823.199 130.707 827.854 138.197 828.54C160.728 830.629 178.275 829.227 219.337 825.556C254.282 822.572 307.161 824.93 316.8 832.181C317.546 832.748 317.934 833.255 317.934 833.763C317.069 834.986 308.355 834.867 302.596 834.777C296.674 834.61 290.748 834.739 284.84 835.165C277.516 836.11 270.314 837.831 263.354 840.298C257.265 842.417 251.005 844.004 244.643 845.043C233.154 846.475 221.366 844.864 208.833 843.163C199.69 841.689 190.457 840.841 181.199 840.626C173.828 840.626 129.782 842.238 115.249 840.626C105.55 839.522 75.2906 834.509 47.7168 831.674C31.8886 830.612 16.007 830.612 0.178833 831.674L0.178833 835.285C15.8621 834.423 31.5789 834.353 47.2692 835.076C60.0713 836.031 104.924 842.805 114.712 844.028C129.596 845.35 144.56 845.55 159.474 844.625C166.636 844.357 174.067 844.088 181.319 844.088C190.317 844.322 199.29 845.159 208.176 846.595C220.411 848.266 233.064 849.997 245.18 848.475C251.819 847.419 258.351 845.771 264.696 843.551C271.353 841.202 278.233 839.542 285.228 838.597C290.968 838.189 296.725 838.08 302.476 838.269C312.384 838.418 318.143 838.269 320.65 836.329C321.028 836.04 321.337 835.671 321.553 835.247C321.77 834.824 321.89 834.358 321.903 833.882C321.878 833.032 321.645 832.201 321.223 831.462C320.802 830.723 320.205 830.099 319.486 829.645Z" fill="#9B530E"/>
<path d="M267.77 654.921C253.625 656.95 216.532 651.609 195.315 648.296C172.098 644.685 113.787 645.879 113.787 673.483C113.787 687.329 135.303 690.642 161.325 690.612C202.656 690.612 218.502 705.533 245.777 709.263C265.174 711.829 281.587 705.98 300.417 700.489C309.668 697.804 397.403 685.419 397.403 669.096C397.403 646.148 314.174 648.296 267.77 654.921ZM377.767 667.902C379.856 680.287 308.534 692.91 299.164 695.625C280.781 700.997 261.802 706.547 243.539 703.235C239.988 702.817 191.495 689 172.873 687.687C158.4 686.673 133.87 684.196 131.811 673.005C129.752 661.814 155.685 656.353 164.637 655.279C179.861 652.953 195.304 652.412 210.653 653.668C228.558 655.458 270.128 660.442 300.596 655.906C345.359 649.162 375.678 655.518 377.767 667.902Z" fill="#994C13"/>
<path d="M305.491 637.225C298 638.18 256.968 647.58 241.599 643.491C222.411 638.388 158.221 623.08 111.579 638.717C100.06 642.596 43.3602 661.665 43.3602 680.704C44.5241 700.818 79.5583 700.34 109.012 701.593C202.327 705.234 233.333 721.259 269.71 721.617C312.623 722.035 331.662 703.712 353.476 698.729C423.216 682.584 491.286 696.52 491.286 665.246C491.286 641.015 454.043 658.263 392.509 635.822C366.129 626.094 334.855 633.554 305.491 637.225ZM459.743 669.096C459.743 689.746 418.233 683.659 393.524 686.493C373.937 690.224 354.578 695.066 335.541 700.997C313.637 708.487 292.927 715.559 269.621 716.514C249.895 717.32 169.472 702.19 169.472 702.19C169.472 702.19 68.875 694.789 68.0095 678.317C67.1441 661.844 108.296 621.021 230.259 644.715C245.641 647.48 261.365 647.782 276.842 645.61C279.319 645.312 364.965 634.837 391.644 640.656C404.297 643.432 459.743 654.682 459.743 669.096Z" fill="#924B0F"/>
<path d="M431.691 -7.80567C419.217 3.92216 448.731 19.4996 458.549 9.44289C464.129 3.83263 459.325 -5.47801 453.088 -9.41713C449.875 -11.6363 445.998 -12.687 442.105 -12.3937C438.211 -12.1004 434.535 -10.4811 431.691 -7.80567V-7.80567Z" fill="#924B0F"/>
<path d="M458.638 9.44298L455.296 6.4588L445.836 0.699333L443.837 1.29616C443.837 1.29616 447.746 -2.73249 449.029 -3.83663C450.313 -4.94078 447.567 -11.0285 447.567 -11.0285L446.702 -11.7447C446.702 -11.7447 449.686 -5.59729 448.462 -4.31409C446.562 -2.4837 444.57 -0.750665 442.494 0.878377L428.856 -3.26963L443.777 2.2511L448.731 9.29376L444.523 2.01236L446.015 1.29616L458.638 9.44298Z" fill="#7C3A09"/>
<path d="M438.465 5.23511C437.633 6.45838 437.186 7.90325 437.182 9.38311C438.046 8.17477 438.496 6.7199 438.465 5.23511V5.23511Z" fill="#7C3A09"/>
<path d="M461.085 3.38493C459.839 2.89582 458.453 2.89582 457.206 3.38493C459.235 3.23572 459.892 3.56398 461.085 3.38493Z" fill="#7C3A09"/>
<path d="M437.003 1.11689C434.631 0.739072 432.214 0.739072 429.841 1.11689C432.224 1.3264 434.621 1.3264 437.003 1.11689V1.11689Z" fill="#7C3A09"/>
<path d="M909.488 330.958C921.186 311.054 877.11 302.131 868.098 318.872C863.054 328.273 872.693 338.27 882.302 341.224C887.323 342.901 892.769 342.796 897.721 340.926C902.673 339.056 906.829 335.536 909.488 330.958V330.958Z" fill="#924B0F"/>
<path d="M868.098 318.783L873.588 321.469L888.032 325.318L890.359 323.796C890.359 323.796 886.838 330.481 885.615 332.391C884.391 334.301 890.21 341.134 890.21 341.134L891.613 341.731C891.613 341.731 885.645 334.838 886.51 332.779C888.257 329.7 890.159 326.712 892.21 323.826H911.428L889.942 322.364L880.989 315.142L889.196 322.961L887.525 324.453L868.098 318.783Z" fill="#7C3A09"/>
<path d="M902.028 329.794C900.235 328.331 898.22 327.162 896.06 326.333V326.333C897.909 327.447 899.648 328.737 901.252 330.182C902.874 331.586 904.694 332.742 906.653 333.614C905.37 332.057 903.8 330.76 902.028 329.794V329.794Z" fill="#7C3A09"/>
<path d="M895.91 310.875C895.313 312.718 895.313 314.702 895.91 316.545V316.694C896.491 314.798 896.491 312.771 895.91 310.875V310.875Z" fill="#7C3A09"/>
<path d="M867.262 327.527C869.045 327.759 870.848 327.276 872.276 326.184C869.679 327.049 868.724 326.87 867.262 327.527Z" fill="#7C3A09"/>
<path d="M908.563 318.783C905.391 319.366 902.275 320.224 899.253 321.349C899.253 321.349 907.071 320.215 908.563 318.783Z" fill="#7C3A09"/>
<path d="M873.797 335.673C876.632 334.117 879.328 332.32 881.855 330.302C881.855 330.302 874.782 333.943 873.797 335.673Z" fill="#7C3A09"/>
<path d="M482.512 174.05C440.734 172.737 333.303 125.945 300.477 116.008C254.372 102.042 221.307 108.159 197.374 111.83C139.093 120.783 141.779 101.743 88.7198 102.042C58.1916 102.221 37.2427 112.069 0.507455 102.251L0.149353 103.206V109.472C12.3845 112.457 50.582 113.501 84.3927 109.264C123.366 104.37 134.945 127.706 196.27 123.856C208.893 123.08 246.613 114.307 298.209 127.855C331.035 136.479 410.444 169.902 482.482 181.57C499.134 184.256 567.949 176.079 570.665 186.226C575.678 204.817 510.981 209.204 477.021 212.457C411.847 218.693 387.287 204.16 366.04 198.341C332.05 189.001 263.324 224.363 220.382 219.887C177.439 215.411 149.597 205.384 119.218 204.966C90.9878 204.668 64.7867 214.337 45.1806 213.62C41.331 213.62 19.0094 211.114 0.149353 209.084V218.962L37.571 220.275C58.4602 221.051 108.535 213.083 114.085 212.277C134.616 209.293 188.302 229.675 239.421 226.035C290.54 222.394 328.737 195.417 373.918 207.533C389.615 211.74 416.592 226.482 471.083 220.215C525.574 213.949 595.493 209.89 595.075 184.942C594.658 159.995 513.458 175.035 482.512 174.05Z" fill="#924B0F"/>
<path d="M311.101 142.597C281.856 129.437 250.403 132.123 217.129 134.958C189.316 137.315 160.43 139.792 132.856 132.302C111.161 126.333 71.6801 128.721 33.5125 130.899C21.8443 131.585 10.5045 132.212 0.17919 132.6V138.568C10.6238 138.18 22.0831 137.554 33.8407 136.867C69.6509 134.808 110.534 132.481 131.274 138.061C160.042 145.82 189.316 143.313 217.636 141.045C250.134 138.27 280.811 135.644 308.654 148.177C398.866 188.762 498.836 187.569 499.641 195.238C500.865 206.309 448.343 203.832 413.607 196.282C375.231 187.957 326.231 170.589 286.093 182.376C225.335 200.281 139.869 191.896 67.9499 183.719C44.2555 181.003 21.3669 178.407 0.119507 176.826V182.794C21.0088 184.376 43.778 186.972 67.2635 189.628C139.869 197.924 231.96 204.966 293.882 186.793C332.676 175.453 378.096 190.195 407.579 200.908C446.045 214.934 533.691 211.591 516.8 192.88C506.893 181.749 405.282 184.943 311.101 142.597Z" fill="#924B0F"/>
<path d="M215.04 149.58C174.306 153.937 100.059 143.761 85.7353 143.253C57.1593 142.369 28.5575 143.666 0.178833 147.133L0.178833 150.654C25.0673 147.629 50.2082 147.279 75.1713 149.61C88.809 150.773 126.977 156.354 134.467 157.16C156.968 159.666 174.544 157.965 215.607 153.579C250.522 149.848 303.431 152.833 313.07 161.517C313.379 161.741 313.639 162.026 313.834 162.354C314.029 162.683 314.155 163.048 314.204 163.426V163.426C313.309 164.889 304.625 164.739 298.865 164.65C292.894 164.423 286.913 164.573 280.96 165.098C273.582 166.252 266.375 168.317 259.504 171.245C253.461 173.76 247.184 175.67 240.763 176.945C229.304 178.676 217.517 176.736 204.953 174.677C195.838 172.939 186.596 171.941 177.32 171.693C169.949 171.693 125.872 173.632 111.369 171.693C101.641 170.38 71.4112 164.351 43.8075 161.099C29.2964 159.809 14.7032 159.729 0.178833 160.86L0.178833 165.038C14.6283 164.143 29.1193 164.143 43.5688 165.038C56.3709 166.142 101.253 174.289 111.041 175.632C125.909 177.229 140.891 177.479 155.804 176.378C162.996 176.049 170.396 175.721 177.678 175.721C186.696 175.998 195.677 176.996 204.535 178.705C216.771 180.735 229.423 182.824 241.539 180.973C248.231 179.653 254.77 177.653 261.056 175.005C267.626 172.203 274.509 170.199 281.557 169.037C287.292 168.54 293.053 168.4 298.806 168.619C308.743 168.798 314.473 168.619 317.009 166.291C317.406 165.904 317.72 165.439 317.93 164.926C318.141 164.413 318.244 163.862 318.233 163.307C318.207 162.362 317.974 161.434 317.551 160.589C317.129 159.743 316.526 159.001 315.786 158.413C303.998 147.968 247.418 146.148 215.04 149.58Z" fill="#924B0F"/>
<path d="M318.8 661.337C297.552 662.411 276.066 668.201 255.356 668.23C239.779 668.23 223.485 662.859 207.609 661.337C195.971 660.233 146.016 659.546 141.51 671.722C141.51 679.391 165.085 677.153 180.065 679.391C195.046 681.629 206.087 692.044 221.545 689.866C237.003 687.687 245.717 696.341 260.34 697.833C276.812 699.475 291.405 692.074 304.505 685.479C317.606 678.884 377.23 675.213 369.023 665.962C363.532 659.636 329.334 660.8 318.8 661.337ZM353.715 666.47C354.222 672.11 339.331 672.677 335.809 673.065C305.968 676.258 292.121 691.537 270.158 693.477C262.966 694.103 232.945 681.54 217.875 686.344C210.922 688.553 169.143 675.333 170.904 669.961C172.276 665.754 188.66 663.844 191.793 664.172C205.311 664.172 241.092 670.767 250.73 671.274C262.936 671.931 309.668 667.395 321.635 665.515C329.214 664.291 345.896 663.665 353.715 666.47Z" fill="#9B530E"/>
<path d="M215.905 670.379C215.607 669.842 215.577 669.991 215.905 670.379V670.379Z" fill="#994C13"/>
<path d="M261.175 675.721C245.329 675.721 231.632 670.11 215.935 670.409C206.983 669.663 180.543 666.768 198.299 678.078C211.041 686.195 229.006 680.018 236.049 681.062C249.477 682.913 262.518 690.015 277.171 685.927C284.034 684.017 289.406 678.705 296.21 676.616C299.522 675.631 304.327 675.392 307.311 673.632C311.757 670.946 309.042 669.424 304.655 669.215C289.436 668.171 276.156 675.75 261.175 675.721Z" fill="#984B11"/>
<path d="M259.803 678.377C255.084 678.171 250.381 677.693 245.717 676.944C241.987 676.347 234.736 673.512 231.393 676.168C231.393 678.347 234.378 677.78 235.87 677.929C246.314 677.183 253.775 684.076 263.772 684.584C270.695 684.942 282.96 679.302 287.645 674.378C284.661 671.393 278.066 675.691 274.753 676.616C269.894 677.986 264.848 678.58 259.803 678.377V678.377Z" fill="#853E0B"/>
<path d="M1193.85 862.292C1164.52 865.276 1097.16 884.464 1092.09 885.031H1091.85C1064.84 889.955 1036.7 881.748 1009.52 873.811C995.642 869.752 890.151 851.101 893.135 832.748C896.119 814.396 941.121 804.995 1007.52 814.843C1052.64 821.587 1113.93 814.187 1140.64 811.561C1158.35 809.918 1176.19 810.148 1193.85 812.247V801.474C1183.62 801.469 1173.4 802.187 1163.26 803.623C1131.81 808.547 1076.9 816.455 1055.98 813.47C987.345 803.623 864.069 800.43 864.069 834.36C864.069 858.472 993.97 876.825 1007.67 880.823C1035.57 888.94 1059.83 897.594 1088.54 893.805C1124.35 889.06 1146.76 871.065 1193.85 866.947V862.292Z" fill="#994C13"/>
<path d="M1193.85 884.912C1166.99 889.806 1077.97 905.801 1053.24 904.697C1018.74 903.294 988.091 892.76 955.624 881.718C937.48 875.511 882.869 861.814 869.888 860.322C833.272 856.114 771.798 865.097 771.798 834.568C771.798 813.202 853.863 796.55 872.604 792.462C912.055 783.867 1038.88 799.355 1042.55 799.773C1065.71 802.369 1087.32 803.175 1111.49 798.46C1138.65 793.02 1166.18 789.589 1193.85 788.194V780.107C1160.35 782.429 1127.15 787.965 1094.72 796.64C1071.98 802.608 1011.16 788.761 1000.12 787.359C956.698 781.928 910.383 770.856 871.201 785.15C780.064 818.394 724.976 792.82 724.976 828.749C724.976 875.004 825.752 854.354 928.975 878.257C961.264 885.747 989.434 912.754 1052.97 912.157C1091.76 911.769 1126.23 899.445 1193.85 890.522V884.912Z" fill="#95470E"/>
<path d="M1193.85 841.969C1178.66 850.922 1138.17 862.65 1130.02 860.113C1107.7 853.13 1063.29 871.542 1052.61 870.617C1020.05 867.633 999.461 845.162 955.385 840.417C950.043 839.821 927.99 839.015 928.736 830.659C940.345 826.511 965.024 827.436 976.483 829.257C994.179 832.032 1063.35 838.716 1081.44 837.791C1095.7 837.045 1148.67 827.287 1168.69 827.287C1177.25 827.3 1185.74 828.732 1193.82 831.525V823.049C1177.56 821.932 1161.23 821.932 1144.97 823.049C1121.48 825.288 1097.4 833.255 1074.33 833.226C1043.66 833.226 1011.85 824.601 980.392 823.02C964.815 822.244 914.173 820.513 905.788 829.883C893.642 843.551 981.705 848.892 1001.28 858.77C1020.86 868.648 1042.28 879.51 1066.67 877.033C1088.48 874.825 1101.91 861.904 1124.23 865.246C1147.21 868.678 1163.44 853.1 1185.61 849.758C1188.18 849.37 1190.9 849.101 1193.7 848.863L1193.85 841.969Z" fill="#924B0F"/>
<path d="M1013.9 845.52C1023.99 848.504 1031.96 856.442 1042.11 859.307C1063.83 865.275 1083.11 854.801 1102.98 852.085C1113.4 850.653 1140.02 859.814 1158.88 847.788C1185.14 831.047 1145.81 835.314 1132.73 836.448C1109.49 836.001 1089.23 844.237 1065.77 844.297C1043.6 844.297 1023.99 833.285 1001.46 834.419C994.925 834.777 990.956 837.015 997.522 840.984C1001.88 843.7 1009.04 844.028 1013.9 845.52Z" fill="#994C13"/>
<path d="M1115.22 12.1583C1123.39 10.871 1131.66 10.3217 1139.93 10.517C1129.75 4.39948 1096.18 9.53227 1090.72 10.517C1085.26 11.5018 1043.45 26.1541 1025.42 18.9921C1039.9 32.212 1065.86 23.7071 1070.78 23.2893C1075.71 22.8715 1102.68 14.1577 1115.22 12.1583Z" fill="#AF6418"/>
<path fill-rule="evenodd" clip-rule="evenodd" d="M1013.13 18.3654C1008.98 14.6352 963.86 6.42868 953.803 5.59311C942.762 4.57848 907.877 3.4445 902.446 3.35497C886.809 3.05655 852.878 12.6358 850.461 13.8593C868.72 11.4672 887.106 10.1618 905.519 9.95C917.725 9.95 941.628 12.1583 957.325 13.4713C972.365 14.6352 1004.68 20.9318 1013.13 18.3654Z" fill="#AF6418"/>
<path d="M1087.14 12.9046C1106.5 7.98067 1129.45 5.35459 1148.4 12.9046C1109.61 -11.5955 1072.22 17.8285 1032.38 17.6792C1012.32 17.6792 991.374 9.53244 971.052 5.74253C954.34 2.75835 944.403 0.878326 928.736 0.878326C919.922 0.931472 911.128 1.72005 902.445 3.23583C945.806 3.50441 990.359 14.5459 1033.75 22.3047C1053.59 25.9454 1067.56 17.918 1087.14 12.9046Z" fill="#632E0A"/>
<path d="M1193.85 107.145C1102.56 131.018 949.148 148.923 850.461 142.955C775.857 138.329 774.544 102.012 724.887 133.525C695.224 152.325 611.309 145.85 562.16 145.462C487.555 144.775 349.447 86.7629 233.303 87.1508C183.587 87.3299 48.5524 94.5217 0.178833 96.5808V100.162C54.3118 99.9529 212.294 98.1326 233.273 97.1776C318.203 93.895 394.837 136.599 502.327 147.909C573.022 155.25 777.677 143.015 863.412 152.325C963.741 163.218 1086.81 158.025 1193.73 128.989L1193.85 107.145Z" fill="#924B0F"/>
<path d="M1193.85 106.817C1102.59 130.899 949.148 148.804 850.252 142.627C775.648 137.971 774.335 101.654 724.708 133.167C695.015 151.997 611.13 145.492 561.981 145.104C487.376 144.417 349.238 86.4048 233.094 86.7927C183.467 86.9718 48.7017 94.1338 0.328186 96.2227V99.8037C54.6403 99.5948 212.205 97.7745 233.094 96.8196C318.054 93.537 394.688 136.241 502.148 147.551C572.843 154.892 777.528 142.686 863.383 151.967C963.771 162.859 1086.9 157.667 1193.88 128.571L1193.85 106.817Z" fill="#8F450D"/>
<path d="M606.713 115.65C586.242 112.815 567.382 107.354 547.03 104.549C525.782 101.564 506.982 108.01 487.346 107.861C471.53 107.861 446.702 96.4614 432.348 88.9413C413.547 79.0637 400.298 76.8554 377.319 76.2287C423.902 97.1179 462.13 128.124 506.147 118.753C533.004 113.024 622.53 144.626 656.758 126.96C704.893 102.042 801.461 87.0314 816.173 84.6739C836.615 81.3913 871.529 69.2159 891.553 66.9479C865.86 66.9479 842.702 64.4412 818.68 70.4394C794.657 76.4376 698.745 97.8043 675.23 104.28C654.401 110.129 628.199 118.664 606.713 115.65Z" fill="#984D0F"/>
<path d="M521.903 89.2398C488.57 103.415 436.794 71.3347 432.885 68.828L429.155 74.4979C433.81 77.4821 483.138 107.563 522.261 96.0138C541.3 90.3737 613.458 100.789 621.933 100.789C646.88 102.042 685.048 92.7909 695.284 90.5826C715.676 86.4952 735.409 79.6166 753.923 70.141L740.017 67.1568C723.456 76.1581 705.76 82.893 687.406 87.1807C628.378 101.385 562.876 71.8122 521.903 89.2398Z" fill="#924B0F"/>
<path d="M1193.85 98.1924C1163.47 106.13 1111.67 106.071 1105.79 106.28C1080.78 107.085 1056.58 107.652 1033.9 112.636C1024.65 114.665 957.205 132.361 936.107 123.14C933.272 121.887 913.248 116.456 907.519 114.934C894.687 111.532 871.022 114.784 857.385 116.127C846.671 117.202 807.668 111.293 803.968 105.325C800.267 99.3563 856.28 88.3148 915.725 85.45C953.415 83.6297 973.171 89.0907 994.657 92.2241C1040.34 98.9086 1141.12 88.6431 1193.85 75.0352V69.9024C1146.1 83.3014 1034.5 86.8824 994.657 84.1966C972.693 82.7344 953.445 73.4536 915.218 75.2441C850.849 78.2283 774.066 84.6443 773.828 102.102C773.499 124.095 863.89 121.917 875.29 120.783C888.629 119.47 901.252 118.216 912.293 121.171C916.233 122.215 928.169 131.257 932.108 132.511C961.532 141.941 1027.36 119.798 1036.17 117.858C1059.22 112.904 1082.67 110.057 1106.24 109.353C1111.76 109.174 1161.35 109.353 1193.97 101.475L1193.85 98.1924Z" fill="#924B0F"/>
<path d="M896.776 106.608C905.548 105.988 914.363 106.409 923.037 107.861C931.989 109.711 939.062 115.471 948.104 118.276C981.318 128.661 1015.84 109.085 1048.37 101.833C1024.92 104.858 1001.13 104.041 977.945 99.4158C962.756 96.163 956.191 89.6873 939.748 89.8664C921.198 90.1328 902.686 91.6181 884.332 94.3128C872.395 95.8049 828.289 99.4158 830.079 105.563C834.317 114.426 884.779 107.145 896.776 106.608Z" fill="#9E5510"/>
<path d="M913.487 102.848C925.752 102.848 931.78 100.699 950.252 105.832C958.011 108.07 964.606 113.322 972.216 113.382C989.703 113.382 1007.64 109.443 1000.89 108.1C990.825 107.311 980.804 105.997 970.873 104.161C962.577 102.43 954.788 97.9536 946.313 96.5212C936.697 94.5302 926.828 94.0669 917.068 95.1484C911.308 95.8945 874.543 98.5504 873.559 100.669C871.738 104.698 906.444 102.788 913.487 102.848Z" fill="#924B0F"/>
<path d="M716.382 143.612C713.398 148.894 743.747 140.239 759.056 141.582C774.365 142.925 788.599 147.76 803.819 143.403C806.504 139.702 788.361 140.896 780.99 138.151C773.619 135.405 768.575 130.66 761.205 129.198C741.061 125.408 731.512 141.373 716.382 143.612Z" fill="#853E0B"/>
<path d="M1193.85 111.472C1173.71 116.067 1153.3 123.409 1132.32 127.736C1104.36 133.704 1076.39 137.345 1047.8 141.075C1005.64 146.596 964.427 148.207 922.32 150.982C922.32 157.548 1049.24 146.655 1076.6 145.342C1101.58 144.149 1129.48 137.016 1154.01 131.108C1163.47 128.81 1182.75 125.885 1193.85 123.17V111.472Z" fill="#853E0B"/>
<path d="M256.52 155.31C240.853 156.861 225.485 155.638 210.235 158.592C203.008 160.093 195.653 160.902 188.272 161.009C181.05 161.009 167.383 161.367 164.011 163.635C161.892 166.082 169.979 165.545 171.202 165.874C184.631 165.874 198.657 164.948 211.011 169.126C224.291 173.603 233.333 172.767 246.822 167.515C252.977 164.776 259.559 163.121 266.278 162.621C271.71 162.382 281.468 164.292 285.795 161.009C294.151 154.743 282.453 154.474 276.842 154.504C270.059 154.426 263.276 154.695 256.52 155.31Z" fill="#A05810"/>
<path d="M70.4264 152.863C57.2662 151.609 43.9567 152.863 30.6175 152.057C20.4418 151.511 10.2369 152.062 0.178833 153.698L0.178833 158.652C11.9067 158.95 24.2015 156.354 36.3172 156.921C48.433 157.488 62.1006 158.324 74.4849 160.174C86.8692 162.024 97.5228 167.037 110.295 168.321C119.248 169.246 137.6 174.438 143.509 166.082C134.019 159.607 118.949 161.875 107.878 160.114C95.0757 158.294 82.9003 154.056 70.4264 152.863Z" fill="#A05810"/>
<path d="M455.714 249.729H456.221C455.863 249.401 455.624 249.311 455.714 249.729Z" fill="#984B11"/>
<path d="M457.714 249.729H456.221C456.682 250.181 457.092 250.681 457.445 251.221L457.714 249.729Z" fill="#984B11"/>
<path d="M1193.85 160.472C1165.42 161.217 1137.08 163.969 1109.04 168.709C1071.99 176.565 1034.06 179.465 996.239 177.333C967.053 175.662 938.017 174.349 908.951 172.886C854.162 170.32 807.489 189.21 753.923 197.058C727.543 200.938 701.61 198.252 675.678 197.058C649.745 195.865 629.96 202.221 606.445 210.218C560.757 225.766 500.119 214.665 458.967 242.239L457.714 249.789H458.967C474.902 245.85 496.776 248.177 513.13 246.805C530.438 245.283 549.089 245.312 565.8 243.82C577.17 242.776 575.469 236.658 585.377 232.331C596.329 227.557 619.038 223.916 630.497 221.17C658.176 214.902 686.425 211.492 714.801 210.994C760.071 209.592 875.678 183.421 902.446 185.987C981.616 193.597 960.727 217.798 1039.51 199.714C1086.42 188.852 1146.1 166.59 1193.85 181.421V160.472Z" fill="#984B11"/>
<path fill-rule="evenodd" clip-rule="evenodd" d="M659.116 243.701C659.733 243.913 660.375 244.044 661.026 244.089L659.116 243.701Z" fill="#984B11"/>
<path fill-rule="evenodd" clip-rule="evenodd" d="M1193.85 198.222C1179.47 197.446 1163.59 201.505 1149.71 201.505C1123.13 201.505 1098.63 205.115 1072.63 207.473C1049.36 209.592 1026.05 217.739 1003.43 218.037C981.407 218.335 962.935 209.502 942.046 207.413C929.493 206.427 916.867 206.968 904.445 209.025C899.044 209.86 897.283 211.412 890.897 212.009C884.929 212.576 878.751 212.009 872.813 212.009C849.855 212.057 827.03 215.486 805.072 222.185C781.437 229.556 758.608 231.137 732.855 229.765C719.784 229.108 708.116 228.243 695.254 231.973C686.63 234.48 669.441 244.865 661.026 243.91L680.184 248.028C689.137 237.434 720.023 243.582 732.795 243.582C754.844 242.994 776.681 239.111 797.582 232.063C815.487 226.094 839.36 223.946 857.802 223.11C876.245 222.274 875.439 220.335 893.911 221.021C920.107 221.943 946.231 224.344 972.156 228.213C1000.12 232.48 1029.78 228.213 1058.01 226.721C1083.62 225.229 1114.95 226.721 1139.21 219.201C1151.65 215.262 1157.95 211.203 1172.31 211.919C1179.41 212.277 1186.66 213.441 1193.85 214.486V198.222Z" fill="#984B11"/>
<path d="M585.376 242.179C585.376 242.179 625.245 248.505 637.898 246.566C649.835 244.745 671.47 235.435 682.81 231.257C694.15 227.079 700.715 223.468 712.95 222.304C737.182 219.857 762.308 225.617 785.257 218.693C828.856 205.503 904.624 198.103 939.181 201.325C930.228 199.058 907.877 191.567 898.417 191C875.2 189.568 842.165 192.91 821.097 200.788C798.924 209.084 779.318 211.531 755.445 215.172C730.258 219.022 706.206 217.171 681.676 219.589C658.041 221.886 607.758 234.211 585.376 242.179Z" fill="#AF6418"/>
<path d="M1193.85 325.527C1108.71 327.825 905.131 370.767 868.008 370.678C830.885 370.588 748.909 355.07 749.089 356.533C667.947 344.074 585.27 345.628 504.654 361.128C354.311 389.806 297.224 384.644 206.774 357.398C151.656 340.806 139.421 353.489 101.79 349.192C81.0501 346.804 67.293 336.568 46.8812 335.375C31.5127 334.45 15.607 340.746 0.178833 339.493V355.876C12.7422 354.026 19.6655 339.493 38.9732 346.924C63.2047 356.115 93.4344 359.457 123.336 357.935C177.379 355.16 234.198 387.777 288.063 389.926C445.448 396.312 538.972 355.428 696.895 360.919C735.69 362.262 823.633 377.989 863.562 377.989C901.401 377.869 1128.2 334.181 1193.85 333.286V325.527Z" fill="#924B0F"/>
<path d="M158.131 -22.8162C149.597 -23.5324 90.4801 -40.7213 72.4258 -46.242C47.6273 -54.0009 27.5736 -57.761 0.178833 -53.1952V-45.7049C28.7076 -49.0471 53.1182 -41.4972 78.6926 -33.5891C97.105 -27.8893 154.521 -18.6682 163.055 -18.0415C182.9 -16.4002 285.944 -16.1615 292.748 -7.92515C276.036 6.57797 192.062 3.56394 178.066 4.63824C151.954 6.63765 165.95 22.0957 158.131 24.0354C143.419 27.6463 93.8224 19.3502 55.6846 20.3947C36.9342 21.3624 18.3338 24.2625 0.178833 29.0488L0.178833 34.0324C11.4951 31.9122 22.959 30.675 34.4671 30.332C40.6443 30.899 185.974 32.0032 202.088 28.0342C210.563 25.9453 170.038 13.1133 179.349 11.293C192.33 8.81608 343.777 7.29415 345.777 -4.58288C347.776 -16.4599 177.976 -21.1749 158.131 -22.8162Z" fill="#8F450D"/>
<path d="M86.9886 -20.4288C84.0044 -21.4136 37.2125 -36.5135 25.6637 -36.5135C20.7697 -36.5135 5.66972 -33.977 4.26716 -31.5001C1.87982 -27.3819 16.8902 -28.1877 14.5029 -17.9221C13.5181 -15.4452 7.72881 -10.969 0.178833 -5.98539V0.341078C11.9365 -6.52254 22.0827 -13.5354 23.3361 -18.131C26.3202 -29.3515 12.2648 -24.3082 19.2477 -31.3211C26.2307 -38.3339 82.8406 -18.1907 85.7949 -17.2357C101.432 -10.4915 249.507 -10.1036 242.912 -5.53776C236.317 -0.971965 145.27 -8.10415 140.614 -1.44943C135.959 5.20529 150.014 4.51893 145.807 9.20409C141.599 13.8893 80.3936 10.4873 58.5195 9.65173C46.3739 9.2041 21.5754 13.1134 0.178833 16.7242V19.3205C12.1156 17.8284 21.7843 16.3363 22.5602 16.3363C38.8378 14.6142 55.1921 13.7178 71.5604 13.6505C79.4685 14.4562 152.581 17.5598 153.983 15.3217C158.131 8.63711 144.732 0.400769 144.434 0.162034C147.418 -0.196067 273.739 -0.73322 274.276 -6.55237C274.813 -12.3715 102.238 -13.8338 86.9886 -20.4288Z" fill="#8F450D"/>
<path d="M121.217 -6.55237C112.444 -6.55237 76.4545 -10.1035 49.0298 -20.8167C26.6783 -29.5305 48.6717 -14.5798 38.9732 -6.55237C33.0048 -1.65832 12.1156 2.93731 0.178833 7.38374V11.2333C3.96874 11.2333 8.05707 10.726 8.92248 10.6365C27.0663 8.54758 41.0024 4.66814 71.1128 5.29482C81.7365 5.53356 127.812 7.89104 133.781 6.48848C139.749 5.08591 135.482 -6.55237 121.217 -6.55237Z" fill="#8F450D"/>
<path opacity="0.75" d="M33.7509 2.48963C41.45 3.176 49 0.60961 56.3411 -0.88248C64.3038 -2.22487 72.3969 -2.62552 80.4533 -2.07616C92.0319 -1.62853 111.399 7.05543 122.441 1.83311C121.724 -6.52259 90.6293 -6.07496 83.7955 -6.76132C77.0157 -7.30674 70.3019 -8.48566 63.7419 -10.2826C60.7577 -11.1779 44.1656 -19.2352 48.3733 -12.7894C50.9099 -6.55244 35.0639 -0.942171 33.7509 2.48963Z" fill="#7C350D"/>
<path d="M1193.85 -60.6259C1069.56 -66.2958 967.322 -44.1532 951.864 -41.5271C861.085 -26.2183 757.892 -22.0106 627.424 -28.3669C613.428 -29.0532 350.671 -51.912 345.807 -29.292C340.942 -6.67189 406.893 -7.50744 396.179 7.65219C385.466 22.8118 250.193 16.6047 240.704 18.2759C236.854 18.9622 231.453 20.3648 228.767 24.6023C227.941 26.3203 227.513 28.202 227.513 30.1081C227.513 32.0142 227.941 33.8959 228.767 35.6139C229.115 36.5812 229.365 37.5809 229.513 38.5981C228.827 39.2546 224.35 42.0896 199.88 41.5823C196.329 41.5823 191.226 41.2242 184.72 40.9258C147.15 39.1054 63.533 35.1066 0.178833 48.4161V58.801C62.399 45.223 146.642 49.2516 184.243 51.072C190.778 51.4002 195.971 51.639 199.612 51.7285C226.469 52.4149 234.198 49.4307 237.72 44.7157C238.829 42.9452 239.476 40.9244 239.601 38.8387C239.726 36.7531 239.326 34.6694 238.436 32.779C238.118 31.9045 237.868 31.0065 237.69 30.0932C239.168 29.2867 240.79 28.7797 242.464 28.6011C251.089 27.0792 392.36 31.1974 406.236 9.2338C420.113 -12.7298 373.201 -13.5952 380.99 -22.6372C388.779 -31.6793 605.042 -24.1592 619.217 -23.4728C750.521 -17.0867 898.208 -15.2066 989.703 -30.6647C1005.34 -33.2908 1095.55 -54.0607 1193.85 -50.42V-60.6259Z" fill="#924B0F"/>
<path fill-rule="evenodd" clip-rule="evenodd" d="M561.473 25.9153C543.5 27.092 525.775 30.7474 508.803 36.7778C496.866 40.9855 467.024 42.7461 459.534 50.4155C479.02 66.8583 538.316 49.1919 563.025 50.4155C576.484 51.1018 663.473 66.2018 661.264 46.8046H662.995C644.911 22.4239 587.824 23.5877 561.473 25.9153Z" fill="#924B0F"/>
<path fill-rule="evenodd" clip-rule="evenodd" d="M501.79 48.6251C523.704 44.1568 546.081 42.3731 568.426 43.3133C579.707 43.8803 628.408 53.9967 629.393 40.1501C586.642 28.7962 541.405 31.1447 500.059 46.8645L501.79 48.6251Z" fill="#853E0B"/>
<path fill-rule="evenodd" clip-rule="evenodd" d="M609.728 -15.2067C587.316 -16.3108 536.555 -23.3833 526.32 -15.2067C535.809 -6.82113 590.33 -5.35888 603.431 -2.07628C617.337 1.41521 631.602 4.3397 645.388 10.129C662.16 17.112 709.459 45.1036 725.394 38.1803C707.489 17.291 647.268 19.1412 638.704 -5.35887C678.781 -7.71637 717.009 -10.9393 757.623 -10.9393C739.151 -21.6525 635.302 -14.0428 609.728 -15.2067Z" fill="#86420D"/>
<path d="M451.268 14.6352C433.363 18.7832 408.266 12.7551 396.24 22.215C408.415 17.4403 416.054 19.2308 423.097 18.9921C433.452 18.5743 442.972 19.1711 452.939 16.9927C465.963 13.7655 478.607 9.16394 490.659 3.26545C495.911 0.907948 523.634 2.37018 523.485 -5.41852C523.485 -10.1634 509.817 -15.5946 506.296 -17.5641C490.599 -22.1896 471.501 -21.5629 454.759 -22.3985C445.508 -22.8461 436.138 -23.3833 426.827 -22.9356C424.619 -22.9356 416.442 -22.9357 415.159 -20.6677C412.772 -16.6987 422.232 -18.0714 424.679 -18.1013C435.424 -18.3844 446.176 -18.0257 456.878 -17.027C462.608 -16.4301 480.751 -15.5349 483.378 -8.9697C489.107 5.32451 459.444 12.6059 451.268 14.6352Z" fill="#924B0F"/>
<path d="M1193.85 20.8125L1190.87 19.768C1167.53 11.5914 1132.2 12.7851 1107.76 18.634C1079.41 25.3783 1064.31 26.3631 1036.14 31.5555C1010.65 36.3004 962.278 24.1548 937.898 18.9922C913.791 14.7731 889 16.923 865.979 25.2291C868.038 48.4162 918.888 36.6883 921.395 59.9948L954.818 61.6062C960.786 61.9047 986.182 73.9309 988.36 61.6062C990.121 51.6092 935.003 53.6982 954.818 41.0751C969.59 31.7048 1034.44 47.9387 1053.5 47.2225C1077.92 46.2974 1109.01 48.9533 1131.54 40.5081C1144.07 35.7931 1150.19 32.2718 1164.9 32.8984C1174.36 33.2864 1184.24 35.8826 1193.82 36.2706L1193.85 20.8125Z" fill="#924B0F"/>
<path d="M668.426 661.695C647.806 652.743 629.334 647.669 609.041 636.628C559.981 609.949 502.834 611.203 449.239 602.638C404.625 595.536 357.714 599.057 311.966 597.088C365.085 607.652 422.799 614.247 478.603 622.841C505.46 626.989 543.658 631.346 564.338 651.997C583.169 670.767 548.104 685.628 532.408 688.493C497.97 694.82 463.563 697.446 428.678 706.159C394.837 714.664 358.878 721.08 325.723 730.033C259.564 747.64 175.5 727.347 145.718 724.452C99.0451 719.946 47.2397 694.611 0.119507 701.056V721.647C26.9771 720.991 77.7082 731.018 88.5407 733.793C101.94 737.284 113.518 742.746 127.335 744.208C152.939 746.953 178.663 743.969 204.924 745.282C231.185 746.595 254.521 755.13 281.498 751.25C306.831 747.51 331.863 741.955 356.401 734.628C369.561 730.779 384.124 732.241 398.179 731.465C412.832 730.481 427.425 728.737 441.897 726.243C510.862 715.53 582.154 714.306 651.626 698.55C675.738 693.119 703.312 676.914 668.426 661.695Z" fill="#994C13"/>
<path d="M149.627 592.611C126.529 592.611 107.43 598.729 85.5264 602.041C61.265 605.682 54.3715 618.365 34.4969 630.123C25.3681 634.833 15.5783 638.133 5.46083 639.911C3.43159 640.299 1.70076 640.657 0.178833 641.015V672.468C14.294 666.082 28.4987 656.741 41.3605 649.55C58.4002 640.06 71.7395 625.139 88.6001 616.216C106.953 606.518 131.602 608.905 150.94 605.026C171.772 600.425 192.903 597.294 214.174 595.655C193.285 596.551 170.993 592.611 149.627 592.611Z" fill="#994C13"/>
<path d="M214.175 595.655L218.561 595.386L214.175 595.655Z" fill="#924B0F"/>
<path d="M395.135 763.396C395.809 763.305 396.476 763.175 397.135 763.008C396.461 763.097 395.793 763.227 395.135 763.396Z" fill="#994C13"/>
<path d="M1020.77 698.012C1060.97 690.224 1136.52 679.54 1193.85 683.39V675.243C1185.44 675.512 1177.14 675.87 1169.17 675.87C1136.35 675.87 1103.52 675.87 1070.69 675.87C989.006 676.199 907.639 686.105 828.259 705.383C781.855 716.664 734.794 729.615 686.421 727.228C662.547 726.064 639.181 725.736 615.696 730.212C593.77 734.427 571.384 735.721 549.119 734.061C524.111 732.778 498.388 735.852 474.156 739.552C459.202 742.073 444.502 745.918 430.229 751.041C421.276 754.025 404.655 761.008 397.164 762.829C406.773 761.367 427.006 764.321 435.362 761.784C454.998 755.816 473.798 748.714 495.045 746.565C519.933 744.058 546.851 748.147 571.649 749.37C597.134 750.594 744.045 735.882 768.277 731.286C809.578 723.497 902.117 703.324 944.344 709.71C991.643 716.843 1005.34 722.453 1017.87 721.647C1065.23 719.379 974.066 706.965 1020.77 698.012Z" fill="#994C13"/>
<path d="M1193.85 700.489V689.328C1163.74 689.657 1110.14 691.238 1088.66 695.297C1076.32 698.067 1063.81 699.972 1051.21 700.997C1041.57 701.474 1022.89 697.744 1029.36 710.397C1036.17 723.766 1071.59 731.107 1084.78 732.987C1119.66 737.881 1159.38 730.779 1193.85 737.225V726.541C1155.06 723.557 1079.62 720.931 1080.21 710.695C1080.93 698.937 1152.37 701.205 1193.85 700.489Z" fill="#924B0F"/>
<path d="M651.745 764.47C667.053 761.486 880.571 731.465 938.852 741.342C977.945 747.967 1007.13 751.369 1046.01 758.442C1082.33 765.067 1128.5 755.965 1167.71 758.442C1109.76 741.85 1002.65 741.85 957.205 722.632C936.913 714.007 899.312 716.663 848.074 728.779C830.616 732.867 634.586 755.905 621.276 763.187C633.004 761.754 639.36 766.947 651.745 764.47Z" fill="#924B0F"/>
<path d="M873.976 306.786C855.116 302.131 823.066 297.834 804.027 300.818C790.3 302.937 653.834 335.643 667.113 341.701C683.825 349.341 710.742 330.541 791.136 342.268C812.025 345.253 827.841 349.848 876.811 348.237C868.277 345.014 846.403 340.627 844.135 329.168C841.061 313.71 864.009 310.845 873.976 306.786Z" fill="#924B0F"/>
<path d="M908.563 348.386C892.986 353.877 855.146 356.921 827.99 356.95C865.322 364.441 904.296 360.114 941.12 351.37C959.443 347.043 978.363 340.597 996.746 337.882C1015.13 335.166 1052.07 332.988 1055.35 327.109C1058.34 318.783 993.732 316.485 971.798 313.769C945.418 310.517 899.461 295.864 895.612 301.833C895.612 305.444 939.39 310.785 939.39 326.93C939.39 343.074 925.871 342.298 908.563 348.386Z" fill="#984B11"/>
<path d="M1193.85 253.37C1181.76 257.518 1151.3 267.216 1138.02 268.947C1096.87 274.289 1053.15 279.153 1012.05 269.275C993.181 265.115 975.371 257.099 959.742 245.73C947.387 236.33 931.661 237.613 916.621 237.613C889.435 237.613 797.91 239.344 781.825 245.074C788.868 248.058 831.303 254.623 843.986 257.01C881.795 263.904 920.172 271.394 957.743 279.481C984.988 285.45 1083.7 300.669 1127.84 300.669C1151.71 300.669 1176.36 303.086 1193.91 294.134L1193.85 253.37Z" fill="#924B0F"/>
<path d="M566.904 297.028C535.123 298.908 501.521 299.595 471.023 306.607C445.866 312.397 423.604 317.947 395.821 316.545C334.974 313.561 275.231 308.756 214.771 302.251C187.048 299.266 161.354 293.447 132.378 297.357C102.089 301.445 73.1719 309.293 44.4939 314.933C26.5889 323.886 56.4307 330.093 63.5927 330.809C77.3162 332.567 91.1216 333.613 104.953 333.943C131.811 333.943 158.102 328.123 184.571 330.72C208.713 333.077 229.603 343.343 252.969 349.55C304.177 363.098 364.219 357.309 416.919 354.712C444.076 353.34 469.978 346.446 496.537 343.462C523.962 340.478 552.222 341.851 579.259 337.225C605.699 332.689 630.378 325.527 657.235 322.752C678.453 320.573 710.294 320.365 728.199 310.039C709.339 302.072 683.437 300.758 662.368 298.819C630.636 295.847 598.726 295.249 566.904 297.028ZM513.995 327.586C489.435 332.54 465.651 337.971 440.793 342.06C415.935 346.148 389.913 346.566 364.756 350.326C340.375 353.966 315.04 356.622 289.644 351.848C260.409 346.008 231.673 337.896 203.7 327.586C177.708 318.425 114.622 325.348 127.305 311.651C170.874 289.299 231.512 313.322 273.739 324.393C318.292 336.091 378.991 333.943 426.529 329.168C481.079 323.707 532.079 308.696 588.719 311.919C576.991 325.438 532.377 323.886 513.995 327.586Z" fill="#95470E"/>
<path d="M1193.85 394.521C1180.36 374.885 1163.14 352.743 1145.9 350.355C1118.59 346.506 1087.26 366.201 1059.62 368.797C990.002 375.333 925.842 393.924 854.908 393.924C715.159 393.924 735.541 361.397 486.093 385.33C460.459 387.807 339.868 406.905 318.203 420.782L444.882 418.574C444.882 418.574 510.802 382.614 673.171 390.492C747.448 394.073 887.734 402.907 961.831 395.446C997.641 391.806 1078.01 377.541 1113.01 369.544C1162.37 358.054 1172.96 413.65 1172.96 413.65C1179.9 412.908 1186.87 412.569 1193.85 412.635V394.521Z" fill="#924B0F"/>
<path d="M1155.92 411.531L1156.1 412.188L1158.16 410.129C1157.54 410.77 1156.77 411.251 1155.92 411.531Z" fill="#924B0F"/>
<path d="M1119.25 397.625C1130.71 398.878 1147.51 414.366 1155.95 411.412C1145.69 372.618 1124.41 376.228 1093.28 381.003C1059.06 386.255 950.938 409.532 950.938 409.532C989.733 412.516 1024.41 401.863 1061.62 399.684C1080.45 398.58 1100.18 395.536 1119.25 397.625Z" fill="#924B0F"/>
<path d="M23.0975 383.301C18.5317 385.271 8.95246 390.672 15.0402 393.208C19.5761 397.118 47.2992 397.744 63.6823 400.221C80.0655 402.698 94.9863 399.505 111.429 399.714C140.316 400.132 196.538 410.875 203.282 397.744C207.758 388.792 146.255 389.747 115.159 385.33C91.7634 382.018 46.5233 365.873 23.0975 383.301Z" fill="#924B0F"/>
<path d="M56.8785 420.991C67.3371 422.097 77.8448 422.675 88.3616 422.722C99.1345 422.722 112.713 426.452 122.53 422.722C97.4208 413.382 70.8663 408.524 44.0764 408.368C32.7664 408.368 18.2036 406.518 8.26625 401.027C5.27833 399.424 2.52666 397.416 0.0895996 395.058V413.232C7.63957 415.321 16.8308 415.381 23.217 416.216C34.4375 417.858 45.6879 419.857 56.8785 420.991Z" fill="#924B0F"/>
<path d="M254.908 391.507C232.706 387.031 219.307 388.225 197.463 382.734C186.153 379.899 148.791 367.813 120.053 365.873C105.431 364.888 63.8911 365.873 42.017 358.383C32.2588 355.041 18.6807 360.979 8.86279 365.097C6.17703 366.201 3.16301 367.186 0.178833 368.29V380.466C0.774264 379.733 1.41197 379.035 2.08871 378.377C6.35608 374.08 35.6906 367.753 41.4202 367.723C52.7302 367.723 105.61 371.543 121.337 374.647C132.288 376.795 219.516 387.508 237.421 398.998C246.374 404.727 224.738 413.113 212.443 415.828C204.685 417.559 189.853 417.052 186.929 427.019C194.747 425.795 202.834 425.616 210.593 424.035C218.352 422.453 252.939 411.859 262.995 409.83C269.143 408.607 290.48 409.412 290.48 404.339C290.48 399.266 260.996 392.731 254.908 391.507Z" fill="#924B0F"/>
<path d="M438.674 250.594C436.523 252.255 434.19 253.666 431.721 254.802C426.621 256.586 421.335 257.787 415.965 258.383C386.929 262.71 357.475 262.083 327.961 260.263C310.921 259.218 294.419 257.13 277.23 257.13C253.357 257.13 229.483 259.338 205.61 261.636C189.585 263.217 174.276 260.89 158.042 260.89C133.879 261.104 109.744 262.578 85.7353 265.306C65.8905 267.365 46.1949 273.423 26.2606 273.423C17.6064 273.423 8.80311 273.155 0.178833 273.214V290.045C7.87802 287.896 16.2934 286.583 21.5754 285.121C37.0151 280.747 52.9768 278.489 69.0239 278.407C117.338 278.407 164.935 271.871 212.951 267.813C261.742 263.665 308.445 277.601 356.639 279.75C390.838 281.242 428.259 273.781 459.623 261.099C468.268 257.525 477.105 254.437 486.093 251.848C470.844 251.221 455.565 250.564 440.315 250.743C439.766 250.724 439.218 250.674 438.674 250.594V250.594Z" fill="#924B0F"/>
<path d="M1193.85 430.003C1169.98 426.691 1141.51 430.003 1118.11 430.003C1087.85 430.003 1057.09 431.555 1026.86 430.003C1001.58 428.72 976.125 427.556 953.535 418.544C930.407 409.323 906.862 412.039 879.915 412.068C880.661 412.427 885.137 414.784 886.6 415.411C908.265 424.99 933.63 425.259 956.728 436.121C981.825 448.058 1003.25 449.908 1031.75 451.221C1059.65 452.534 1085.85 459.189 1114.86 457.756C1140.76 456.443 1167.38 456.204 1193.85 456.145V430.003Z" fill="#9B530E"/>
<path d="M68.4569 436.121C51.5067 439.702 20.143 440.359 0.178833 448.058V458.502C9.13137 459.427 18.442 458.98 27.7228 459.427C41.9872 460.144 54.2223 464.411 68.4569 465.963C95.1354 468.947 120.74 472.946 147.836 467.604C129.066 467.604 96.0008 470.588 82.96 456.175C94.8967 442.03 135.243 423.796 153.208 425.169C132.438 415.411 89.9728 431.585 68.4569 436.121Z" fill="#924B0F"/>
<path d="M294.986 511.203C267.621 503.713 245.657 496.909 216.771 496.909C189.734 496.909 166.457 500.937 141.748 495.327C115.577 489.359 91.3754 492.611 63.9209 490.015C42.6615 488.362 21.2844 489.062 0.178833 492.104L0.178833 500.639C24.0523 500.907 46.0755 502.131 70.0385 498.55C94.0014 494.969 121.366 504.817 145.15 509.562C170.963 514.724 196.18 510.576 223.306 511.651C249.567 512.695 272.694 523.169 298.268 526.333C325.723 529.735 353.595 531.674 381.408 534.121C392.569 535.136 458.489 530.809 462.637 542.567C465.95 551.937 399.134 553.608 389.555 554.086C359.713 555.548 329.334 554.086 300.029 555.697C245.269 558.502 194.986 553.698 140.286 555.697C109.161 556.861 78.3046 559.397 47.7765 562.262C33.4524 563.605 19.0388 564.172 5.04305 567.216C3.43998 567.571 1.8643 568.039 0.328042 568.619V581.63C12.6229 580.376 25.1266 577.571 35.5414 575.661C58.7457 571.037 82.4966 569.791 106.058 571.961C162.757 577.511 216.89 571.573 273.947 568.798C304.953 567.306 334.944 567.604 365.263 567.216C393.195 566.828 417.218 558.98 445.12 558.95C470.694 558.95 498.835 557.607 524.977 558.95C547.925 560.084 581.049 565.187 598.537 547.55C571.47 533.077 545.806 540.239 481.527 527.735C427.692 517.201 347.507 525.557 294.986 511.203Z" fill="#924B0F"/>
<path d="M228.2 523.378C200.537 520.394 83.3778 516.545 68.4569 514.844C48.5822 512.605 22.5005 510.696 0.178833 513.829V562.531C4.59542 561.576 9.48947 559.994 14.7118 558.95C40.6443 553.757 145.508 542.298 171.142 541.045C200.626 539.523 229.065 550.833 259.146 550.833C287.734 550.833 319.635 553.22 346.672 545.581C335.75 540.149 320.202 540.776 308.146 539.433C280.483 536.27 255.625 526.422 228.2 523.378Z" fill="#9E5510"/>
<path d="M27.0365 533.047C40.7637 532.45 65.3235 534.062 72.2767 534.658C95.2548 536.688 144.464 545.372 153.655 545.789C162.847 546.207 210.205 554.742 236.765 541.492C203.73 548.654 127.514 534.062 117.159 533.047C106.804 532.032 45.7175 526.929 27.0365 533.047Z" fill="#AF6418"/>
<path fill-rule="evenodd" clip-rule="evenodd" d="M368.009 528.093C349.567 529.018 266.905 537.046 259.355 540.896C274.783 543.432 333.96 537.255 361.563 535.972C385.437 534.897 419.546 533.196 443.27 532.659C454.699 530.57 499.97 527.974 511.459 525.855C505.699 525.497 466.547 525.855 462.07 525.855C452.103 525.975 388.122 527.079 368.009 528.093Z" fill="#AF6418"/>
<path d="M223.992 540.209C150.999 540.209 82.8109 510.934 11.5189 535.434C46.1652 527.884 88.2123 530.481 123.724 535.434C159.236 540.388 185.347 548.475 221.545 544.924C300.925 537.165 382.691 526.124 461.981 525.855C456.579 525.199 433.81 523.528 413.816 523.528C385.078 523.528 366.905 525.378 336.227 528.362C299.164 532.032 260.817 540.12 223.992 540.209Z" fill="#632E0A"/>
<path d="M487.346 570.379C431.453 567.604 373.41 574.706 319.457 584.942C302.596 588.135 283.437 590.403 267.89 596.52C322.739 595.595 372.575 582.017 425.395 576.944C452.67 574.318 477.708 572.229 505.281 573.602C529.602 574.796 559.564 574.557 581.885 581.749C588.749 583.957 601.521 585.21 602.774 591.895C603.819 597.863 611.071 596.789 621.455 597.863L637.421 596.371C629.095 578.466 585.168 573.632 567.322 571.901C540.316 569.334 514.98 571.722 487.346 570.379Z" fill="#924B0F"/>
<path d="M904.743 649.52C877.886 660.68 701.312 705.175 637.301 709.89C658.698 716.723 746.373 695.536 769.321 692.731C797.79 689.269 823.037 677.272 850.819 672.766C876.901 668.529 904.027 662.501 929.064 656.891C950.521 652.086 979.796 649.37 998.984 640.09C977.945 626.392 930.348 630.958 904.206 627.079C862.995 620.961 821.306 615.142 780.363 608.219C750.521 603.056 720.679 599.475 691.076 596.282C665.681 593.686 639.301 597.923 612.861 597.923C648.044 610.128 718.173 625.139 755.415 633.972C774.663 638.687 949.745 627.675 904.743 649.52Z" fill="#924B0F"/>
<path d="M1193.85 629.645C1181.98 627.877 1170.03 626.712 1158.04 626.154C1127.51 624.661 1076.78 619.648 1047.92 612.784C1022.92 606.816 996.447 607.831 971.321 601.415C957.235 597.834 905.34 580.525 896.328 594.82C917.575 608.368 973.917 613.769 999.432 617.559C1030.2 622.125 1064.34 627.019 1092.24 636.867C1117.63 645.819 1141.84 648.087 1168.57 651.967C1173.59 652.683 1183.2 655.19 1193.73 657.368L1193.85 629.645Z" fill="#924B0F"/>
<path d="M755.415 634.121C791.225 636.926 867.62 649.042 881.885 649.52C896.149 649.997 969.798 661.844 1011.04 643.551C959.712 653.459 841.24 633.286 825.155 631.853C809.578 630.48 714.024 623.408 685.108 631.853C706.445 631.047 744.612 633.286 755.415 634.121Z" fill="#AF6418"/>
<path fill-rule="evenodd" clip-rule="evenodd" d="M1193.85 626.392C1147.45 629.794 1055.86 638.329 1046.01 642.686C1068.13 645.939 1147.89 638.956 1193.85 636.449V626.392Z" fill="#AF6418"/>
<path d="M1193.85 623.02C1185.11 623.736 1175.95 624.572 1165.77 625.437C1107.91 630.51 1048.28 641.671 991.195 641.79C877.796 641.969 771.798 601.295 660.996 635.195C714.86 624.751 780.184 628.332 835.361 635.195C891.046 642.089 931.124 653.1 987.405 648.326C1055.53 642.357 1124.68 635.136 1193.85 629.704V623.02Z" fill="#632E0A"/>
<path d="M541.539 801.921C521.008 800.907 500.328 802.966 479.826 801.921C461.921 800.996 441.36 804.667 424.709 798.937C409.34 793.625 397.314 781.032 383.288 774.407C364.727 765.783 351.447 769.125 331.632 770.886C317.756 772.139 287.765 766.678 279.916 774.348L285.079 772.647C315.786 778.615 346.046 781.45 376.425 791.984C404.715 801.832 422.47 818.484 452.282 822.602C508.206 830.271 568.665 822.602 624.559 822.602C666.964 822.602 706.236 805.711 745.359 791.507C766.248 783.897 792.509 790.552 814.353 784.733C827.095 781.36 855.176 776.735 863.681 766.022C802.744 761.904 745.926 776.705 686.72 788.075C657.504 793.655 627.901 801.742 598.418 805.741C578.722 808.427 560.906 802.876 541.539 801.921Z" fill="#95470E"/>
<path opacity="0.75" d="M0.178833 419.23V423.468C87.8839 423.468 639.002 419.38 748.611 418.663C863.144 417.947 1122.65 414.217 1193.85 411.591V408.607L864.606 406.637C864.606 406.637 555.952 412.993 372.216 412.844C215.04 412.605 45.7174 417.738 0.178833 419.23Z" fill="#71320B"/>
<path d="M0.178833 424.005V432.957C148.015 433.166 697.194 440.567 747.268 440.269C861.801 439.523 1122.65 422.99 1193.85 420.364V408.428C1193.85 408.428 575.26 426.721 391.643 426.452C234.437 426.452 45.7174 422.513 0.178833 424.005Z" fill="#B8661D"/>
<path d="M0.178833 426.482L536.108 426.601L1193.85 414.277V408.577L524.469 419.917L0.178833 422.334V426.482Z" fill="#632E0A"/>
<path d="M0.178833 769.633V778.585C149.627 785.896 930.288 786.553 1087.88 785.867C1117.46 785.867 1153.68 778.167 1193.85 777.6V764.321C949.864 768.469 690.181 772.318 566.009 772.259C344.195 772.318 79.5879 768.678 0.178833 769.633Z" fill="#B8661D"/>
<path d="M0.178833 772.318L778.005 772.438L1193.85 767.156V760.77L760.966 765.753L0.178833 768.141V772.318Z" fill="#632E0A"/>
<path opacity="0.75" d="M0.178833 764.888V769.185C152.67 769.185 932.257 765.097 1089.85 764.41C1118.98 764.261 1154.49 764.052 1193.85 763.754V753.249C1067.2 754.861 785.018 758.203 580.184 758.531C580.691 749.728 575.857 747.609 563.323 747.699C550.79 747.788 545.418 751.161 551.148 758.561H537.689C315.995 758.442 77.7675 763.217 0.178833 764.888Z" fill="#71320B"/>
<path d="M578.304 751.16C575.588 748.176 569.023 747.669 563.383 747.699C550.909 747.699 545.478 751.161 551.208 758.561H526.17C532.437 759.098 537.301 759.397 543.717 759.725C547.985 759.964 557.445 762.709 557.206 757.129C557.206 755.547 553.714 754.145 554.729 752.861C558.728 748.206 572.216 749.43 578.304 751.16Z" fill="#632E0A"/>
<path opacity="0.75" d="M0.178833 70.1411V74.3189C87.8839 74.3189 639.002 70.2306 748.611 69.5443C863.144 68.7982 1122.65 65.0978 1193.85 62.4718V59.4876L864.606 57.5479C864.606 57.5479 555.952 63.9042 372.216 63.755C215.04 63.4864 45.7174 68.649 0.178833 70.1411Z" fill="#71320B"/>
<path d="M0.178833 74.9157V83.8682C87.8839 83.8682 617.247 91.3287 726.856 90.6125C841.389 89.8963 1122.65 73.9011 1193.85 71.275V59.3383C1193.85 59.3383 575.26 77.6015 391.643 77.4523C234.437 77.303 45.7174 73.4236 0.178833 74.9157Z" fill="#B8661D"/>
<path d="M0.178833 77.3927L536.108 77.5121L1193.85 65.1874V59.4578L524.469 70.8275L0.178833 73.2447V77.3927Z" fill="#632E0A"/>
<path d="M0.178833 257.01C290.987 257.219 752.192 262.262 869.62 261.725C947.775 261.397 1072.39 254.414 1193.85 251.878V238.717C906.027 243.969 510.474 250.654 347.746 250.505C232.945 250.385 106.386 249.46 0.178833 248.625V257.01Z" fill="#B8661D"/>
<path d="M0.178833 250.445L559.742 250.535L1193.85 242.447V236.33L542.703 243.85L0.178833 245.551V250.445Z" fill="#632E0A"/>
<path opacity="0.75" d="M0.178833 239.075V246.566C291.554 245.372 754.191 242.985 871.559 242.477C949.506 242.149 1073.17 241.164 1193.85 239.941V230.988L1041.81 230.362C1041.81 230.362 633.81 236.091 361.921 236.539C362.428 227.586 357.594 225.617 345.06 225.706C332.527 225.796 327.155 229.168 332.885 236.569H319.486C209.937 236.599 96.4186 237.733 0.178833 239.075Z" fill="#71320B"/>
<path d="M360.041 229.228C357.326 226.243 350.761 225.766 345.12 225.796C332.647 225.796 327.215 229.257 332.945 236.658H307.848C314.115 237.195 318.979 237.494 325.395 237.822C329.662 238.031 339.092 240.806 338.883 235.226C338.883 233.644 335.392 232.242 336.407 230.929C340.376 226.303 353.954 227.497 360.041 229.228Z" fill="#632E0A"/>
<path d="M612.861 660.77C597.313 653.876 564.636 641.403 561.622 638.15C547.656 623.229 505.46 606.995 469.471 602.907L468.904 607.95C503.282 611.859 544.851 627.586 557.892 641.611C560.876 644.596 586.54 660.8 609.727 669.006C622.35 673.483 641.748 677.959 641.449 678.585C637.212 686.852 596.895 690.522 577.528 692.253C568.367 693.089 422.351 714.187 391.136 720.274C306.027 736.956 218.054 754.205 128.29 725.556C107.938 719.051 42.0767 710.277 0.178833 710.636V715.112C40.2564 715.112 106.445 723.796 126.768 730.271C160.836 740.916 196.358 746.172 232.05 745.849C286.391 745.849 339.808 735.404 392.121 725.139C423.216 719.17 569.709 697.953 577.976 697.177C610.802 694.193 683.914 687.956 671.5 674.318C666.188 668.618 632.288 669.424 612.861 660.77Z" fill="#8F450D"/>
<path d="M0.178833 597.147V610.486C51.6559 610.874 98.0898 618.215 134.467 618.066C283.944 617.499 991.404 603.891 1193.85 602.041V592.79C1091.61 593.447 856.638 598.371 656.251 600.131C527.304 601.265 252.103 599.535 0.178833 597.147Z" fill="#B8661D"/>
<path d="M0.178833 599.922L444.255 601.922L1193.85 595.565V591.328L461.235 595.088L0.178833 593.566V599.922Z" fill="#632E0A"/>
<path opacity="0.75" d="M0.178833 586.016V596.7C50.9099 596.7 96.4186 596.7 132.348 596.431C281.885 595.864 991.314 593.656 1193.85 592.402V587.598C1096.6 586.404 883.794 584.345 684.451 586.106C680.094 586.076 117.009 586.464 0.178833 586.016Z" fill="#71320B"/>
<path style="mix-blend-mode:multiply" d="M1193.85 -271.846H0.178833V921.826H1193.85V-271.846Z" fill="url(#paint0_radial)"/>
</g>
<defs>
<radialGradient id="paint0_radial" cx="0" cy="0" r="1" gradientUnits="userSpaceOnUse" gradientTransform="translate(597.015 324.333) scale(596.508)">
<stop stop-color="white"/>
<stop offset="1" stop-color="#914410"/>
</radialGradient>
<clipPath id="clip0">
<rect width="1194" height="834" fill="white"/>
</clipPath>
</defs>
</svg>
