<svg width="166" height="106" viewBox="0 0 166 106" fill="none" xmlns="http://www.w3.org/2000/svg">
<g style="mix-blend-mode:multiply" opacity="0.5">
<path d="M82.1507 101.52C68.8307 101.52 56.6307 93.26 52.7907 81.98C47.6436 84.5859 41.9597 85.9555 36.1907 85.98C30.5122 86.0279 24.9214 84.5793 19.9807 81.78C9.04069 75.45 3.13068 61.94 6.22068 50.35C9.01068 39.92 19.2207 32.06 29.8907 32.06C30.8375 32.0616 31.7831 32.1284 32.7207 32.26C32.7207 31.91 32.7207 31.57 32.7207 31.26C32.3539 29.6498 32.1827 28.0012 32.2107 26.35C32.4907 11.58 48.0706 0 67.6907 0H68.6107C79.6107 0.21 89.7307 4.13 96.3907 10.61C99.2907 5.34 105.391 2.21001 112.831 2.21001C117.479 2.25575 122.053 3.37124 126.201 5.47C135.991 10.32 142.091 19.47 141.331 27.74C144.22 28.3599 147.012 29.3691 149.631 30.74C151.498 31.3814 153.18 32.4697 154.531 33.91C157.827 36.4468 160.522 39.6804 162.424 43.3798C164.325 47.0792 165.386 51.153 165.531 55.31C165.931 71.38 152.101 84.81 134.701 85.24H133.821C127.675 85.2738 121.641 83.5906 116.401 80.38C109.001 92.11 97.6507 99.9 85.7207 101.38C84.5343 101.495 83.3424 101.542 82.1507 101.52Z" fill="white"/>
</g>
<g style="mix-blend-mode:multiply" opacity="0.5">
<path d="M81.5807 101.98C68.2607 101.98 56.0707 93.72 52.2207 82.43C47.077 85.0354 41.3965 86.405 35.6306 86.43C29.9491 86.4778 24.355 85.0293 19.4107 82.23C8.48068 75.89 2.57068 62.38 5.66068 50.79C8.44068 40.37 18.6607 32.51 29.3207 32.51C30.2672 32.5079 31.2129 32.5714 32.1507 32.7C32.1507 32.36 32.1507 32.01 32.1507 31.7C31.7916 30.0887 31.6238 28.4406 31.6507 26.79C31.9307 12.02 47.5107 0.449997 67.1306 0.449997H68.0407C79.0407 0.649997 89.1707 4.57 95.8307 11.06C98.7307 5.78 104.831 2.64999 112.261 2.64999C116.911 2.70062 121.488 3.81581 125.641 5.91C135.421 10.76 141.521 19.91 140.761 28.19C143.654 28.8079 146.45 29.8172 149.071 31.19C150.933 31.8354 152.611 32.9232 153.961 34.36C157.259 36.8974 159.955 40.1325 161.857 43.8338C163.759 47.5352 164.819 51.6112 164.961 55.77C165.371 71.83 151.541 85.26 134.131 85.7H133.261C127.115 85.7306 121.083 84.0476 115.841 80.84C108.431 92.56 97.0807 100.35 85.1607 101.84C83.9713 101.96 82.7757 102.006 81.5807 101.98Z" fill="#EEEEEE"/>
</g>
<g style="mix-blend-mode:multiply" opacity="0.5">
<path d="M80.9807 102.43C67.6607 102.43 55.4606 94.17 51.6206 82.89C46.4736 85.4959 40.7897 86.8655 35.0207 86.89C29.3423 86.9379 23.7514 85.4893 18.8107 82.69C7.87065 76.36 1.9607 62.84 5.0507 51.25C7.8407 40.83 18.0507 32.97 28.7207 32.97C29.6638 32.9728 30.6057 33.0363 31.5407 33.16C31.5407 32.82 31.5407 32.47 31.5907 32.16C31.2324 30.5519 31.0646 28.9073 31.0907 27.26C31.3707 12.48 46.9507 0.910004 66.5707 0.910004H67.4907C78.4907 1.12 88.6107 5.04 95.2707 11.52C98.1707 6.24 104.271 3.11 111.711 3.11C116.358 3.16073 120.932 4.27595 125.081 6.37C134.871 11.23 140.971 20.37 140.211 28.65C143.1 29.2699 145.892 30.2791 148.511 31.65C150.378 32.2914 152.06 33.3797 153.411 34.82C156.707 37.3568 159.402 40.5905 161.304 44.2898C163.205 47.9892 164.266 52.063 164.411 56.22C164.811 72.29 150.981 85.71 133.581 86.15H132.701C126.555 86.1838 120.521 84.5006 115.281 81.29C107.881 93.02 96.5307 100.81 84.6007 102.29C83.3978 102.407 82.1891 102.454 80.9807 102.43Z" fill="#DDDDDD"/>
</g>
<g style="mix-blend-mode:multiply" opacity="0.5">
<path d="M80.3706 102.89C67.0506 102.89 54.8607 94.63 51.0107 83.34C45.867 85.9454 40.1865 87.315 34.4207 87.34C28.7382 87.3847 23.1441 85.9327 18.2007 83.13C7.27066 76.8 1.36066 63.29 4.45066 51.7C7.23066 41.28 17.4507 33.42 28.1107 33.42C29.0573 33.4179 30.0028 33.4814 30.9406 33.61C30.9406 33.26 30.9407 32.92 30.9907 32.61C30.6316 30.9987 30.4638 29.3506 30.4907 27.7C30.7607 12.93 46.3507 1.36 65.9707 1.36H66.8806C77.8806 1.57 88.0107 5.49 94.6707 11.97C97.5707 6.7 103.671 3.57001 111.101 3.57001C115.748 3.61932 120.322 4.73461 124.471 6.83C134.261 11.68 140.361 20.83 139.601 29.1C142.493 29.723 145.288 30.732 147.911 32.1C149.775 32.7414 151.454 33.8298 152.801 35.27C156.097 37.8073 158.791 41.041 160.693 44.7403C162.594 48.4396 163.656 52.5131 163.801 56.67C164.211 72.74 150.381 86.17 132.971 86.61H132.151C126.004 86.6408 119.97 84.9541 114.731 81.74C107.321 93.47 95.9707 101.26 84.0507 102.74C82.828 102.862 81.5992 102.912 80.3706 102.89Z" fill="#CCCCCC"/>
</g>
<g style="mix-blend-mode:multiply" opacity="0.5">
<path d="M79.7707 103.34C66.4507 103.34 54.2507 95.08 50.4107 83.8C45.2636 86.4059 39.5797 87.7755 33.8106 87.8C28.1322 87.8479 22.5414 86.3993 17.6007 83.6C6.66069 77.27 0.750675 63.75 3.84068 52.16C6.63068 41.74 16.8407 33.88 27.5107 33.88C28.4539 33.8779 29.3962 33.9414 30.3307 34.07C30.3307 33.73 30.3307 33.38 30.3807 33.07C30.0224 31.4619 29.8545 29.8173 29.8807 28.17C30.1607 13.39 45.7407 1.82001 65.3607 1.82001H66.2807C77.2807 2.03001 87.4007 5.95001 94.0606 12.43C96.9606 7.15001 103.061 4.02 110.501 4.02C115.148 4.07074 119.722 5.18595 123.871 7.28C133.661 12.13 139.751 21.28 139.001 29.56C141.89 30.1795 144.683 31.1887 147.301 32.56C149.169 33.205 150.851 34.2967 152.201 35.74C155.498 38.2758 158.194 41.5093 160.096 45.2089C161.997 48.9085 163.058 52.9827 163.201 57.14C163.601 73.2 149.771 86.63 132.371 87.07H131.491C125.345 87.1038 119.311 85.4206 114.071 82.21C106.671 93.94 95.3207 101.73 83.3907 103.21C82.1879 103.328 80.9789 103.372 79.7707 103.34Z" fill="#BBBBBB"/>
</g>
<g style="mix-blend-mode:multiply" opacity="0.5">
<path d="M79.1507 103.79C65.8307 103.79 53.6407 95.53 49.7907 84.25C44.644 86.8569 38.9599 88.2266 33.1906 88.25C27.5124 88.2965 21.9219 86.848 16.9807 84.05C6.06068 77.7 0.150693 64.18 3.24069 52.61C6.02069 42.18 16.1907 34.32 26.9007 34.32C27.8475 34.3212 28.7931 34.388 29.7307 34.52C29.7307 34.17 29.7307 33.83 29.7307 33.47C29.3724 31.8619 29.2046 30.2173 29.2307 28.57C29.5007 13.8 45.0907 2.22 64.7107 2.22H65.6206C76.6206 2.43 86.7507 6.35 93.4107 12.83C96.3107 7.56 102.411 4.43001 109.841 4.43001C114.487 4.47586 119.061 5.58775 123.211 7.68001C133.001 12.54 139.101 21.68 138.341 29.96C141.234 30.5798 144.029 31.589 146.651 32.96C148.515 33.6014 150.194 34.6898 151.541 36.13C154.837 38.6668 157.532 41.9004 159.434 45.5998C161.335 49.2992 162.396 53.373 162.541 57.53C162.951 73.6 149.121 87.03 131.711 87.46H130.841C124.716 87.4856 118.705 85.8063 113.481 82.61C106.071 94.34 94.7207 102.13 82.8007 103.61C81.5886 103.741 80.3698 103.801 79.1507 103.79Z" fill="#AAAAAA"/>
</g>
<g style="mix-blend-mode:multiply" opacity="0.5">
<path d="M78.5606 104.25C65.2406 104.25 53.0407 95.99 49.2007 84.7C44.0535 87.3055 38.3697 88.6751 32.6007 88.7C26.9221 88.7493 21.3308 87.3007 16.3907 84.5C5.45066 78.16 -0.459347 64.65 2.63065 53.06C5.42065 42.64 15.6307 34.78 26.3007 34.78C27.244 34.7779 28.1862 34.8414 29.1206 34.97C29.1206 34.63 29.1206 34.28 29.1206 33.97C28.7616 32.3587 28.5937 30.7106 28.6206 29.06C28.9006 14.29 44.4807 2.72 64.1007 2.72H65.0207C76.0207 2.92 86.1407 6.84001 92.8007 13.32C95.7007 8.05001 101.801 4.92 109.241 4.92C113.888 4.97073 118.462 6.08596 122.611 8.18001C132.401 13.03 138.491 22.18 137.741 30.46C140.63 31.0795 143.423 32.0887 146.041 33.46C147.906 34.1051 149.588 35.1928 150.941 36.63C154.237 39.1688 156.933 42.4043 158.834 46.1053C160.736 49.8063 161.796 53.8816 161.941 58.04C162.341 74.1 148.511 87.53 131.111 87.97H130.231C124.085 87.999 118.053 86.3162 112.811 83.11C105.411 94.83 94.0507 102.62 82.1307 104.11C80.9446 104.23 79.7524 104.276 78.5606 104.25Z" fill="#999999"/>
</g>
<g style="mix-blend-mode:multiply" opacity="0.5">
<path d="M77.9507 104.7C64.6307 104.7 52.4407 96.44 48.5907 85.16C43.444 87.7669 37.7599 89.1366 31.9907 89.16C26.3125 89.2065 20.7219 87.758 15.7807 84.96C4.85069 78.63 -1.06931 65.11 2.03069 53.52C3.50804 48.3473 6.60131 43.7829 10.8583 40.4939C15.1152 37.2049 20.3126 35.3639 25.6907 35.24C26.6371 35.2429 27.5824 35.3063 28.5207 35.43C28.5207 35.09 28.5207 34.74 28.5207 34.43C28.1624 32.8219 27.9946 31.1773 28.0207 29.53C28.2907 14.75 43.8807 3.18001 63.4907 3.18001H64.4107C75.4107 3.39001 85.5407 7.30999 92.2007 13.79C95.1007 8.50999 101.201 5.38 108.631 5.38C113.293 5.41235 117.885 6.51756 122.051 8.61C131.841 13.47 137.941 22.61 137.181 30.89C140.074 31.5098 142.869 32.519 145.491 33.89C147.355 34.5314 149.034 35.6198 150.381 37.06C153.677 39.5968 156.372 42.8304 158.274 46.5298C160.175 50.2292 161.236 54.303 161.381 58.46C161.791 74.53 147.961 87.95 130.551 88.39H129.681C123.535 88.4238 117.501 86.7406 112.261 83.53C104.851 95.26 93.5007 103.05 81.5807 104.53C80.3753 104.661 79.163 104.718 77.9507 104.7Z" fill="#888888"/>
</g>
<g style="mix-blend-mode:multiply" opacity="0.5">
<path d="M77.3507 105.16C64.0307 105.16 51.8307 96.9 47.9907 85.61C42.8435 88.2155 37.1597 89.5851 31.3907 89.61C25.7002 89.658 20.0979 88.2023 15.1507 85.39C4.21067 79.06 -1.69934 65.55 1.39066 53.96C2.86993 48.7865 5.96508 44.2218 10.2237 40.9329C14.4824 37.644 19.6813 35.8034 25.0606 35.68C26.0039 35.6779 26.9462 35.7413 27.8807 35.87C27.8807 35.52 27.8807 35.18 27.8807 34.87C27.5216 33.2587 27.3537 31.6106 27.3807 29.96C27.6607 15.19 43.2407 3.62 62.8607 3.62H63.7807C74.7307 3.83 84.9007 7.75 91.5606 14.23C94.4606 8.96 100.561 5.83 108.001 5.83C112.648 5.87575 117.223 6.99123 121.371 9.09C131.161 13.94 137.251 23.09 136.491 31.36C139.383 31.983 142.178 32.992 144.801 34.36C146.668 35.0014 148.35 36.0897 149.701 37.53C152.997 40.0673 155.691 43.301 157.593 47.0003C159.494 50.6996 160.556 54.7732 160.701 58.93C161.101 75 147.271 88.43 129.871 88.87H128.991C122.844 88.9008 116.81 87.2141 111.571 84C104.171 95.73 92.8107 103.52 80.8907 105C79.7147 105.12 78.5328 105.174 77.3507 105.16Z" fill="#777777"/>
</g>
<g style="mix-blend-mode:multiply" opacity="0.5">
<path d="M76.7407 105.61C63.4207 105.61 51.2207 97.35 47.3807 86.07C42.234 88.6769 36.5499 90.0466 30.7807 90.07C25.1024 90.1165 19.5119 88.668 14.5707 85.87C3.64067 79.53 -2.27933 66.02 0.820669 54.43C2.29802 49.2573 5.39129 44.6929 9.64824 41.4039C13.9052 38.1149 19.1026 36.2739 24.4807 36.15C25.4273 36.1479 26.3728 36.2114 27.3107 36.34C27.3107 36 27.3107 35.65 27.3607 35.34C26.9972 33.7328 26.8294 32.0875 26.8607 30.44C27.1307 15.66 42.7207 4.09 62.3307 4.09H63.2507C74.2507 4.29 84.3707 8.22 91.0407 14.7C93.9307 9.42 100.041 6.28999 107.471 6.28999C112.118 6.33931 116.692 7.45461 120.841 9.55C130.631 14.4 136.731 23.55 135.971 31.83C138.864 32.4495 141.659 33.4587 144.281 34.83C146.143 35.4754 147.821 36.5632 149.171 38C152.467 40.5388 155.163 43.7743 157.064 47.4753C158.966 51.1763 160.026 55.2516 160.171 59.41C160.581 75.47 146.751 88.9 129.341 89.34H128.461C122.315 89.3738 116.282 87.6906 111.041 84.48C103.641 96.21 92.2907 104 80.3707 105.48C79.1645 105.598 77.9522 105.642 76.7407 105.61Z" fill="#666666"/>
</g>
<path d="M76.7407 105.61C63.4207 105.61 51.2207 97.35 47.3807 86.07C42.234 88.6769 36.5499 90.0465 30.7807 90.07C25.1024 90.1165 19.5119 88.668 14.5707 85.87C3.64067 79.53 -2.27933 66.02 0.820669 54.43C2.29802 49.2573 5.39129 44.6928 9.64824 41.4039C13.9052 38.1149 19.1026 36.2739 24.4807 36.15C25.4273 36.1479 26.3728 36.2113 27.3107 36.34C27.3107 36 27.3107 35.65 27.3607 35.34C26.9972 33.7327 26.8294 32.0875 26.8607 30.44C27.1307 15.66 42.7207 4.08997 62.3307 4.08997H63.2507C74.2507 4.28997 84.3707 8.21997 91.0407 14.7C93.9307 9.41997 100.041 6.28996 107.471 6.28996C112.118 6.33928 116.692 7.45458 120.841 9.54997C130.631 14.4 136.731 23.55 135.971 31.83C138.864 32.4494 141.659 33.4587 144.281 34.83C146.143 35.4754 147.821 36.5632 149.171 38C152.467 40.5388 155.163 43.7742 157.064 47.4753C158.966 51.1763 160.026 55.2515 160.171 59.41C160.581 75.47 146.751 88.9 129.341 89.34H128.461C122.315 89.3738 116.282 87.6905 111.041 84.48C103.641 96.21 92.2907 104 80.3707 105.48C79.1645 105.598 77.9522 105.641 76.7407 105.61Z" fill="white"/>
</svg>
