<svg width="30" height="30" viewBox="0 0 30 30" fill="none" xmlns="http://www.w3.org/2000/svg">
<g clip-path="url(#clip0)">
<path d="M15 30.0001C23.2843 30.0001 30.0001 23.2843 30.0001 15C30.0001 6.71574 23.2843 0 15 0C6.71574 0 0 6.71574 0 15C0 23.2843 6.71574 30.0001 15 30.0001Z" fill="#E24C4B"/>
<path d="M30.0001 15C30.0001 23.2501 23.25 30.0001 15 30.0001C10.2188 30.0001 6.00004 27.8438 3.28125 24.3751C5.8125 26.4376 9.09377 27.6564 12.6562 27.6564C20.9063 27.6564 27.6563 20.9064 27.6563 12.6563C27.6563 9.09386 26.4375 5.81259 24.375 3.28134C27.8438 6 30.0001 10.2187 30.0001 15Z" fill="#D1403F"/>
<path d="M21.8437 21.8438C21.2812 22.4062 20.3437 22.4062 19.7812 21.8438L15 17.0625L10.2187 21.8438C9.65626 22.4062 8.71871 22.4062 8.15623 21.8438C7.59376 21.2813 7.59376 20.3437 8.15623 19.7813L12.9375 15L8.15623 10.2188C7.59376 9.65631 7.59376 8.71876 8.15623 8.15628C8.71871 7.5938 9.65626 7.5938 10.2187 8.15628L15 12.9375L19.7812 8.15628C20.3437 7.5938 21.2812 7.5938 21.8437 8.15628C22.4062 8.71876 22.4062 9.65631 21.8437 10.2188L17.0625 15L21.8437 19.7813C22.4062 20.3437 22.4062 21.2812 21.8437 21.8438Z" fill="white"/>
</g>
<defs>
<clipPath id="clip0">
<rect width="30" height="30" fill="white"/>
</clipPath>
</defs>
</svg>
