<svg width="1194" height="834" viewBox="0 0 1194 834" fill="none" xmlns="http://www.w3.org/2000/svg">
<g clip-path="url(#clip0)">
<path d="M1197.49 -158H-2.51001V1042H1197.49V-158Z" fill="#8BC8E1"/>
<path opacity="0.2" d="M554.61 -24.7C554.495 -25.7809 554.16 -26.8269 553.627 -27.7742C553.094 -28.7216 552.374 -29.5504 551.51 -30.21C551.341 -30.7155 551.033 -31.1629 550.62 -31.5008C550.208 -31.8387 549.709 -32.0534 549.18 -32.12C546.27 -34.91 539.45 -35.21 535.57 -32.75C535.424 -32.7699 535.276 -32.7699 535.13 -32.75C534.88 -33.35 534.63 -33.95 534.37 -34.55C534.213 -35.6478 533.806 -36.6948 533.18 -37.61C533.208 -37.8496 533.167 -38.0922 533.06 -38.3087C532.954 -38.5252 532.787 -38.7062 532.58 -38.83C531.17 -41.66 529.5 -44.25 526.44 -45.58C525.76 -46.74 524.18 -46.43 523.39 -47.42H517.26C516.02 -46.28 514.09 -46.34 512.98 -44.97C511.211 -44.199 509.699 -42.9398 508.62 -41.34L511.31 -40.03L514.2 -43.12C514.2 -43.93 514.2 -44.75 513.25 -44.93C514.25 -44.75 514.2 -43.93 514.2 -43.12C516.369 -43.0558 518.482 -42.4137 520.32 -41.26C521.41 -42.26 521.69 -42.47 522.32 -42.03C521.66 -42.47 521.38 -42.22 520.32 -41.26L523.91 -38.26H525.23C525.503 -38.2681 525.774 -38.3015 526.04 -38.36C525.774 -38.3015 525.503 -38.2681 525.23 -38.26H523.89L527.02 -32.69C527.01 -32.5869 527.01 -32.4831 527.02 -32.38C528.24 -26.84 528.24 -26.84 533.28 -29.38C537.2 -31.38 543.44 -28.98 546.18 -24.54C547.33 -22.68 547.69 -20.54 548.43 -18.6C549.316 -18.3458 550.125 -17.8769 550.786 -17.235C551.447 -16.5931 551.94 -15.7979 552.22 -14.92C551.94 -15.7979 551.447 -16.5931 550.786 -17.235C550.125 -17.8769 549.316 -18.3458 548.43 -18.6C548.03 -13.66 547.34 -8.88001 541.75 -6.91001C541.949 -6.50034 542.173 -6.10295 542.42 -5.72001C542.173 -6.10295 541.949 -6.50034 541.75 -6.91001C538.891 -7.20645 536.016 -6.52998 533.59 -4.99001C532.36 -4.22001 531.53 -3.19001 532.04 -1.7C532.89 0.789997 532.45 3.29999 532.53 5.86999C532.07 6.86999 531.6 7.86999 531.15 8.86999C529.33 12.92 525.72 12.87 522.15 12.77C522.55 13.15 523.27 13.33 523.69 13.7C523.78 13.7779 523.857 13.8689 523.92 13.97C523.857 13.8689 523.78 13.7779 523.69 13.7C523.27 13.33 522.55 13.15 522.15 12.77C517.959 11.87 514.173 9.63482 511.36 6.39999C509.73 4.45999 508.28 4.61 506.42 5.82C504.666 7.02158 503.116 8.49702 501.83 10.19C494.66 14.31 485.53 7.03999 484.74 0.579994C484.46 -1.77 483.22 -3.5 480.79 -3.12C474.79 -2.17 470.92 -5.17001 467.5 -9.39001L466.27 -12.46C466.08 -13.27 465.9 -14.09 465.72 -14.91C465.77 -17.02 465.72 -19.16 466.91 -21.05C468.91 -24.36 470.85 -25.18 474.71 -24.31C481.65 -22.74 484.6 -25.02 484.78 -32.08C485.38 -33.98 486 -35.88 486.6 -37.78C486.785 -38.5131 487.168 -39.1811 487.708 -39.7104C488.248 -40.2397 488.923 -40.6098 489.66 -40.78C492.66 -40.96 494.86 -39.39 497.02 -37.65C497.087 -37.7449 497.168 -37.8292 497.26 -37.9C497.168 -37.8292 497.087 -37.7449 497.02 -37.65L501.74 -32.53C501.997 -32.1493 502.391 -31.882 502.839 -31.7834C503.288 -31.6847 503.757 -31.7623 504.15 -32C506.21 -33.09 508.43 -34 509.28 -36.43C510.18 -37.4959 510.86 -38.7297 511.28 -40.06L508.59 -41.37C507 -39.27 505.41 -39.43 503.83 -41.37C500.05 -45.37 495.83 -46.15 490.83 -43.81C488.19 -43.1444 485.822 -41.6771 484.05 -39.61C481.758 -37.8966 480.095 -35.4747 479.32 -32.72C478.93 -29.72 476.9 -28.83 474.17 -28.23C471.074 -27.5331 468.197 -26.0875 465.79 -24.02L466.15 -23.07L465.79 -24.02L465.16 -23.47C462.899 -22.0388 461.173 -19.9017 460.25 -17.39C460.191 -17.2295 460.157 -17.0608 460.15 -16.89L459 -15.56V-8.81001L460.15 -7.47001C460.32 -7.09001 460.48 -6.7 460.65 -6.31001C460.849 -5.38532 461.352 -4.5542 462.08 -3.95C463.186 -2.23414 464.716 -0.83279 466.522 0.118477C468.328 1.06974 470.349 1.53871 472.39 1.47999C475.84 1.38999 477.82 2.14999 478.05 5.8C478.05 6.05999 478.35 6.29999 478.52 6.55999C478.976 8.25307 479.83 9.81259 481.011 11.1085C482.193 12.4045 483.666 13.3993 485.31 14.01C491.71 17.44 497.53 15.68 503.15 12.01C503.97 11.73 504.78 10.94 505.65 11.81C508.22 14.37 511.65 15.41 514.8 16.92H522.16C522.54 16.31 523.21 16.44 523.78 16.27C529.64 14.52 534.42 11.27 537.5 5.88999C538.716 4.50412 539.403 2.73323 539.44 0.889992C539.6 -2.11001 540.68 -4.23001 543.67 -5.11001C547.56 -6.82001 550.8 -9.26001 552.8 -13.11C554.24 -14.17 553.85 -16.3 555.27 -17.38V-24.12L554.61 -24.7ZM527.99 -34.07C527.829 -34.0621 527.673 -34.0079 527.542 -33.9139C527.411 -33.8199 527.309 -33.6901 527.25 -33.54C527.309 -33.6901 527.411 -33.8199 527.542 -33.9139C527.673 -34.0079 527.829 -34.0621 527.99 -34.07C528.262 -34.0849 528.534 -34.0441 528.79 -33.95C528.534 -34.0441 528.262 -34.0849 527.99 -34.07ZM497.29 -37.86C497.412 -37.971 497.57 -38.0326 497.735 -38.0326C497.9 -38.0326 498.058 -37.971 498.18 -37.86C498.058 -37.971 497.9 -38.0326 497.735 -38.0326C497.57 -38.0326 497.412 -37.971 497.29 -37.86ZM483.35 -31.58C483.01 -31.5896 482.674 -31.6468 482.35 -31.75C482.674 -31.6468 483.01 -31.5896 483.35 -31.58ZM466.66 -9.19001C466.562 -9.1638 466.47 -9.11614 466.392 -9.05044C466.315 -8.98474 466.252 -8.90263 466.21 -8.81001C466.252 -8.90263 466.315 -8.98474 466.392 -9.05044C466.47 -9.11614 466.562 -9.1638 466.66 -9.19001ZM467.19 -9.31001L466.85 -9.25001L467.19 -9.31001ZM502.58 10.39C502.748 10.4987 502.886 10.6465 502.984 10.8208C503.081 10.995 503.135 11.1904 503.14 11.39C503.135 11.1904 503.081 10.995 502.984 10.8208C502.886 10.6465 502.748 10.4987 502.58 10.39ZM502.26 10.27H502.33H502.26Z" fill="white"/>
<path opacity="0.2" d="M1077.27 3.64999C1077.15 2.49783 1076.79 1.38283 1076.22 0.372246C1075.65 -0.63834 1074.89 -1.52356 1073.97 -2.23C1073.79 -2.76402 1073.45 -3.23506 1073.01 -3.58889C1072.57 -3.94272 1072.04 -4.16495 1071.48 -4.23C1068.38 -7.23 1061.1 -7.53001 1056.96 -4.91001C1056.81 -4.93466 1056.65 -4.93466 1056.5 -4.91001L1055.69 -6.84C1055.52 -8.00561 1055.08 -9.11696 1054.42 -10.09C1054.45 -10.3479 1054.4 -10.6089 1054.29 -10.8415C1054.17 -11.0741 1053.99 -11.2681 1053.77 -11.4C1052.27 -14.4 1050.49 -17.17 1047.23 -18.59C1046.5 -19.84 1044.82 -19.5 1043.98 -20.59H1037.44C1036.11 -19.37 1034.05 -19.44 1032.87 -17.97C1030.98 -17.1513 1029.37 -15.8082 1028.22 -14.1L1031.09 -12.71L1034.17 -16.01C1034.17 -16.87 1034.17 -17.74 1033.17 -17.93C1034.17 -17.74 1034.17 -16.87 1034.17 -16.01C1036.57 -16.09 1038.65 -15.1 1040.7 -14.01C1041.86 -15.01 1042.16 -15.3 1042.86 -14.83C1042.16 -15.3 1041.86 -15.03 1040.7 -14L1044.52 -10.76H1045.94C1046.23 -10.7664 1046.52 -10.8033 1046.8 -10.87C1046.52 -10.8033 1046.23 -10.7664 1045.94 -10.76H1044.52L1047.87 -4.82001C1047.86 -4.71024 1047.86 -4.59979 1047.87 -4.49001C1049.18 1.41999 1049.18 1.41999 1054.56 -1.33001C1058.73 -3.46001 1065.39 -0.900005 1068.32 3.82999C1069.54 5.82999 1069.93 8.04999 1070.71 10.17C1071.65 10.4498 1072.5 10.954 1073.2 11.639C1073.89 12.3239 1074.41 13.1687 1074.71 14.1C1074.41 13.1687 1073.89 12.3239 1073.2 11.639C1072.5 10.954 1071.65 10.4498 1070.71 10.17C1070.29 15.44 1069.55 20.53 1063.59 22.63C1063.8 23.0674 1064.04 23.4915 1064.3 23.9C1064.04 23.4915 1063.8 23.0674 1063.59 22.63C1060.54 22.3144 1057.48 23.0367 1054.89 24.68C1053.57 25.51 1052.69 26.6 1053.23 28.19C1054.14 30.85 1053.67 33.57 1053.75 36.26C1053.26 37.32 1052.75 38.38 1052.28 39.45C1050.34 43.76 1046.49 43.68 1042.66 43.6C1043.08 44.01 1043.84 44.2 1044.29 44.6C1044.39 44.682 1044.47 44.7801 1044.53 44.89C1044.47 44.7801 1044.39 44.682 1044.29 44.6C1043.84 44.21 1043.08 44.02 1042.66 43.6C1038.19 42.6435 1034.15 40.2606 1031.15 36.81C1029.41 34.74 1027.86 34.9 1025.87 36.19C1024 37.4724 1022.35 39.0456 1020.98 40.85C1013.34 45.25 1003.59 37.49 1002.76 30.6C1002.45 28.1 1001.13 26.25 998.55 26.66C992.18 27.66 988.01 24.47 984.36 19.97C983.93 18.88 983.49 17.79 983.05 16.7C982.86 15.83 982.66 14.95 982.47 14.08C982.47 11.83 982.47 9.54999 983.73 7.52999C985.85 3.99999 987.94 3.12999 992.06 4.05999C999.45 5.72999 1002.61 3.3 1002.79 -4.23L1004.79 -10.31C1004.99 -11.0833 1005.41 -11.7862 1005.98 -12.343C1006.56 -12.8998 1007.27 -13.2894 1008.05 -13.47C1011.22 -13.66 1013.6 -11.98 1015.9 -10.13C1015.98 -10.2294 1016.06 -10.3199 1016.16 -10.4C1016.06 -10.3199 1015.98 -10.2294 1015.9 -10.13C1017.58 -8.31001 1019.25 -6.48668 1020.9 -4.66001C1021.18 -4.2561 1021.6 -3.97405 1022.08 -3.87177C1022.56 -3.7695 1023.06 -3.85474 1023.48 -4.11001C1025.67 -5.26001 1028.04 -6.18001 1028.94 -8.82001C1029.91 -9.9594 1030.64 -11.2777 1031.1 -12.7L1028.23 -14.09C1026.53 -11.86 1024.84 -12.02 1023.16 -14.09C1019.16 -18.35 1014.58 -19.2 1009.27 -16.69C1006.45 -15.9853 1003.93 -14.4233 1002.04 -12.22C999.615 -10.3823 997.859 -7.80063 997.04 -4.87C996.63 -1.64 994.46 -0.720009 991.55 -0.0800095C988.248 0.662821 985.178 2.20456 982.61 4.41L983 5.41L982.61 4.41L981.94 4.99999C979.535 6.52554 977.698 8.79866 976.71 11.47C976.644 11.6427 976.607 11.8252 976.6 12.01L975.37 13.43V20.63L976.6 22.05L977.13 23.3C977.344 24.2874 977.883 25.1746 978.66 25.82C979.841 27.6496 981.473 29.1438 983.4 30.158C985.327 31.1723 987.483 31.6724 989.66 31.61C993.33 31.51 995.44 32.32 995.66 36.21C995.66 36.49 995.98 36.75 996.15 37.02C996.63 38.8377 997.541 40.5133 998.804 41.9055C1000.07 43.2978 1001.65 44.366 1003.41 45.02C1010.23 48.67 1016.41 46.8 1022.41 42.9C1023.29 42.61 1024.15 41.76 1025.08 42.69C1027.83 45.42 1031.47 46.53 1034.84 48.14H1042.69C1043.1 47.49 1043.82 47.63 1044.42 47.45C1050.67 45.58 1055.77 42.17 1059.05 36.38C1060.35 34.8997 1061.08 33.0084 1061.12 31.04C1061.3 27.86 1062.44 25.58 1065.63 24.62C1069.78 22.8 1073.24 20.19 1075.37 16.07C1076.91 14.94 1076.49 12.67 1078 11.52V4.3L1077.27 3.64999ZM1048.88 -6.35001C1048.71 -6.33963 1048.54 -6.28054 1048.4 -6.17962C1048.26 -6.0787 1048.15 -5.94011 1048.09 -5.78001C1048.15 -5.94011 1048.26 -6.0787 1048.4 -6.17962C1048.54 -6.28054 1048.71 -6.33963 1048.88 -6.35001C1049.17 -6.35511 1049.46 -6.31115 1049.73 -6.22001C1049.46 -6.31115 1049.17 -6.35511 1048.88 -6.35001ZM1016.13 -10.35C1016.27 -10.4773 1016.44 -10.5481 1016.63 -10.5481C1016.82 -10.5481 1016.99 -10.4773 1017.13 -10.35C1017 -10.4828 1016.82 -10.5609 1016.64 -10.5683C1016.45 -10.5758 1016.27 -10.512 1016.13 -10.39V-10.35ZM1001.27 -3.65C1000.9 -3.65458 1000.54 -3.7153 1000.19 -3.83001C1000.54 -3.72885 1000.91 -3.68164 1001.27 -3.69001V-3.65ZM983.47 20.23C983.366 20.2594 983.27 20.3102 983.188 20.3791C983.105 20.448 983.038 20.5335 982.99 20.63C983.033 20.526 983.098 20.4328 983.181 20.3568C983.264 20.2807 983.363 20.2238 983.47 20.19V20.23ZM984.04 20.1L983.67 20.17L984.04 20.1ZM1021.77 41.1C1021.95 41.2118 1022.1 41.3673 1022.21 41.5524C1022.32 41.7376 1022.37 41.9464 1022.38 42.16C1022.38 41.943 1022.32 41.7301 1022.21 41.5412C1022.11 41.3523 1021.95 41.1936 1021.77 41.08V41.1ZM1021.43 40.96H1021.51H1021.43Z" fill="white"/>
<path opacity="0.5" d="M120.26 477.27C116.4 477.27 116.39 483.27 120.26 483.27C124.13 483.27 124.13 477.27 120.26 477.27Z" fill="white"/>
<path opacity="0.5" d="M304.25 361.78C300.39 361.78 300.38 367.78 304.25 367.78C308.12 367.78 308.12 361.78 304.25 361.78Z" fill="white"/>
<path opacity="0.5" d="M29.76 172.29C25.9 172.29 25.89 178.29 29.76 178.29C33.63 178.29 33.63 172.29 29.76 172.29Z" fill="white"/>
<path opacity="0.5" d="M306.75 86.29C302.89 86.29 302.89 92.29 306.75 92.29C310.61 92.29 310.62 86.29 306.75 86.29Z" fill="white"/>
<path opacity="0.5" d="M1105.21 376.78C1101.35 376.78 1101.34 382.78 1105.21 382.78C1109.08 382.78 1109.08 376.78 1105.21 376.78Z" fill="white"/>
<path opacity="0.5" d="M901.22 229.79C897.36 229.79 897.35 235.79 901.22 235.79C905.09 235.79 905.09 229.79 901.22 229.79Z" fill="white"/>
<path opacity="0.5" d="M1171.21 28.8C1167.35 28.8 1167.34 34.8 1171.21 34.8C1175.08 34.8 1175.07 28.8 1171.21 28.8Z" fill="white"/>
<path opacity="0.5" d="M682.23 385.78C678.37 385.78 678.36 391.78 682.23 391.78C686.1 391.78 686.1 385.78 682.23 385.78Z" fill="white"/>
<path opacity="0.5" d="M541.24 202.79C537.38 202.79 537.37 208.79 541.24 208.79C545.11 208.79 545.11 202.79 541.24 202.79Z" fill="white"/>
<path opacity="0.5" d="M445.24 565.77C441.38 565.77 441.38 571.77 445.24 571.77C449.1 571.77 449.11 565.77 445.24 565.77Z" fill="white"/>
<path opacity="0.3" d="M408.65 215.85C407.364 214.747 405.831 213.971 404.18 213.59C401.79 212.653 399.284 212.044 396.73 211.78C396.65 204.61 390.59 197.33 381.73 194.07C376.621 192.065 370.987 191.832 365.73 193.41C362.386 194.405 359.506 196.561 357.61 199.49C357.61 199.49 357.61 199.49 357.61 199.43C356.788 193.364 353.825 187.791 349.255 183.718C344.685 179.645 338.809 177.34 332.688 177.219C326.568 177.098 320.606 179.17 315.878 183.06C311.151 186.949 307.97 192.401 306.91 198.43C302.09 194.9 295.36 193.18 288.37 193.8C285.991 194.003 283.642 194.476 281.37 195.21C271.59 198.41 265.48 205.86 266.18 213.74C266.275 214.83 266.503 215.905 266.86 216.94C266.86 217.2 266.86 217.45 266.86 217.69C265.183 217.643 263.511 217.89 261.92 218.42C259.035 219.378 256.462 221.099 254.474 223.4C252.487 225.7 251.159 228.496 250.63 231.49C249.41 239.35 254.26 247.85 261.92 251.25C266.997 253.423 272.703 253.623 277.92 251.81C279.668 251.234 281.345 250.463 282.92 249.51C283.528 253.77 285.202 257.808 287.785 261.25C290.369 264.692 293.779 267.426 297.7 269.2C304.266 271.995 311.636 272.251 318.38 269.92C321.021 269.059 323.536 267.852 325.86 266.33C330.61 276.71 343.64 282.73 355.86 279.9C356.733 279.7 357.593 279.46 358.44 279.18C367.55 276.18 375.44 268.91 380.23 259.08C385.253 261.475 390.868 262.345 396.38 261.58C398.18 261.34 399.954 260.935 401.68 260.37C413.87 256.37 421.58 244.93 420.01 233.15C419.509 229.607 418.23 226.219 416.266 223.228C414.303 220.238 411.702 217.718 408.65 215.85Z" fill="white"/>
</g>
<defs>
<clipPath id="clip0">
<rect width="1194" height="834" fill="white"/>
</clipPath>
</defs>
</svg>
