<svg width="22" height="22" viewBox="0 0 22 22" fill="none" xmlns="http://www.w3.org/2000/svg">
<path d="M17.9246 9.05684H16.8821V5.8827C16.8821 2.63929 14.2434 0 11.0002 0C7.75577 0 5.11754 2.63893 5.11754 5.8827V9.05684H4.07545C3.47568 9.05684 2.98975 9.54302 2.98975 10.1425V20.9144C2.98975 21.5139 3.47568 22 4.07545 22H17.9246C18.5232 22 19.0103 21.5139 19.0103 20.9144V10.1425C19.0103 9.54302 18.5231 9.05684 17.9246 9.05684ZM7.28871 5.8827C7.28871 3.83586 8.95335 2.17123 11.0001 2.17123C13.0464 2.17123 14.7111 3.83586 14.7111 5.8827V9.05684H7.28871V5.8827Z" fill="#FFE81B"/>
</svg>
