<svg width="40" height="40" viewBox="0 0 40 40" fill="none" xmlns="http://www.w3.org/2000/svg">
<g clip-path="url(#clip0)">
<path d="M20.6803 33.923C22.2246 37.1165 29.1461 29.7897 30.2759 28.883C32.6495 26.976 35.0222 25.0698 37.3949 23.1628C38.2863 22.4468 40.0988 21.4584 39.9958 20.0562C39.8945 18.6838 38.6438 17.9653 37.7014 17.2093C35.1874 15.189 32.6725 13.1687 30.1593 11.1476C28.4395 9.76589 26.7206 8.38414 25.0001 7.0024C24.4773 6.58268 23.4846 5.38482 22.7525 5.30054C19.2917 4.9004 20.2904 9.56242 20.3823 12.0705C19.3088 13.2564 6.31795 10.4368 4.59566 10.195C3.76985 10.0792 1.27623 9.31297 0.603665 10.281C-0.320905 11.6116 0.0911506 13.7417 0.0911507 15.2384C0.0911508 18.3552 0.0911509 21.4729 0.0911511 24.5897C0.0911511 26.1417 -0.321755 28.2505 0.700721 29.6033C1.43799 30.5781 3.35865 29.9787 4.29769 29.8468C7.5771 29.387 10.8548 28.9256 14.1342 28.4659C16.1996 28.1764 18.2641 27.8861 20.3287 27.5966C20.2912 27.6009 20.2529 33.0393 20.6803 33.923ZM24.3939 31.5205C24.2517 31.6355 24.1087 31.7504 23.9657 31.8645C21.2396 34.055 21.4388 32.0688 21.6015 29.8212C21.644 29.8561 21.6823 29.8996 21.7257 29.9268C22.572 30.447 23.4191 30.9637 24.2713 31.4737C24.3079 31.495 24.353 31.5035 24.3939 31.5205ZM33.1083 24.3564C33.1458 24.3845 33.1909 24.3973 33.2318 24.4194C33.0734 24.5471 32.9151 24.6748 32.7559 24.8016C32.7269 24.7812 32.7108 24.754 32.6767 24.7361C31.8262 24.2772 30.9774 23.8132 30.1337 23.3407C25.0639 19.9881 19.983 16.6525 14.9158 13.2922C15.1737 13.328 15.43 13.3654 15.6897 13.4012C16.1647 13.6268 16.6449 13.8422 17.114 14.078C22.3336 17.1616 27.4903 20.3474 32.4366 23.8575C32.6605 24.0227 32.8836 24.1895 33.1083 24.3564ZM23.723 9.81782C24.6016 10.126 25.4785 10.4385 26.3546 10.7509C26.7981 10.9084 27.4809 11.2379 27.8776 11.4899C28.7894 12.0697 29.7029 12.6724 30.6113 13.2862C31.1128 13.6898 31.6151 14.0925 32.1165 14.4952C29.9498 13.3663 27.7891 12.2237 25.6428 11.0438C24.9839 10.6802 24.3224 10.315 23.6626 9.94978C23.2522 9.72417 23.2795 9.66373 23.723 9.81782ZM21.5572 10.7807C21.6159 10.8335 21.673 10.8914 21.7368 10.928C27.1931 14.1095 32.692 17.2195 38.225 20.2724C38.2343 20.2776 38.2446 20.2793 38.2539 20.2844C38.1535 20.4282 38.007 20.5815 37.801 20.7475C36.6568 21.667 35.5126 22.5864 34.3684 23.505C34.3351 23.471 34.3139 23.4327 34.2721 23.402C33.666 22.9576 33.0581 22.5175 32.446 22.0824C28.5102 19.1861 24.4926 16.3945 20.2784 13.9852C20.8054 13.9188 21.2507 13.6498 21.5589 12.9414C21.6117 12.8205 21.6227 12.6852 21.6083 12.5473C21.6083 12.5439 21.6091 12.5422 21.6091 12.5387C21.6091 12.2927 21.5691 11.598 21.5572 10.7807ZM6.23707 12.0748C11.0983 14.5633 15.9391 17.0892 20.7109 19.7327C22.2698 20.6053 23.8201 21.4771 25.3304 22.377C26.65 23.1602 27.9772 23.9282 29.3113 24.6867C29.8834 25.029 30.4564 25.3721 31.0259 25.7194C31.1332 25.7901 31.2405 25.8624 31.3477 25.9339C30.8191 26.3588 30.2904 26.7836 29.7617 27.2084C29.7302 27.182 29.7123 27.1497 29.674 27.1258C21.4031 22.0152 13.0879 16.9726 4.80765 11.8755C5.28441 11.9411 5.76117 12.0084 6.23707 12.0748ZM26.3256 26.8798C23.2412 25.1047 20.1737 23.305 17.1489 21.4473C13.7145 19.3394 10.3517 17.1122 6.93774 14.9796C6.5393 14.7301 6.53845 14.7284 6.93944 14.9745C13.4012 18.9426 19.8783 22.8852 26.3392 26.8577C26.7394 27.1054 26.7334 27.1148 26.3256 26.8798ZM1.57761 11.7802C1.59549 11.7512 1.61167 11.7172 1.6304 11.6917C2.50218 12.234 3.37312 12.7771 4.24576 13.3177C4.64589 13.5655 4.64504 13.5672 4.2415 13.3254C3.36035 12.7976 2.47239 12.2825 1.57761 11.7802ZM4.50457 18.5442C3.49571 18.03 2.4826 17.5251 1.46609 17.0288C1.39798 16.9956 1.33753 16.9896 1.27368 16.9777C1.25495 16.6695 1.22941 16.289 1.20813 15.8633C1.26346 15.9229 1.31795 15.9876 1.37755 16.0344C2.43918 16.8372 3.50253 17.6409 4.57523 18.4284C4.95323 18.7094 4.92343 18.7579 4.50457 18.5442ZM1.41501 22.5549C1.37669 22.5302 1.34349 22.5285 1.30688 22.5115C1.30688 21.2507 1.30688 19.9898 1.30688 18.7272C1.35967 18.7664 1.40905 18.8132 1.46609 18.8405C6.36478 21.2157 11.1528 23.8234 15.9033 26.5095C13.7733 26.8091 11.644 27.108 9.51478 27.4068C6.77853 25.8377 4.06697 24.2389 1.41501 22.5549ZM4.966 28.0453C4.78892 28.07 4.61269 28.0947 4.43646 28.1194C4.00142 28.1807 3.58 28.2777 3.19348 28.3509C2.60009 27.9772 2.00585 27.6026 1.41586 27.2246C1.37925 27.2016 1.34775 27.1948 1.31284 27.1769C1.31199 27.1386 1.30774 27.1063 1.30774 27.0671C1.30774 26.6993 1.30774 26.3307 1.30774 25.9629C1.35371 25.9986 1.39628 26.0429 1.4431 26.0693C2.61797 26.7249 3.79284 27.3838 4.966 28.0453ZM21.6645 28.0342C21.621 26.7504 21.2703 25.7569 19.9371 25.9442C19.462 26.0106 18.9878 26.0778 18.5119 26.1442C12.641 22.4221 6.92752 18.4497 1.3784 14.2661C1.30518 14.2108 1.23878 14.1853 1.17237 14.1623C1.17748 13.866 1.19025 13.5791 1.21323 13.3058C1.2873 13.3714 1.36392 13.4352 1.44565 13.482C7.83762 17.0135 13.8405 21.2847 20.1073 25.0238C22.4468 26.4201 24.8059 27.7907 27.1736 29.1461C27.2102 29.1665 27.2553 29.1733 27.2945 29.1895C26.7888 29.5956 26.283 30.0026 25.7773 30.4087C25.7475 30.3857 25.7305 30.3567 25.6948 30.3363C24.376 29.5777 23.0556 28.82 21.7377 28.0606C21.7113 28.0445 21.69 28.0453 21.6645 28.0342Z" fill="white"/>
</g>
<defs>
<clipPath id="clip0">
<rect width="40" height="40" fill="white" transform="translate(0 40) rotate(-90)"/>
</clipPath>
</defs>
</svg>
