<svg width="30" height="30" viewBox="0 0 30 30" fill="none" xmlns="http://www.w3.org/2000/svg">
<g opacity="0.8">
<path d="M17.434 1.09856C17.086 0.932558 16.676 0.976558 16.376 1.21856L6.648 9.00056H2C0.898 9.00056 0 9.89855 0 11.0006V19.0006C0 20.1046 0.898 21.0006 2 21.0006H6.648L16.374 28.7825C16.556 28.9265 16.778 29.0005 17 29.0005C17.148 29.0005 17.296 28.9665 17.434 28.9005C17.78 28.7345 18 28.3845 18 28.0005V2.00056C18 1.61656 17.78 1.26656 17.434 1.09856Z" fill="white"/>
<path d="M23.0619 7.92855C22.6679 7.54055 22.0359 7.54655 21.6479 7.93655C21.2599 8.33055 21.2639 8.96255 21.6559 9.35255C23.1679 10.8446 23.9999 12.8506 23.9999 15.0006C23.9999 17.1506 23.1679 19.1566 21.6559 20.6486C21.2639 21.0346 21.2599 21.6686 21.6479 22.0626C21.8439 22.2606 22.1019 22.3586 22.3579 22.3586C22.6119 22.3586 22.8659 22.2626 23.0619 22.0686C24.9579 20.2025 25.9999 17.6906 25.9999 15.0006C25.9999 12.3106 24.9579 9.79855 23.0619 7.92855Z" fill="white"/>
<path d="M25.884 5.11057C25.49 4.72057 24.858 4.72457 24.468 5.11657C24.08 5.50857 24.084 6.14257 24.474 6.53057C26.748 8.78457 28 11.7926 28 15.0006C28 18.2086 26.748 21.2146 24.474 23.4686C24.084 23.8586 24.08 24.4926 24.468 24.8846C24.666 25.0806 24.922 25.1786 25.178 25.1786C25.432 25.1786 25.688 25.0826 25.884 24.8886C28.54 22.2586 30 18.7466 30 15.0006C30 11.2546 28.54 7.74257 25.884 5.11057Z" fill="white"/>
</g>
</svg>
