<svg width="30" height="30" viewBox="0 0 30 30" fill="none" xmlns="http://www.w3.org/2000/svg">
<path d="M21.9141 2.29811C19.4186 2.29811 17.2309 3.41086 15.5876 5.51613C15.3685 5.79692 15.1731 6.07782 15 6.34987C14.8269 6.07776 14.6315 5.79692 14.4124 5.51613C12.7691 3.41086 10.5814 2.29811 8.08594 2.29811C3.37172 2.29811 0 6.24539 0 10.9819C0 16.3979 4.43889 21.5023 14.3928 27.5323C14.5794 27.6454 14.7897 27.7019 15 27.7019C15.2103 27.7019 15.4206 27.6454 15.6072 27.5324C25.5611 21.5023 30 16.398 30 10.982C30 6.24791 26.631 2.29811 21.9141 2.29811ZM24.56 17.7258C22.4877 20.038 19.3562 22.4727 15 25.1568C10.6438 22.4727 7.5123 20.038 5.44002 17.7258C3.35654 15.4011 2.34375 13.1951 2.34375 10.982C2.34375 7.5716 4.64848 4.64186 8.08594 4.64186C9.83648 4.64186 11.3291 5.40299 12.5224 6.90416C13.4765 8.10469 13.8785 9.34436 13.8813 9.35321C14.034 9.84276 14.4872 10.1762 15.0001 10.1762C15.5129 10.1762 15.9662 9.84282 16.1188 9.35321C16.1225 9.34137 16.5124 8.14037 17.4352 6.95819C18.6349 5.42115 20.1418 4.6418 21.9141 4.6418C25.3552 4.6418 27.6562 7.57436 27.6562 10.9819C27.6562 13.1951 26.6435 15.401 24.56 17.7258Z" fill="white"/>
</svg>
