<svg width="1194" height="834" viewBox="0 0 1194 834" fill="none" xmlns="http://www.w3.org/2000/svg">
<path d="M1197.49 -158H-2.50977V1042H1197.49V-158Z" fill="#8BC8E1"/>
<path opacity="0.2" d="M554.61 -24.7C554.495 -25.7809 554.16 -26.8269 553.627 -27.7742C553.094 -28.7216 552.374 -29.5504 551.51 -30.21C551.341 -30.7155 551.033 -31.1629 550.62 -31.5008C550.208 -31.8387 549.709 -32.0534 549.18 -32.12C546.27 -34.91 539.45 -35.21 535.57 -32.75C535.424 -32.7699 535.276 -32.7699 535.13 -32.75C534.88 -33.35 534.63 -33.95 534.37 -34.55C534.213 -35.6478 533.806 -36.6948 533.18 -37.61C533.208 -37.8496 533.167 -38.0922 533.06 -38.3087C532.954 -38.5252 532.787 -38.7062 532.58 -38.83C531.17 -41.66 529.5 -44.25 526.44 -45.58C525.76 -46.74 524.18 -46.43 523.39 -47.42H517.26C516.02 -46.28 514.09 -46.34 512.98 -44.97C511.211 -44.199 509.699 -42.9398 508.62 -41.34L511.31 -40.03L514.2 -43.12C514.2 -43.93 514.2 -44.75 513.25 -44.93C514.25 -44.75 514.2 -43.93 514.2 -43.12C516.369 -43.0558 518.482 -42.4137 520.32 -41.26C521.41 -42.26 521.69 -42.47 522.32 -42.03C521.66 -42.47 521.38 -42.22 520.32 -41.26L523.91 -38.26H525.23C525.503 -38.2681 525.774 -38.3015 526.04 -38.36C525.774 -38.3015 525.503 -38.2681 525.23 -38.26H523.89L527.02 -32.69C527.01 -32.5869 527.01 -32.4831 527.02 -32.38C528.24 -26.84 528.24 -26.84 533.28 -29.38C537.2 -31.38 543.44 -28.98 546.18 -24.54C547.33 -22.68 547.69 -20.54 548.43 -18.6C549.316 -18.3458 550.125 -17.8769 550.786 -17.235C551.447 -16.5931 551.94 -15.7979 552.22 -14.92C551.94 -15.7979 551.447 -16.5931 550.786 -17.235C550.125 -17.8769 549.316 -18.3458 548.43 -18.6C548.03 -13.66 547.34 -8.88001 541.75 -6.91001C541.949 -6.50034 542.173 -6.10295 542.42 -5.72001C542.173 -6.10295 541.949 -6.50034 541.75 -6.91001C538.891 -7.20645 536.016 -6.52998 533.59 -4.99001C532.36 -4.22001 531.53 -3.19001 532.04 -1.7C532.89 0.789997 532.45 3.29999 532.53 5.86999C532.07 6.86999 531.6 7.86999 531.15 8.86999C529.33 12.92 525.72 12.87 522.15 12.77C522.55 13.15 523.27 13.33 523.69 13.7C523.78 13.7779 523.857 13.8689 523.92 13.97C523.857 13.8689 523.78 13.7779 523.69 13.7C523.27 13.33 522.55 13.15 522.15 12.77C517.959 11.87 514.173 9.63482 511.36 6.39999C509.73 4.45999 508.28 4.61 506.42 5.82C504.666 7.02158 503.116 8.49702 501.83 10.19C494.66 14.31 485.53 7.03999 484.74 0.579994C484.46 -1.77 483.22 -3.5 480.79 -3.12C474.79 -2.17 470.92 -5.17001 467.5 -9.39001L466.27 -12.46C466.08 -13.27 465.9 -14.09 465.72 -14.91C465.77 -17.02 465.72 -19.16 466.91 -21.05C468.91 -24.36 470.85 -25.18 474.71 -24.31C481.65 -22.74 484.6 -25.02 484.78 -32.08C485.38 -33.98 486 -35.88 486.6 -37.78C486.785 -38.5131 487.168 -39.1811 487.708 -39.7104C488.248 -40.2397 488.923 -40.6098 489.66 -40.78C492.66 -40.96 494.86 -39.39 497.02 -37.65C497.087 -37.7449 497.168 -37.8292 497.26 -37.9C497.168 -37.8292 497.087 -37.7449 497.02 -37.65L501.74 -32.53C501.997 -32.1493 502.391 -31.882 502.839 -31.7834C503.288 -31.6847 503.757 -31.7623 504.15 -32C506.21 -33.09 508.43 -34 509.28 -36.43C510.18 -37.4959 510.86 -38.7297 511.28 -40.06L508.59 -41.37C507 -39.27 505.41 -39.43 503.83 -41.37C500.05 -45.37 495.83 -46.15 490.83 -43.81C488.19 -43.1444 485.822 -41.6771 484.05 -39.61C481.758 -37.8966 480.095 -35.4747 479.32 -32.72C478.93 -29.72 476.9 -28.83 474.17 -28.23C471.074 -27.5331 468.197 -26.0875 465.79 -24.02L466.15 -23.07L465.79 -24.02L465.16 -23.47C462.899 -22.0388 461.173 -19.9017 460.25 -17.39C460.191 -17.2295 460.157 -17.0608 460.15 -16.89L459 -15.56V-8.81001L460.15 -7.47001C460.32 -7.09001 460.48 -6.7 460.65 -6.31001C460.849 -5.38532 461.352 -4.5542 462.08 -3.95C463.186 -2.23414 464.716 -0.83279 466.522 0.118477C468.328 1.06974 470.349 1.53871 472.39 1.47999C475.84 1.38999 477.82 2.14999 478.05 5.8C478.05 6.05999 478.35 6.29999 478.52 6.55999C478.976 8.25307 479.83 9.81259 481.011 11.1085C482.193 12.4045 483.666 13.3993 485.31 14.01C491.71 17.44 497.53 15.68 503.15 12.01C503.97 11.73 504.78 10.94 505.65 11.81C508.22 14.37 511.65 15.41 514.8 16.92H522.16C522.54 16.31 523.21 16.44 523.78 16.27C529.64 14.52 534.42 11.27 537.5 5.88999C538.716 4.50412 539.403 2.73323 539.44 0.889992C539.6 -2.11001 540.68 -4.23001 543.67 -5.11001C547.56 -6.82001 550.8 -9.26001 552.8 -13.11C554.24 -14.17 553.85 -16.3 555.27 -17.38V-24.12L554.61 -24.7ZM527.99 -34.07C527.829 -34.0621 527.673 -34.0079 527.542 -33.9139C527.411 -33.8199 527.309 -33.6901 527.25 -33.54C527.309 -33.6901 527.411 -33.8199 527.542 -33.9139C527.673 -34.0079 527.829 -34.0621 527.99 -34.07C528.262 -34.0849 528.534 -34.0441 528.79 -33.95C528.534 -34.0441 528.262 -34.0849 527.99 -34.07ZM497.29 -37.86C497.412 -37.971 497.57 -38.0326 497.735 -38.0326C497.9 -38.0326 498.058 -37.971 498.18 -37.86C498.058 -37.971 497.9 -38.0326 497.735 -38.0326C497.57 -38.0326 497.412 -37.971 497.29 -37.86ZM483.35 -31.58C483.01 -31.5896 482.674 -31.6468 482.35 -31.75C482.674 -31.6468 483.01 -31.5896 483.35 -31.58ZM466.66 -9.19001C466.562 -9.1638 466.47 -9.11614 466.392 -9.05044C466.315 -8.98474 466.252 -8.90263 466.21 -8.81001C466.252 -8.90263 466.315 -8.98474 466.392 -9.05044C466.47 -9.11614 466.562 -9.1638 466.66 -9.19001ZM467.19 -9.31001L466.85 -9.25001L467.19 -9.31001ZM502.58 10.39C502.748 10.4987 502.886 10.6465 502.984 10.8208C503.081 10.995 503.135 11.1904 503.14 11.39C503.135 11.1904 503.081 10.995 502.984 10.8208C502.886 10.6465 502.748 10.4987 502.58 10.39ZM502.26 10.27H502.33H502.26Z" fill="white"/>
<path opacity="0.2" d="M1077.27 3.64999C1077.15 2.49783 1076.79 1.38283 1076.22 0.372246C1075.65 -0.63834 1074.89 -1.52356 1073.97 -2.23C1073.79 -2.76402 1073.45 -3.23506 1073.01 -3.58889C1072.57 -3.94272 1072.04 -4.16495 1071.48 -4.23C1068.38 -7.23 1061.1 -7.53001 1056.96 -4.91001C1056.81 -4.93466 1056.65 -4.93466 1056.5 -4.91001L1055.69 -6.84C1055.52 -8.00561 1055.08 -9.11696 1054.42 -10.09C1054.45 -10.3479 1054.4 -10.6089 1054.29 -10.8415C1054.17 -11.0741 1053.99 -11.2681 1053.77 -11.4C1052.27 -14.4 1050.49 -17.17 1047.23 -18.59C1046.5 -19.84 1044.82 -19.5 1043.98 -20.59H1037.44C1036.11 -19.37 1034.05 -19.44 1032.87 -17.97C1030.98 -17.1513 1029.37 -15.8082 1028.22 -14.1L1031.09 -12.71L1034.17 -16.01C1034.17 -16.87 1034.17 -17.74 1033.17 -17.93C1034.17 -17.74 1034.17 -16.87 1034.17 -16.01C1036.57 -16.09 1038.65 -15.1 1040.7 -14.01C1041.86 -15.01 1042.16 -15.3 1042.86 -14.83C1042.16 -15.3 1041.86 -15.03 1040.7 -14L1044.52 -10.76H1045.94C1046.23 -10.7664 1046.52 -10.8033 1046.8 -10.87C1046.52 -10.8033 1046.23 -10.7664 1045.94 -10.76H1044.52L1047.87 -4.82001C1047.86 -4.71024 1047.86 -4.59979 1047.87 -4.49001C1049.18 1.41999 1049.18 1.41999 1054.56 -1.33001C1058.73 -3.46001 1065.39 -0.900005 1068.32 3.82999C1069.54 5.82999 1069.93 8.04999 1070.71 10.17C1071.65 10.4498 1072.5 10.954 1073.2 11.639C1073.89 12.3239 1074.41 13.1687 1074.71 14.1C1074.41 13.1687 1073.89 12.3239 1073.2 11.639C1072.5 10.954 1071.65 10.4498 1070.71 10.17C1070.29 15.44 1069.55 20.53 1063.59 22.63C1063.8 23.0674 1064.04 23.4915 1064.3 23.9C1064.04 23.4915 1063.8 23.0674 1063.59 22.63C1060.54 22.3144 1057.48 23.0367 1054.89 24.68C1053.57 25.51 1052.69 26.6 1053.23 28.19C1054.14 30.85 1053.67 33.57 1053.75 36.26C1053.26 37.32 1052.75 38.38 1052.28 39.45C1050.34 43.76 1046.49 43.68 1042.66 43.6C1043.08 44.01 1043.84 44.2 1044.29 44.6C1044.39 44.682 1044.47 44.7801 1044.53 44.89C1044.47 44.7801 1044.39 44.682 1044.29 44.6C1043.84 44.21 1043.08 44.02 1042.66 43.6C1038.19 42.6435 1034.15 40.2606 1031.15 36.81C1029.41 34.74 1027.86 34.9 1025.87 36.19C1024 37.4724 1022.35 39.0456 1020.98 40.85C1013.34 45.25 1003.59 37.49 1002.76 30.6C1002.45 28.1 1001.13 26.25 998.55 26.66C992.18 27.66 988.01 24.47 984.36 19.97C983.93 18.88 983.49 17.79 983.05 16.7C982.86 15.83 982.66 14.95 982.47 14.08C982.47 11.83 982.47 9.54999 983.73 7.52999C985.85 3.99999 987.94 3.12999 992.06 4.05999C999.45 5.72999 1002.61 3.3 1002.79 -4.23L1004.79 -10.31C1004.99 -11.0833 1005.41 -11.7862 1005.98 -12.343C1006.56 -12.8998 1007.27 -13.2894 1008.05 -13.47C1011.22 -13.66 1013.6 -11.98 1015.9 -10.13C1015.98 -10.2294 1016.06 -10.3199 1016.16 -10.4C1016.06 -10.3199 1015.98 -10.2294 1015.9 -10.13C1017.58 -8.31001 1019.25 -6.48668 1020.9 -4.66001C1021.18 -4.2561 1021.6 -3.97405 1022.08 -3.87177C1022.56 -3.7695 1023.06 -3.85474 1023.48 -4.11001C1025.67 -5.26001 1028.04 -6.18001 1028.94 -8.82001C1029.91 -9.9594 1030.64 -11.2777 1031.1 -12.7L1028.23 -14.09C1026.53 -11.86 1024.84 -12.02 1023.16 -14.09C1019.16 -18.35 1014.58 -19.2 1009.27 -16.69C1006.46 -15.9853 1003.93 -14.4233 1002.04 -12.22C999.615 -10.3823 997.859 -7.80063 997.04 -4.87C996.63 -1.64 994.46 -0.720009 991.55 -0.0800095C988.248 0.662821 985.178 2.20456 982.61 4.41L983 5.41L982.61 4.41L981.94 4.99999C979.535 6.52554 977.698 8.79866 976.71 11.47C976.644 11.6427 976.607 11.8252 976.6 12.01L975.37 13.43V20.63L976.6 22.05L977.13 23.3C977.344 24.2874 977.883 25.1746 978.66 25.82C979.841 27.6496 981.474 29.1438 983.401 30.158C985.327 31.1723 987.483 31.6724 989.66 31.61C993.33 31.51 995.44 32.32 995.66 36.21C995.66 36.49 995.98 36.75 996.15 37.02C996.631 38.8377 997.541 40.5133 998.804 41.9055C1000.07 43.2978 1001.65 44.366 1003.41 45.02C1010.23 48.67 1016.41 46.8 1022.41 42.9C1023.29 42.61 1024.15 41.76 1025.08 42.69C1027.83 45.42 1031.47 46.53 1034.84 48.14H1042.69C1043.1 47.49 1043.82 47.63 1044.42 47.45C1050.67 45.58 1055.77 42.17 1059.05 36.38C1060.35 34.8997 1061.08 33.0084 1061.12 31.04C1061.3 27.86 1062.44 25.58 1065.63 24.62C1069.78 22.8 1073.24 20.19 1075.37 16.07C1076.91 14.94 1076.49 12.67 1078 11.52V4.3L1077.27 3.64999ZM1048.88 -6.35001C1048.71 -6.33963 1048.54 -6.28054 1048.4 -6.17962C1048.26 -6.0787 1048.15 -5.94011 1048.09 -5.78001C1048.15 -5.94011 1048.26 -6.0787 1048.4 -6.17962C1048.54 -6.28054 1048.71 -6.33963 1048.88 -6.35001C1049.17 -6.35511 1049.46 -6.31115 1049.73 -6.22001C1049.46 -6.31115 1049.17 -6.35511 1048.88 -6.35001ZM1016.13 -10.35C1016.27 -10.4773 1016.44 -10.5481 1016.63 -10.5481C1016.82 -10.5481 1016.99 -10.4773 1017.13 -10.35C1017 -10.4828 1016.82 -10.5609 1016.64 -10.5683C1016.45 -10.5758 1016.27 -10.512 1016.13 -10.39V-10.35ZM1001.27 -3.65C1000.9 -3.65458 1000.54 -3.7153 1000.19 -3.83001C1000.54 -3.72885 1000.91 -3.68164 1001.27 -3.69001V-3.65ZM983.47 20.23C983.367 20.2594 983.27 20.3102 983.188 20.3791C983.105 20.448 983.038 20.5335 982.99 20.63C983.033 20.526 983.098 20.4328 983.181 20.3568C983.264 20.2807 983.363 20.2238 983.47 20.19V20.23ZM984.04 20.1L983.67 20.17L984.04 20.1ZM1021.77 41.1C1021.95 41.2118 1022.1 41.3673 1022.21 41.5524C1022.32 41.7376 1022.37 41.9464 1022.38 42.16C1022.38 41.943 1022.32 41.7301 1022.21 41.5412C1022.11 41.3523 1021.96 41.1936 1021.77 41.08V41.1ZM1021.43 40.96H1021.51H1021.43Z" fill="white"/>
<g style="mix-blend-mode:multiply" opacity="0.5">
<g style="mix-blend-mode:multiply" opacity="0.5">
<path d="M927.971 147.468C916.626 147.468 906.234 140.433 902.964 130.825C898.58 133.045 893.739 134.211 888.825 134.232C883.988 134.273 879.226 133.039 875.018 130.655C865.7 125.264 860.667 113.757 863.298 103.885C865.675 95.0013 874.371 88.3067 883.459 88.3067C884.265 88.308 885.071 88.3649 885.869 88.477C885.869 88.1789 885.869 87.8893 885.869 87.6253C885.557 86.2538 885.411 84.8497 885.435 83.4433C885.674 70.8631 898.944 61 915.655 61H916.438C925.807 61.1789 934.427 64.5177 940.099 70.0369C942.57 65.5483 947.765 62.8823 954.102 62.8823C958.061 62.9213 961.957 63.8714 965.49 65.659C973.828 69.7899 979.024 77.5833 978.377 84.6272C980.838 85.1551 983.216 86.0147 985.446 87.1824C987.036 87.7287 988.469 88.6556 989.619 89.8824C992.427 92.0431 994.723 94.7973 996.342 97.9482C997.962 101.099 998.866 104.569 998.989 108.11C999.329 121.797 987.55 133.236 972.729 133.602H971.98C966.745 133.631 961.606 132.197 957.143 129.463C950.84 139.453 941.173 146.088 931.011 147.349C930.001 147.447 928.986 147.487 927.971 147.468Z" fill="white"/>
</g>
<g style="mix-blend-mode:multiply" opacity="0.5">
<path d="M927.486 147.86C916.141 147.86 905.758 140.825 902.479 131.209C898.098 133.428 893.259 134.594 888.348 134.616C883.509 134.656 878.745 133.423 874.533 131.038C865.224 125.638 860.19 114.131 862.822 104.26C865.19 95.3846 873.894 88.6899 882.974 88.6899C883.78 88.6881 884.586 88.7422 885.384 88.8518C885.384 88.5622 885.384 88.2641 885.384 88C885.079 86.6276 884.936 85.2239 884.959 83.818C885.197 71.2379 898.467 61.3833 915.178 61.3833H915.953C925.322 61.5536 933.95 64.8924 939.623 70.4202C942.093 65.923 947.289 63.2571 953.617 63.2571C957.578 63.3002 961.476 64.2501 965.013 66.0338C973.343 70.1647 978.539 77.9581 977.891 85.0104C980.356 85.5368 982.737 86.3964 984.969 87.5657C986.556 88.1154 987.985 89.0419 989.134 90.2657C991.944 92.4268 994.24 95.1823 995.86 98.3349C997.48 101.487 998.382 104.959 998.504 108.501C998.853 122.18 987.073 133.619 972.244 133.994H971.503C966.269 134.02 961.131 132.586 956.666 129.854C950.355 139.837 940.688 146.472 930.535 147.741C929.522 147.843 928.504 147.883 927.486 147.86Z" fill="#EEEEEE"/>
</g>
<g style="mix-blend-mode:multiply" opacity="0.5">
<path d="M926.974 148.243C915.629 148.243 905.237 141.208 901.967 131.6C897.583 133.82 892.742 134.986 887.828 135.007C882.991 135.048 878.229 133.814 874.021 131.43C864.703 126.039 859.669 114.523 862.301 104.652C864.678 95.7764 873.374 89.0817 882.462 89.0817C883.265 89.0842 884.067 89.1382 884.864 89.2436C884.864 88.954 884.864 88.6559 884.906 88.3918C884.601 87.0222 884.458 85.6214 884.481 84.2183C884.719 71.6297 897.989 61.7751 914.7 61.7751H915.484C924.853 61.9539 933.472 65.2927 939.145 70.812C941.615 66.3148 946.811 63.6489 953.148 63.6489C957.106 63.6921 961.001 64.642 964.535 66.4256C972.874 70.565 978.069 78.3499 977.422 85.4022C979.883 85.9302 982.261 86.7898 984.491 87.9574C986.082 88.5038 987.515 89.4307 988.665 90.6575C991.473 92.8181 993.768 95.5724 995.388 98.7233C997.007 101.874 997.911 105.344 998.034 108.885C998.375 122.572 986.595 134.002 971.775 134.377H971.025C965.791 134.406 960.652 132.972 956.188 130.238C949.885 140.229 940.218 146.864 930.057 148.124C929.032 148.224 928.003 148.263 926.974 148.243Z" fill="#DDDDDD"/>
</g>
<g style="mix-blend-mode:multiply" opacity="0.5">
<path d="M926.454 148.635C915.109 148.635 904.727 141.6 901.447 131.984C897.066 134.203 892.228 135.369 887.317 135.391C882.477 135.429 877.712 134.192 873.502 131.805C864.193 126.413 859.159 114.906 861.791 105.035C864.158 96.1597 872.863 89.465 881.943 89.465C882.749 89.4632 883.554 89.5173 884.353 89.6269C884.353 89.3288 884.353 89.0392 884.396 88.7751C884.09 87.4027 883.947 85.999 883.97 84.5931C884.2 72.013 897.478 62.1584 914.189 62.1584H914.965C924.334 62.3372 932.962 65.676 938.634 71.1953C941.104 66.7066 946.3 64.0407 952.628 64.0407C956.587 64.0827 960.483 65.0327 964.016 66.8174C972.355 70.9483 977.55 78.7417 976.903 85.7855C979.366 86.3162 981.747 87.1756 983.981 88.3408C985.569 88.8871 986.999 89.8141 988.146 91.0408C990.953 93.2018 993.248 95.9562 994.868 99.107C996.487 102.258 997.391 105.727 997.515 109.268C997.864 122.955 986.085 134.394 971.256 134.769H970.557C965.322 134.795 960.183 133.359 955.72 130.621C949.409 140.612 939.742 147.247 929.589 148.507C928.548 148.611 927.501 148.654 926.454 148.635Z" fill="#CCCCCC"/>
</g>
<g style="mix-blend-mode:multiply" opacity="0.5">
<path d="M925.944 149.018C914.599 149.018 904.208 141.983 900.937 132.376C896.553 134.595 891.712 135.762 886.798 135.782C881.962 135.823 877.2 134.589 872.991 132.205C863.673 126.814 858.64 115.298 861.272 105.427C863.648 96.5515 872.344 89.8568 881.432 89.8568C882.236 89.855 883.038 89.9091 883.834 90.0187C883.834 89.7291 883.834 89.431 883.877 89.1669C883.571 87.7973 883.429 86.3965 883.451 84.9934C883.689 72.4047 896.959 62.5502 913.67 62.5502H914.454C923.823 62.729 932.443 66.0678 938.115 71.5871C940.585 67.0899 945.781 64.424 952.118 64.424C956.076 64.4672 959.972 65.4171 963.505 67.2006C971.844 71.3316 977.031 79.1249 976.392 86.1773C978.854 86.705 981.232 87.5646 983.462 88.7325C985.053 89.2819 986.485 90.2117 987.635 91.4411C990.444 93.6009 992.74 96.355 994.36 99.506C995.979 102.657 996.883 106.127 997.004 109.668C997.345 123.347 985.565 134.786 970.745 135.161H969.996C964.761 135.189 959.622 133.756 955.158 131.021C948.856 141.012 939.188 147.647 929.027 148.908C928.003 149.009 926.973 149.046 925.944 149.018Z" fill="#BBBBBB"/>
</g>
<g style="mix-blend-mode:multiply" opacity="0.5">
<path d="M925.416 149.402C914.071 149.402 903.688 142.366 900.409 132.759C896.025 134.979 891.184 136.146 886.27 136.166C881.434 136.205 876.672 134.972 872.463 132.588C863.162 127.18 858.129 115.664 860.76 105.81C863.128 96.9262 871.79 90.2316 880.912 90.2316C881.719 90.2326 882.524 90.2895 883.323 90.4019C883.323 90.1038 883.323 89.8142 883.323 89.5076C883.018 88.138 882.875 86.7372 882.897 85.3341C883.127 72.754 896.406 62.8909 913.117 62.8909H913.892C923.261 63.0697 931.889 66.4085 937.561 71.9278C940.032 67.4391 945.227 64.7732 951.556 64.7732C955.513 64.8122 959.409 65.7593 962.943 67.5413C971.282 71.6808 976.477 79.4656 975.83 86.518C978.294 87.046 980.675 87.9055 982.908 89.0732C984.496 89.6195 985.926 90.5466 987.073 91.7732C989.881 93.9339 992.176 96.6881 993.796 99.839C995.415 102.99 996.319 106.46 996.442 110C996.791 123.688 985.012 135.127 970.183 135.493H969.442C964.225 135.515 959.106 134.084 954.656 131.362C948.344 141.353 938.677 147.988 928.525 149.248C927.492 149.36 926.454 149.411 925.416 149.402Z" fill="#AAAAAA"/>
</g>
<g style="mix-blend-mode:multiply" opacity="0.5">
<path d="M924.913 149.794C913.568 149.794 903.176 142.758 899.906 133.142C895.522 135.361 890.681 136.528 885.767 136.549C880.93 136.591 876.168 135.357 871.96 132.972C862.642 127.572 857.608 116.065 860.24 106.193C862.617 97.3181 871.313 90.6234 880.401 90.6234C881.204 90.6216 882.007 90.6757 882.803 90.7852C882.803 90.4956 882.803 90.1975 882.803 89.9335C882.497 88.5611 882.354 87.1574 882.377 85.7515C882.615 73.1713 895.885 63.3167 912.597 63.3167H913.38C922.749 63.4871 931.369 66.8259 937.041 72.3451C939.511 67.8565 944.707 65.1905 951.044 65.1905C955.002 65.2338 958.898 66.1836 962.432 67.9672C970.77 72.0981 975.957 79.8915 975.318 86.9439C977.78 87.4716 980.158 88.3312 982.388 89.4991C983.977 90.0485 985.409 90.975 986.561 92.1991C989.369 94.3615 991.665 97.1173 993.285 100.27C994.904 103.422 995.808 106.893 995.93 110.435C996.271 124.114 984.492 135.552 969.671 135.927H968.922C963.688 135.952 958.55 134.519 954.085 131.788C947.782 141.77 938.106 148.405 927.953 149.674C926.943 149.776 925.928 149.816 924.913 149.794Z" fill="#999999"/>
</g>
<g style="mix-blend-mode:multiply" opacity="0.5">
<path d="M924.393 150.177C913.048 150.177 902.665 143.141 899.386 133.534C895.003 135.754 890.161 136.921 885.247 136.941C880.411 136.98 875.649 135.747 871.441 133.364C862.131 127.972 857.089 116.457 859.729 106.585C860.988 102.179 863.622 98.2915 867.248 95.4901C870.874 92.6888 875.301 91.1207 879.881 91.0152C880.687 91.0176 881.493 91.0717 882.292 91.177C882.292 90.8874 882.292 90.5893 882.292 90.3253C881.987 88.9557 881.844 87.5548 881.866 86.1518C882.096 73.5631 895.374 63.7085 912.077 63.7085H912.861C922.23 63.8874 930.858 67.2262 936.53 72.7454C939 68.2483 944.196 65.5824 950.524 65.5824C954.495 65.6099 958.406 66.5512 961.955 68.3335C970.293 72.4729 975.489 80.2578 974.841 87.3101C977.305 87.8381 979.686 88.6976 981.919 89.8654C983.507 90.4117 984.937 91.3387 986.084 92.5654C988.892 94.726 991.188 97.4803 992.807 100.631C994.427 103.782 995.331 107.252 995.453 110.793C995.803 124.48 984.023 135.91 969.194 136.285H968.453C963.219 136.314 958.08 134.88 953.616 132.146C947.305 142.136 937.638 148.771 927.485 150.032C926.458 150.144 925.426 150.192 924.393 150.177Z" fill="#888888"/>
</g>
<g style="mix-blend-mode:multiply" opacity="0.5">
<path d="M923.882 150.569C912.537 150.569 902.146 143.533 898.875 133.917C894.491 136.136 889.65 137.303 884.736 137.324C879.889 137.365 875.118 136.125 870.904 133.73C861.586 128.338 856.552 116.831 859.184 106.96C860.444 102.553 863.08 98.6653 866.708 95.864C870.335 93.0628 874.763 91.495 879.345 91.39C880.148 91.3881 880.951 91.4422 881.747 91.5518C881.747 91.2537 881.747 90.9641 881.747 90.7C881.441 89.3276 881.298 87.9239 881.321 86.518C881.559 73.9379 894.829 64.0833 911.54 64.0833H912.324C921.651 64.2621 930.313 67.601 935.985 73.1202C938.455 68.6316 943.651 65.9656 949.988 65.9656C953.947 66.0046 957.843 66.9547 961.375 68.7423C969.714 72.8732 974.901 80.6666 974.254 87.7105C976.717 88.2411 979.098 89.1005 981.332 90.2657C982.922 90.812 984.355 91.7389 985.505 92.9657C988.312 95.1268 990.608 97.8811 992.227 101.032C993.847 104.183 994.751 107.652 994.874 111.193C995.215 124.88 983.435 136.319 968.615 136.694H967.866C962.63 136.72 957.491 135.283 953.028 132.546C946.726 142.537 937.05 149.172 926.897 150.432C925.896 150.535 924.889 150.58 923.882 150.569Z" fill="#777777"/>
</g>
<g style="mix-blend-mode:multiply" opacity="0.5">
<path d="M923.363 150.952C912.018 150.952 901.627 143.917 898.356 134.309C893.972 136.529 889.131 137.696 884.217 137.716C879.381 137.755 874.619 136.522 870.41 134.139C861.101 128.739 856.059 117.232 858.699 107.36C859.957 102.954 862.592 99.0666 866.218 96.2652C869.844 93.4639 874.27 91.8958 878.851 91.7903C879.657 91.7885 880.463 91.8425 881.261 91.9521C881.261 91.6625 881.262 91.3644 881.304 91.1004C880.995 89.7314 880.852 88.3301 880.878 86.9269C881.108 74.3382 894.387 64.4836 911.089 64.4836H911.873C921.242 64.654 929.862 68.0013 935.543 73.5205C938.004 69.0234 943.208 66.3574 949.537 66.3574C953.495 66.3994 957.391 67.3494 960.924 69.1341C969.263 73.265 974.459 81.0584 973.811 88.1108C976.275 88.6384 978.656 89.498 980.889 90.666C982.475 91.2157 983.905 92.1422 985.054 93.366C987.862 95.5284 990.158 98.2841 991.777 101.436C993.397 104.589 994.3 108.06 994.423 111.602C994.772 125.281 982.993 136.719 968.164 137.094H967.415C962.18 137.123 957.041 135.689 952.577 132.955C946.275 142.946 936.607 149.581 926.455 150.841C925.427 150.942 924.395 150.979 923.363 150.952Z" fill="#666666"/>
</g>
</g>
<path opacity="0.5" d="M120.26 477.27C116.4 477.27 116.39 483.27 120.26 483.27C124.13 483.27 124.13 477.27 120.26 477.27Z" fill="white"/>
<path opacity="0.5" d="M304.25 361.78C300.39 361.78 300.38 367.78 304.25 367.78C308.12 367.78 308.12 361.78 304.25 361.78Z" fill="white"/>
<path opacity="0.5" d="M29.7601 172.29C25.9001 172.29 25.8901 178.29 29.7601 178.29C33.6301 178.29 33.6301 172.29 29.7601 172.29Z" fill="white"/>
<path opacity="0.5" d="M306.75 86.29C302.89 86.29 302.89 92.29 306.75 92.29C310.61 92.29 310.62 86.29 306.75 86.29Z" fill="white"/>
<path opacity="0.5" d="M1105.21 376.78C1101.35 376.78 1101.34 382.78 1105.21 382.78C1109.08 382.78 1109.08 376.78 1105.21 376.78Z" fill="white"/>
<path opacity="0.5" d="M901.22 229.79C897.36 229.79 897.35 235.79 901.22 235.79C905.09 235.79 905.09 229.79 901.22 229.79Z" fill="white"/>
<path opacity="0.5" d="M1171.21 28.8C1167.35 28.8 1167.34 34.8 1171.21 34.8C1175.08 34.8 1175.07 28.8 1171.21 28.8Z" fill="white"/>
<path opacity="0.5" d="M682.23 385.78C678.37 385.78 678.36 391.78 682.23 391.78C686.1 391.78 686.1 385.78 682.23 385.78Z" fill="white"/>
<path opacity="0.5" d="M541.24 202.79C537.38 202.79 537.37 208.79 541.24 208.79C545.11 208.79 545.11 202.79 541.24 202.79Z" fill="white"/>
<path opacity="0.5" d="M445.24 565.77C441.38 565.77 441.38 571.77 445.24 571.77C449.1 571.77 449.11 565.77 445.24 565.77Z" fill="white"/>
<g style="mix-blend-mode:multiply" opacity="0.5">
<g style="mix-blend-mode:multiply" opacity="0.5">
<path d="M270.158 215.87C259.946 215.87 250.595 209.547 247.647 200.852C243.708 202.856 239.356 203.914 234.937 203.943C230.581 203.979 226.292 202.863 222.504 200.71C214.118 195.857 209.589 185.495 211.961 176.611C213.092 172.645 215.463 169.144 218.727 166.623C221.991 164.101 225.977 162.69 230.1 162.597C230.825 162.6 231.548 162.65 232.266 162.747C232.266 162.479 232.266 162.218 232.266 161.957C231.985 160.723 231.855 159.46 231.879 158.195C232.092 146.868 244.035 138 259.076 138H259.78C268.174 138.158 275.967 141.162 281.073 146.133C283.294 142.086 287.965 139.691 293.672 139.691C297.243 139.724 300.759 140.579 303.947 142.189C311.448 145.904 316.119 152.907 315.542 159.262C317.76 159.736 319.903 160.51 321.913 161.562C323.34 162.055 324.626 162.888 325.659 163.988C328.189 165.932 330.257 168.411 331.717 171.248C333.176 174.085 333.99 177.209 334.101 180.397C334.409 192.711 323.826 203.002 310.468 203.318H309.796C305.085 203.342 300.462 202.05 296.446 199.588C290.787 208.614 282.085 214.59 272.94 215.728C272.016 215.831 271.087 215.878 270.158 215.87Z" fill="white"/>
</g>
<g style="mix-blend-mode:multiply" opacity="0.5">
<path d="M269.714 216.218C259.502 216.218 250.152 209.895 247.212 201.2C243.265 203.195 238.908 204.242 234.486 204.259C230.133 204.296 225.847 203.183 222.061 201.034C213.675 196.181 209.146 185.819 211.517 176.935C212.65 172.969 215.021 169.47 218.285 166.948C221.549 164.427 225.534 163.016 229.657 162.921C230.381 162.924 231.105 162.974 231.822 163.071C231.822 162.811 231.822 162.542 231.862 162.281C231.585 161.047 231.455 159.784 231.475 158.519C231.664 147.216 243.631 138.348 258.649 138.348H259.352C267.746 138.506 275.539 141.509 280.645 146.481C282.866 142.434 287.538 140.039 293.244 140.039C296.816 140.071 300.332 140.926 303.519 142.537C311.02 146.252 315.7 153.255 315.115 159.609C317.333 160.084 319.476 160.858 321.485 161.91C322.913 162.401 324.199 163.234 325.232 164.336C327.761 166.28 329.83 168.759 331.289 171.596C332.748 174.432 333.562 177.557 333.673 180.745C333.981 193.059 323.398 203.35 310.04 203.666H309.368C304.658 203.69 300.034 202.398 296.019 199.936C290.344 208.93 281.641 214.898 272.496 216.004C271.574 216.131 270.645 216.203 269.714 216.218Z" fill="#EEEEEE"/>
</g>
<g style="mix-blend-mode:multiply" opacity="0.5">
<path d="M269.224 216.566C259.02 216.566 249.67 210.242 246.722 201.548C242.775 203.543 238.418 204.59 233.996 204.607C229.643 204.643 225.357 203.531 221.571 201.382C213.193 196.529 208.656 186.167 211.027 177.283C212.161 173.318 214.533 169.819 217.796 167.298C221.06 164.776 225.044 163.365 229.167 163.269C229.891 163.271 230.615 163.321 231.333 163.419C231.333 163.158 231.333 162.89 231.372 162.629C231.095 161.394 230.965 160.132 230.985 158.867C231.198 147.54 243.149 138.672 258.182 138.672H258.886C267.288 138.83 275.081 141.833 280.187 146.805C282.408 142.758 287.079 140.363 292.778 140.363C296.35 140.395 299.866 141.25 303.053 142.861C310.562 146.576 315.233 153.579 314.648 159.934C316.867 160.407 319.01 161.181 321.019 162.234C322.449 162.726 323.737 163.559 324.773 164.66C327.301 166.606 329.367 169.085 330.825 171.922C332.283 174.758 333.096 177.882 333.207 181.069C333.523 193.383 322.932 203.674 309.582 203.99H308.91C304.197 204.016 299.57 202.724 295.552 200.26C289.877 209.254 281.175 215.222 272.038 216.328C271.106 216.464 270.166 216.544 269.224 216.566Z" fill="#DDDDDD"/>
</g>
<g style="mix-blend-mode:multiply" opacity="0.5">
<path d="M268.766 216.913C258.554 216.913 249.204 210.59 246.255 201.896C242.311 203.889 237.957 204.936 233.538 204.955C229.182 204.991 224.894 203.879 221.105 201.73C212.727 196.877 208.19 186.515 210.561 177.631C211.697 173.659 214.074 170.156 217.346 167.634C220.617 165.112 224.61 163.704 228.74 163.617C229.467 163.619 230.193 163.669 230.914 163.767C230.914 163.506 230.914 163.237 230.914 162.977C230.639 161.742 230.512 160.479 230.534 159.214C230.748 147.896 242.691 139.02 257.724 139.02H258.427C266.829 139.178 274.623 142.181 279.729 147.153C281.95 143.106 286.621 140.711 292.328 140.711C295.899 140.744 299.415 141.598 302.603 143.209C310.104 146.924 314.775 153.927 314.198 160.281C316.414 160.755 318.554 161.528 320.561 162.581C321.991 163.072 323.28 163.905 324.315 165.008C326.844 166.952 328.912 169.431 330.372 172.268C331.831 175.104 332.645 178.229 332.756 181.417C333.065 193.731 322.481 204.022 309.124 204.338H308.444C303.731 204.361 299.105 203.069 295.086 200.607C289.411 209.602 280.709 215.57 271.572 216.684C270.642 216.817 269.705 216.894 268.766 216.913Z" fill="#CCCCCC"/>
</g>
<g style="mix-blend-mode:multiply" opacity="0.5">
<path d="M268.3 217.261C258.088 217.261 248.738 210.938 245.797 202.244C241.851 204.238 237.494 205.285 233.072 205.302C228.719 205.339 224.433 204.227 220.647 202.078C212.261 197.225 207.732 186.862 210.103 177.978C211.238 174.014 213.61 170.516 216.873 167.995C220.137 165.474 224.12 164.062 228.243 163.965C228.967 163.967 229.691 164.017 230.408 164.115C230.408 163.854 230.408 163.585 230.408 163.324C230.127 162.091 229.997 160.827 230.021 159.562C230.235 148.244 242.177 139.367 257.219 139.367H257.922C266.316 139.525 274.11 142.529 279.215 147.501C281.437 143.454 286.108 141.059 291.814 141.059C295.386 141.092 298.902 141.946 302.09 143.557C309.59 147.271 314.27 154.274 313.685 160.629C315.903 161.104 318.046 161.877 320.055 162.929C321.483 163.421 322.769 164.254 323.802 165.356C326.331 167.3 328.399 169.779 329.858 172.616C331.318 175.452 332.132 178.576 332.243 181.764C332.552 194.079 321.968 204.37 308.61 204.686H307.939C303.228 204.71 298.604 203.418 294.589 200.955C288.914 209.95 280.211 215.917 271.066 217.032C270.15 217.164 269.226 217.24 268.3 217.261Z" fill="#BBBBBB"/>
</g>
<g style="mix-blend-mode:multiply" opacity="0.5">
<path d="M267.834 217.609C257.63 217.609 248.28 211.286 245.332 202.591C241.385 204.586 237.028 205.633 232.606 205.65C228.253 205.687 223.967 204.574 220.181 202.425C211.803 197.604 207.274 187.273 209.645 178.358C210.781 174.396 213.152 170.901 216.414 168.381C219.676 165.862 223.657 164.45 227.777 164.352C228.501 164.354 229.225 164.404 229.943 164.502C229.943 164.241 229.943 163.972 229.943 163.712C229.665 162.477 229.535 161.214 229.555 159.949C229.769 148.631 241.719 139.755 256.753 139.755H257.456C265.858 139.913 273.652 142.916 278.75 147.888C281.018 143.802 285.681 141.43 291.388 141.43C294.96 141.462 298.476 142.317 301.663 143.928C309.172 147.643 313.843 154.646 313.258 161.001C315.475 161.479 317.618 162.252 319.629 163.301C321.057 163.792 322.343 164.625 323.376 165.727C325.905 167.671 327.973 170.15 329.432 172.987C330.891 175.824 331.706 178.948 331.817 182.136C332.133 194.45 321.542 204.741 308.192 205.057H307.512C302.802 205.081 298.178 203.789 294.162 201.327C288.487 210.321 279.785 216.289 270.648 217.403C269.715 217.529 268.775 217.597 267.834 217.609Z" fill="#AAAAAA"/>
</g>
<g style="mix-blend-mode:multiply" opacity="0.5">
<path d="M267.344 217.957C257.14 217.957 247.789 211.633 244.841 202.939C240.897 204.932 236.543 205.98 232.124 205.998C227.768 206.034 223.48 204.922 219.691 202.773C211.313 197.92 206.776 187.558 209.147 178.674C210.282 174.709 212.654 171.211 215.917 168.69C219.18 166.169 223.164 164.757 227.287 164.66C228.011 164.662 228.734 164.712 229.452 164.81C229.452 164.549 229.452 164.281 229.452 164.02C229.178 162.785 229.05 161.522 229.073 160.258C229.286 148.939 241.229 140.063 256.263 140.063H257.069C265.471 140.221 273.264 143.225 278.409 148.196C280.631 144.149 285.302 141.754 291.008 141.754C294.58 141.788 298.095 142.643 301.284 144.252C308.784 147.967 313.456 154.97 312.879 161.325C315.079 161.806 317.206 162.58 319.202 163.625C320.632 164.116 321.921 164.949 322.956 166.051C325.487 168.007 327.554 170.499 329.008 173.349C330.462 176.198 331.267 179.334 331.366 182.531C331.674 194.845 321.091 205.136 307.733 205.453H307.061C302.348 205.476 297.723 204.184 293.704 201.722C288.029 210.717 279.326 216.684 270.189 217.799C269.245 217.909 268.295 217.962 267.344 217.957Z" fill="#999999"/>
</g>
<g style="mix-blend-mode:multiply" opacity="0.5">
<path d="M266.908 218.304C256.697 218.304 247.346 211.981 244.398 203.287C240.454 205.28 236.1 206.328 231.68 206.346C227.327 206.382 223.041 205.27 219.255 203.121C210.869 198.268 206.34 187.906 208.712 179.022C209.848 175.051 212.226 171.548 215.497 169.026C218.769 166.505 222.761 165.097 226.891 165.008C227.615 165.01 228.339 165.061 229.056 165.158C229.056 164.897 229.056 164.629 229.096 164.368C228.815 163.134 228.685 161.871 228.709 160.605C228.922 149.287 240.865 140.411 255.906 140.411H256.61C265.004 140.569 272.797 143.572 277.903 148.544C280.124 144.497 284.795 142.102 290.502 142.102C294.073 142.135 297.589 142.99 300.777 144.6C308.278 148.315 312.957 155.318 312.372 161.672C314.589 162.15 316.732 162.924 318.743 163.972C320.171 164.464 321.457 165.297 322.489 166.399C325.018 168.343 327.086 170.822 328.546 173.659C330.005 176.496 330.82 179.62 330.931 182.808C331.239 195.122 320.656 205.413 307.298 205.729H306.626C301.915 205.756 297.291 204.464 293.276 201.999C287.601 210.993 278.899 216.961 269.754 218.075C268.811 218.21 267.861 218.287 266.908 218.304Z" fill="#888888"/>
</g>
<g style="mix-blend-mode:multiply" opacity="0.5">
<path d="M266.442 218.652C256.23 218.652 246.888 212.329 243.94 203.635C239.993 205.629 235.636 206.677 231.214 206.694C226.861 206.73 222.575 205.618 218.789 203.469C210.435 198.647 205.874 188.285 208.245 179.369C209.382 175.399 211.76 171.896 215.031 169.374C218.302 166.853 222.295 165.444 226.424 165.356C227.149 165.358 227.872 165.408 228.59 165.506C228.59 165.245 228.59 164.976 228.63 164.715C228.352 163.481 228.222 162.218 228.242 160.953C228.456 149.635 240.406 140.758 255.44 140.758H256.143C264.545 140.917 272.331 143.92 277.437 148.892C279.666 144.845 284.329 142.45 290.036 142.45C293.607 142.482 297.123 143.336 300.311 144.948C307.819 148.662 312.491 155.665 311.906 162.02C314.123 162.498 316.265 163.272 318.276 164.32C319.703 164.815 320.989 165.647 322.023 166.747C324.552 168.691 326.62 171.17 328.079 174.007C329.539 176.843 330.353 179.967 330.464 183.155C330.781 195.47 320.189 205.761 306.839 206.077H306.073C301.362 206.104 296.737 204.811 292.723 202.346C287.103 211.404 278.409 217.372 269.232 218.486C268.306 218.597 267.375 218.653 266.442 218.652Z" fill="#777777"/>
</g>
<g style="mix-blend-mode:multiply" opacity="0.5">
<path d="M265.976 219C255.772 219 246.422 212.677 243.473 203.982C239.527 205.977 235.17 207.024 230.748 207.041C226.405 207.091 222.126 205.998 218.339 203.872C209.961 199.019 205.424 188.657 207.795 179.773C208.932 175.802 211.31 172.299 214.581 169.777C217.852 167.256 221.845 165.847 225.974 165.759C226.698 165.761 227.422 165.811 228.14 165.909C228.14 165.648 228.14 165.379 228.14 165.119C227.866 163.884 227.736 162.621 227.752 161.356C227.966 150.038 239.917 141.162 254.95 141.162H255.653C264.055 141.32 271.849 144.323 276.955 149.295C279.176 145.248 283.847 142.853 289.554 142.853C293.125 142.887 296.641 143.741 299.829 145.351C307.33 149.066 312.001 156.069 311.416 162.423C313.633 162.9 315.776 163.674 317.787 164.723C319.216 165.217 320.504 166.05 321.541 167.15C324.067 169.097 326.133 171.576 327.592 174.412C329.051 177.249 329.867 180.371 329.982 183.559C330.291 195.873 319.707 206.164 306.35 206.48H305.678C300.965 206.505 296.338 205.213 292.32 202.749C286.645 211.744 277.943 217.712 268.806 218.826C267.867 218.941 266.922 219 265.976 219Z" fill="#666666"/>
</g>
</g>
<path d="M265.894 218C255.675 218 246.311 211.826 243.358 203.337C239.406 205.285 235.043 206.307 230.614 206.324C226.265 206.372 221.98 205.305 218.187 203.229C209.797 198.491 205.253 188.373 207.628 179.699C208.766 175.822 211.148 172.402 214.424 169.94C217.7 167.478 221.698 166.103 225.833 166.016C226.559 166.018 227.283 166.067 228.002 166.163C228.002 165.908 228.002 165.646 228.002 165.391C227.729 164.185 227.598 162.953 227.614 161.718C227.828 150.667 239.796 142 254.852 142H255.556C263.97 142.154 271.775 145.087 276.888 149.941C279.113 145.99 283.791 143.652 289.506 143.652C293.082 143.684 296.603 144.519 299.796 146.09C307.308 149.717 311.986 156.555 311.4 162.76C313.62 163.225 315.766 163.98 317.78 165.005C319.211 165.488 320.501 166.3 321.54 167.374C324.07 169.275 326.139 171.696 327.6 174.466C329.061 177.235 329.878 180.284 329.993 183.396C330.302 195.419 319.703 205.467 306.326 205.776H305.653C300.933 205.801 296.3 204.539 292.276 202.133C286.593 210.916 277.878 216.742 268.728 217.83C267.787 217.943 266.841 218 265.894 218Z" fill="white"/>
<path d="M923.696 151.991C912.303 151.991 901.869 144.832 898.584 135.055C894.182 137.315 889.321 138.502 884.386 138.522C879.53 138.563 874.748 137.307 870.522 134.882C861.174 129.387 856.111 117.677 858.762 107.632C860.026 103.148 862.671 99.1921 866.312 96.3414C869.953 93.4907 874.398 91.8951 878.998 91.7877C879.808 91.7858 880.616 91.8409 881.419 91.9523C881.419 91.6576 881.419 91.3543 881.461 91.0856C881.151 89.6926 881.007 88.2665 881.034 86.8386C881.265 74.0282 894.599 64 911.371 64H912.158C921.566 64.1733 930.221 67.5796 935.926 73.1961C938.398 68.6197 943.624 65.9068 949.979 65.9068C953.954 65.9496 957.866 66.9162 961.414 68.7324C969.787 72.9361 975.004 80.8668 974.354 88.0434C976.829 88.5803 979.22 89.455 981.462 90.6436C983.055 91.203 984.49 92.1458 985.644 93.3911C988.464 95.5916 990.769 98.3959 992.395 101.604C994.022 104.812 994.929 108.344 995.052 111.948C995.403 125.868 983.574 137.508 968.684 137.89H967.931C962.675 137.919 957.514 136.46 953.032 133.677C946.703 143.844 936.995 150.596 926.8 151.879C925.769 151.981 924.732 152.019 923.696 151.991Z" fill="white"/>
</svg>
