<svg width="292" height="128" viewBox="0 0 292 128" fill="none" xmlns="http://www.w3.org/2000/svg">
<path d="M61.9129 32.5013C60.76 32.5013 59.6329 32.1594 58.6743 31.5189C57.7156 30.8783 56.9684 29.9679 56.5272 28.9027C56.086 27.8375 55.9706 26.6654 56.1955 25.5346C56.4204 24.4038 56.9756 23.3651 57.7909 22.5498C58.6062 21.7346 59.6449 21.1793 60.7757 20.9544C61.9065 20.7295 63.0786 20.8449 64.1438 21.2861C65.209 21.7274 66.1194 22.4745 66.76 23.4332C67.4005 24.3918 67.7424 25.5189 67.7424 26.6719C67.7408 28.2175 67.1262 29.6993 66.0333 30.7922C64.9404 31.8851 63.4585 32.4998 61.9129 32.5013ZM61.9129 22.7064C61.1296 22.7058 60.3636 22.9376 59.712 23.3725C59.0605 23.8073 58.5525 24.4257 58.2524 25.1493C57.9524 25.8729 57.8737 26.6693 58.0264 27.4377C58.1791 28.206 58.5563 28.9118 59.1102 29.4657C59.6641 30.0196 60.3699 30.3968 61.1383 30.5495C61.9066 30.7022 62.703 30.6235 63.4266 30.3235C64.1502 30.0234 64.7686 29.5154 65.2034 28.8639C65.6383 28.2123 65.8701 27.4463 65.8695 26.663C65.8656 25.6156 65.4472 24.6125 64.7058 23.8727C63.9644 23.133 62.9603 22.7168 61.9129 22.7153V22.7064Z" fill="#7C5438"/>
<g opacity="0.5">
<path opacity="0.5" d="M61.9751 31.878C60.9329 31.8786 59.914 31.5701 59.0472 30.9915C58.1804 30.413 57.5047 29.5903 57.1055 28.6277C56.7063 27.6651 56.6015 26.6057 56.8045 25.5835C57.0074 24.5613 57.509 23.6223 58.2457 22.8852C58.9824 22.1481 59.9211 21.646 60.9432 21.4425C61.9652 21.2389 63.0247 21.3431 63.9876 21.7418C64.9504 22.1405 65.7734 22.8157 66.3524 23.6822C66.9315 24.5487 67.2406 25.5674 67.2406 26.6095C67.239 28.0058 66.6838 29.3445 65.6968 30.3321C64.7097 31.3197 63.3714 31.8756 61.9751 31.878ZM61.9751 21.9644C61.0562 21.9638 60.1578 22.2357 59.3935 22.7457C58.6292 23.2558 58.0334 23.9811 57.6813 24.8298C57.3293 25.6786 57.2369 26.6127 57.4158 27.5139C57.5947 28.4152 58.0369 29.2432 58.6864 29.8931C59.3359 30.543 60.1636 30.9857 61.0648 31.1652C61.9659 31.3447 62.9001 31.2529 63.749 30.9014C64.598 30.5499 65.3236 29.9545 65.8342 29.1905C66.3447 28.4266 66.6172 27.5283 66.6172 26.6095C66.6157 25.3785 66.1262 24.1984 65.256 23.3277C64.3859 22.457 63.206 21.9667 61.9751 21.9644Z" fill="#CE9F38"/>
</g>
<path d="M59.8144 22.1632C59.5424 22.1034 59.2579 22.1434 59.013 22.276L58.7161 22.4659C58.2501 23.1813 57.5289 23.6295 57.1579 24.4576C56.9631 24.8928 56.836 25.3552 56.7809 25.8289C56.7156 26.3602 56.8314 27.0488 57.2974 26.3928C57.7634 25.7368 57.707 24.5793 58.1878 23.8372C58.5114 23.3534 59.9153 22.7123 59.8144 22.1632Z" fill="#E5AE41"/>
<path d="M66.8578 27.2773C66.3888 27.1645 66.0534 29.1621 65.6705 29.6341C64.9878 30.5067 64.2488 30.8213 63.2396 31.0677L63.0526 31.13C62.5569 31.1478 62.6133 31.4921 63.0526 31.5663C63.2811 31.6049 63.7561 31.3882 63.9757 31.2992C64.519 31.0697 65.0151 30.7416 65.439 30.3316C66.187 29.6637 67.2852 28.3607 66.8578 27.2773Z" fill="#E5AE41"/>
<path d="M63.0646 32.252H60.7583V36.8022H63.0646V32.252Z" fill="#7C5438"/>
<path opacity="0.5" d="M61.0698 32.8129L61.1025 36.6181L62.0671 36.7725L61.8801 33.3443L61.0698 32.8129Z" fill="#CE9F38"/>
<path d="M61.913 19.2663C61.0804 19.2669 60.2664 19.0205 59.5738 18.5584C58.8813 18.0963 58.3414 17.4392 58.0224 16.6702C57.7034 15.9011 57.6196 15.0548 57.7817 14.2382C57.9437 13.4215 58.3444 12.6713 58.9329 12.0824C59.5214 11.4935 60.2713 11.0923 61.0878 10.9297C61.9043 10.767 62.7507 10.8502 63.52 11.1687C64.2892 11.4872 64.9467 12.0266 65.4093 12.7188C65.8719 13.411 66.1189 14.2249 66.1189 15.0574C66.1181 16.1729 65.6748 17.2426 64.8863 18.0316C64.0978 18.8207 63.0285 19.2647 61.913 19.2663ZM61.913 12.1991C61.3476 12.1991 60.795 12.3667 60.325 12.6808C59.8549 12.9949 59.4886 13.4413 59.2722 13.9636C59.0559 14.4859 58.9993 15.0606 59.1096 15.6151C59.2199 16.1695 59.4921 16.6789 59.8918 17.0786C60.2916 17.4783 60.8009 17.7506 61.3554 17.8609C61.9098 17.9711 62.4845 17.9146 63.0068 17.6982C63.5291 17.4819 63.9755 17.1155 64.2896 16.6454C64.6037 16.1754 64.7713 15.6228 64.7713 15.0574C64.7705 14.2996 64.4691 13.573 63.9333 13.0372C63.3974 12.5013 62.6708 12.1999 61.913 12.1991Z" fill="#7C5438"/>
<g opacity="0.5">
<path opacity="0.5" d="M61.9571 18.8151C61.2042 18.8157 60.4681 18.593 59.8419 18.1751C59.2157 17.7572 58.7275 17.1629 58.4391 16.4675C58.1508 15.7721 58.0752 15.0068 58.2219 14.2683C58.3686 13.5299 58.7311 12.8516 59.2634 12.3193C59.7958 11.787 60.4741 11.4245 61.2125 11.2778C61.9509 11.131 62.7162 11.2066 63.4116 11.495C64.1071 11.7834 64.7013 12.2715 65.1192 12.8977C65.5371 13.524 65.7599 14.2601 65.7593 15.0129C65.7577 16.0208 65.3566 16.9871 64.6439 17.6998C63.9312 18.4125 62.965 18.8136 61.9571 18.8151ZM61.9571 11.6589C61.2936 11.6583 60.6448 11.8545 60.0929 12.2227C59.5409 12.5909 59.1105 13.1145 58.8562 13.7273C58.6019 14.3401 58.5351 15.0146 58.6642 15.6654C58.7932 16.3162 59.1125 16.9142 59.5814 17.3835C60.0504 17.8529 60.6479 18.1726 61.2986 18.3023C61.9493 18.4319 62.6239 18.3657 63.2369 18.1119C63.85 17.8581 64.374 17.4282 64.7426 16.8766C65.1113 16.325 65.3081 15.6764 65.3081 15.0129C65.3073 14.1241 64.9541 13.2719 64.3259 12.6432C63.6977 12.0144 62.8458 11.6605 61.9571 11.6589Z" fill="#CE9F38"/>
</g>
<path d="M60.396 11.8014C60.1946 11.754 59.9829 11.7836 59.8023 11.8845L59.5797 12.018C59.2413 12.5345 58.7308 12.861 58.4548 13.4576C58.3145 13.7725 58.2224 14.1067 58.1817 14.4489C58.1342 14.8318 58.2173 15.3394 58.5557 14.8556C58.8941 14.3718 58.8525 13.5437 59.2087 13.0094C59.455 12.6592 60.4702 12.1961 60.396 11.8014Z" fill="#E5AE41"/>
<path d="M65.4807 15.4937C65.1423 15.4136 64.9019 16.8561 64.6348 17.1945C64.1391 17.8267 63.6078 18.0434 62.8806 18.2304L62.7441 18.2749C62.3879 18.2749 62.4265 18.5361 62.7441 18.5896C62.976 18.5681 63.2016 18.5026 63.4089 18.3966C63.8012 18.2314 64.1595 17.9949 64.4656 17.6991C64.9999 17.2153 65.7924 16.2744 65.4807 15.4937Z" fill="#E5AE41"/>
<path d="M63.0499 23.5523C63.0499 24.0242 62.5335 24.4071 61.8983 24.4071C61.2601 24.4071 60.7437 24.0242 60.7437 23.5523V16.3456C60.7437 15.8737 61.2601 15.4938 61.8983 15.4938C62.5335 15.4938 63.0499 15.8737 63.0499 16.3456V23.5523Z" fill="#7C5438"/>
<path opacity="0.4" d="M62.3969 21.3826C62.3931 21.4647 62.3731 21.5453 62.338 21.6197C62.3029 21.694 62.2534 21.7608 62.1925 21.8159C62.1315 21.8711 62.0602 21.9137 61.9827 21.9412C61.9052 21.9687 61.823 21.9806 61.7409 21.9762C61.6589 21.9806 61.5769 21.9687 61.4996 21.9411C61.4223 21.9136 61.3512 21.871 61.2904 21.8158C61.2297 21.7605 61.1805 21.6938 61.1458 21.6195C61.111 21.5451 61.0913 21.4646 61.0879 21.3826V16.4614C61.0913 16.3794 61.111 16.2988 61.1458 16.2245C61.1805 16.1501 61.2297 16.0834 61.2904 16.0282C61.3512 15.973 61.4223 15.9304 61.4996 15.9028C61.5769 15.8753 61.6589 15.8633 61.7409 15.8677C61.823 15.8633 61.9052 15.8752 61.9827 15.9027C62.0602 15.9302 62.1315 15.9728 62.1925 16.028C62.2534 16.0832 62.3029 16.1499 62.338 16.2243C62.3731 16.2986 62.3931 16.3792 62.3969 16.4614V21.3826Z" fill="#CE9F38"/>
<path d="M61.6988 18.548C61.6038 17.8742 61.9214 17.2479 61.8175 16.6009C61.7252 16.5525 61.6244 16.5223 61.5207 16.5119H61.4791C61.0488 16.9363 61.4257 17.9573 61.396 18.5064C61.3812 18.8033 61.025 20.2517 61.5623 20.2517C62.0668 20.2517 61.7344 18.8211 61.6988 18.548Z" fill="#E5AE41"/>
<path d="M61.913 8.41769C61.0804 8.41828 60.2664 8.17194 59.5738 7.70982C58.8813 7.2477 58.3414 6.59055 58.0224 5.82154C57.7034 5.05252 57.6196 4.20618 57.7817 3.38955C57.9437 2.57291 58.3444 1.82271 58.9329 1.23379C59.5214 0.644878 60.2713 0.243735 61.0878 0.0810955C61.9043 -0.0815444 62.7507 0.00161411 63.52 0.320084C64.2892 0.638554 64.9467 1.17801 65.4093 1.87021C65.8719 2.56242 66.1189 3.37628 66.1189 4.20883C66.1181 5.32433 65.6748 6.39398 64.8863 7.18304C64.0978 7.9721 63.0285 8.41612 61.913 8.41769ZM61.913 1.3505C61.3476 1.3505 60.795 1.51813 60.325 1.83221C59.8549 2.14628 59.4886 2.59272 59.2722 3.11501C59.0559 3.63731 58.9993 4.21202 59.1096 4.76648C59.2199 5.32095 59.4921 5.83024 59.8918 6.22998C60.2916 6.62973 60.8009 6.90195 61.3554 7.01224C61.9098 7.12253 62.4845 7.06593 63.0068 6.84959C63.5291 6.63325 63.9755 6.26691 64.2896 5.79686C64.6037 5.32681 64.7713 4.77416 64.7713 4.20883C64.7705 3.451 64.4691 2.72442 63.9333 2.18855C63.3974 1.65268 62.6708 1.35128 61.913 1.3505Z" fill="#7C5438"/>
<g opacity="0.5">
<path opacity="0.5" d="M61.9575 7.96356C61.2055 7.96356 60.4704 7.74059 59.8451 7.32279C59.2198 6.905 58.7325 6.31116 58.4447 5.61639C58.1569 4.92163 58.0816 4.15714 58.2283 3.41959C58.375 2.68203 58.7372 2.00453 59.2689 1.47279C59.8007 0.941038 60.4781 0.578902 61.2157 0.432193C61.9532 0.285484 62.7178 0.360792 63.4125 0.648572C64.1073 0.936352 64.7011 1.42368 65.1189 2.04895C65.5367 2.67422 65.7597 3.40933 65.7597 4.16134C65.7581 5.16926 65.357 6.13547 64.6443 6.84819C63.9316 7.5609 62.9654 7.96199 61.9575 7.96356ZM61.9575 0.807343C61.294 0.806755 60.6452 1.00297 60.0933 1.37115C59.5413 1.73934 59.1109 2.26296 58.8566 2.87578C58.6023 3.48859 58.5355 4.16307 58.6646 4.81388C58.7936 5.46469 59.1129 6.06258 59.5818 6.53195C60.0508 7.00131 60.6484 7.32104 61.2991 7.45069C61.9498 7.58035 62.6243 7.5141 63.2373 7.26033C63.8504 7.00656 64.3744 6.57669 64.7431 6.02506C65.1117 5.47343 65.3085 4.82483 65.3085 4.16134C65.307 3.27307 64.9534 2.42166 64.3253 1.79355C63.6972 1.16545 62.8457 0.811883 61.9575 0.810314V0.807343Z" fill="#CE9F38"/>
</g>
<path d="M60.396 0.952777C60.1946 0.90538 59.9829 0.935035 59.8023 1.03589L59.5797 1.17242C59.2413 1.68888 58.7308 2.0124 58.4548 2.609C58.3145 2.92386 58.2224 3.25809 58.1817 3.60039C58.1342 3.98328 58.2173 4.49083 58.5557 4.00702C58.8941 3.52321 58.8525 2.69804 59.2087 2.16377C59.455 1.81353 60.4702 1.35051 60.396 0.952777Z" fill="#E5AE41"/>
<path d="M65.4807 4.64512C65.1423 4.56498 64.9019 6.00754 64.6348 6.34591C64.1391 6.97813 63.6078 7.1948 62.8806 7.38179L62.7441 7.42629C62.3879 7.42629 62.4265 7.69047 62.7441 7.74093C62.976 7.72165 63.2019 7.65711 63.4089 7.55096C63.8008 7.38357 64.1588 7.1462 64.4656 6.85048C64.9999 6.36964 65.7924 5.42872 65.4807 4.64512Z" fill="#E5AE41"/>
<path d="M63.0499 12.7126C63.0499 13.1845 62.5335 13.5674 61.8983 13.5674C61.2601 13.5674 60.7437 13.1845 60.7437 12.7126V5.49997C60.7437 5.02803 61.2601 4.64514 61.8983 4.64514C62.5335 4.64514 63.0499 5.02803 63.0499 5.49997V12.7126Z" fill="#7C5438"/>
<path opacity="0.4" d="M62.3969 10.534C62.3931 10.6161 62.3731 10.6967 62.338 10.7711C62.3029 10.8454 62.2534 10.9122 62.1925 10.9673C62.1315 11.0225 62.0602 11.0651 61.9827 11.0926C61.9052 11.1201 61.823 11.132 61.7409 11.1276C61.6589 11.132 61.5769 11.1201 61.4996 11.0925C61.4223 11.065 61.3512 11.0224 61.2904 10.9672C61.2297 10.9119 61.1805 10.8452 61.1458 10.7709C61.111 10.6965 61.0913 10.616 61.0879 10.534V5.61274C61.0913 5.53073 61.111 5.45021 61.1458 5.37585C61.1805 5.30149 61.2297 5.23476 61.2904 5.17955C61.3512 5.12433 61.4223 5.08172 61.4996 5.05418C61.5769 5.02664 61.6589 5.01472 61.7409 5.01911C61.823 5.01471 61.9052 5.02664 61.9827 5.05415C62.0602 5.08165 62.1315 5.12422 62.1925 5.1794C62.2534 5.23458 62.3029 5.30126 62.338 5.37564C62.3731 5.45001 62.3931 5.53059 62.3969 5.61274V10.534Z" fill="#CE9F38"/>
<path d="M61.6988 7.69938C61.6038 7.02561 61.9214 6.39935 61.8175 5.75229C61.7252 5.70393 61.6244 5.67369 61.5207 5.66323H61.4791C61.0488 6.09064 61.4257 7.10871 61.396 7.65782C61.3812 7.95464 61.025 9.40607 61.5623 9.4031C62.0668 9.4031 61.7344 7.96355 61.6988 7.69938Z" fill="#E5AE41"/>
<path d="M230.071 32.5013C228.918 32.5013 227.791 32.1594 226.832 31.5189C225.873 30.8783 225.126 29.9679 224.685 28.9027C224.244 27.8375 224.128 26.6654 224.353 25.5346C224.578 24.4038 225.133 23.3651 225.949 22.5498C226.764 21.7346 227.803 21.1793 228.933 20.9544C230.064 20.7295 231.236 20.8449 232.302 21.2861C233.367 21.7274 234.277 22.4745 234.918 23.4332C235.558 24.3918 235.9 25.5189 235.9 26.6719C235.899 28.2175 235.284 29.6993 234.191 30.7922C233.098 31.8851 231.616 32.4998 230.071 32.5013ZM230.071 22.7064C229.287 22.7064 228.522 22.9387 227.871 23.3739C227.219 23.8091 226.712 24.4277 226.412 25.1514C226.113 25.8751 226.034 26.6713 226.187 27.4395C226.34 28.2076 226.718 28.9131 227.272 29.4668C227.826 30.0204 228.532 30.3973 229.3 30.5497C230.068 30.7021 230.865 30.6233 231.588 30.3232C232.311 30.023 232.93 29.5151 233.364 28.8636C233.799 28.212 234.031 27.4462 234.03 26.663C234.026 25.6151 233.607 24.6115 232.865 23.8717C232.123 23.1319 231.119 22.7161 230.071 22.7153V22.7064Z" fill="#7C5438"/>
<g opacity="0.5">
<path opacity="0.5" d="M230.133 31.878C229.091 31.878 228.072 31.569 227.206 30.9901C226.339 30.4112 225.664 29.5884 225.265 28.6257C224.867 27.663 224.762 26.6037 224.965 25.5817C225.169 24.5597 225.671 23.6209 226.407 22.8841C227.144 22.1473 228.083 21.6455 229.105 21.4422C230.127 21.239 231.186 21.3433 232.149 21.7421C233.112 22.1408 233.934 22.8161 234.513 23.6825C235.092 24.5489 235.401 25.5675 235.401 26.6095C235.4 28.0063 234.844 29.3455 233.856 30.3332C232.869 31.3209 231.53 31.8764 230.133 31.878ZM230.133 21.9644C229.214 21.9644 228.316 22.2368 227.552 22.7472C226.788 23.2576 226.193 23.9831 225.841 24.8319C225.49 25.6807 225.398 26.6147 225.577 27.5157C225.756 28.4168 226.198 29.2445 226.848 29.8941C227.498 30.5438 228.325 30.9862 229.227 31.1654C230.128 31.3447 231.062 31.2527 231.91 30.9011C232.759 30.5495 233.485 29.9541 233.995 29.1902C234.505 28.4263 234.778 27.5282 234.778 26.6095C234.776 25.378 234.286 24.1974 233.416 23.3266C232.545 22.4558 231.364 21.9659 230.133 21.9644Z" fill="#CE9F38"/>
</g>
<path d="M227.972 22.1632C227.7 22.1034 227.416 22.1434 227.171 22.276L226.874 22.4659C226.408 23.1813 225.687 23.6295 225.316 24.4576C225.123 24.8934 224.997 25.3556 224.942 25.8289C224.874 26.3602 224.989 27.0488 225.458 26.3928C225.927 25.7368 225.868 24.5793 226.349 23.8372C226.669 23.3534 228.073 22.7123 227.972 22.1632Z" fill="#E5AE41"/>
<path d="M235.016 27.2773C234.547 27.1645 234.211 29.1621 233.828 29.6341C233.143 30.5067 232.404 30.8213 231.397 31.0677L231.21 31.13C230.715 31.1478 230.771 31.4921 231.21 31.5663C231.439 31.6049 231.914 31.3882 232.13 31.2992C232.674 31.0697 233.17 30.7416 233.594 30.3316C234.339 29.6637 235.446 28.3607 235.016 27.2773Z" fill="#E5AE41"/>
<path d="M231.225 32.252H228.919V36.8022H231.225V32.252Z" fill="#7C5438"/>
<path opacity="0.5" d="M229.231 32.8129L229.261 36.6181L230.228 36.7725L230.041 33.3443L229.231 32.8129Z" fill="#CE9F38"/>
<path d="M230.071 19.2663C229.238 19.2663 228.424 19.0194 227.732 18.557C227.04 18.0945 226.501 17.4372 226.182 16.6681C225.864 15.899 225.78 15.0528 225.943 14.2363C226.105 13.4199 226.506 12.6699 227.095 12.0813C227.683 11.4927 228.433 11.0919 229.25 10.9295C230.066 10.7671 230.912 10.8504 231.681 11.169C232.45 11.4875 233.108 12.027 233.57 12.7191C234.033 13.4113 234.279 14.225 234.279 15.0574C234.279 16.1735 233.835 17.2435 233.046 18.0327C232.257 18.8218 231.187 19.2655 230.071 19.2663ZM230.071 12.1991C229.505 12.1991 228.953 12.3667 228.483 12.6808C228.013 12.9949 227.646 13.4413 227.43 13.9636C227.214 14.4859 227.157 15.0606 227.267 15.6151C227.378 16.1695 227.65 16.6789 228.05 17.0786C228.449 17.4783 228.959 17.7506 229.513 17.8609C230.067 17.9711 230.642 17.9145 231.164 17.6982C231.687 17.4819 232.133 17.1155 232.447 16.6454C232.761 16.1754 232.929 15.6228 232.929 15.0574C232.928 14.2996 232.627 13.573 232.091 13.0372C231.555 12.5013 230.829 12.1999 230.071 12.1991Z" fill="#7C5438"/>
<g opacity="0.5">
<path opacity="0.5" d="M230.115 18.8152C229.363 18.8152 228.627 18.5919 228.001 18.1737C227.375 17.7554 226.887 17.1609 226.599 16.4654C226.312 15.77 226.236 15.0047 226.383 14.2665C226.53 13.5283 226.893 12.8503 227.426 12.3183C227.958 11.7862 228.636 11.424 229.375 11.2776C230.113 11.1311 230.878 11.2068 231.573 11.4953C232.269 11.7837 232.863 12.2719 233.281 12.8981C233.698 13.5242 233.921 14.2602 233.92 15.0129C233.919 16.0214 233.517 16.988 232.804 17.7008C232.091 18.4136 231.124 18.8144 230.115 18.8152ZM230.115 11.6589C229.452 11.6589 228.803 11.8556 228.252 12.2242C227.7 12.5927 227.27 13.1165 227.017 13.7294C226.763 14.3423 226.696 15.0166 226.826 15.6673C226.955 16.3179 227.275 16.9155 227.744 17.3846C228.213 17.8537 228.81 18.1731 229.461 18.3025C230.112 18.4319 230.786 18.3655 231.399 18.1116C232.012 17.8578 232.535 17.4279 232.904 16.8763C233.273 16.3248 233.469 15.6763 233.469 15.0129C233.468 14.1236 233.115 13.271 232.486 12.6421C231.857 12.0133 231.005 11.6597 230.115 11.6589Z" fill="#CE9F38"/>
</g>
<path d="M228.545 11.8014C228.344 11.7537 228.132 11.7833 227.951 11.8845L227.726 12.018C227.39 12.5345 226.877 12.861 226.601 13.4576C226.461 13.7726 226.37 14.1068 226.331 14.449C226.28 14.8318 226.366 15.3394 226.702 14.8556C227.037 14.3718 226.999 13.5437 227.355 13.0094C227.616 12.6592 228.628 12.1961 228.545 11.8014Z" fill="#E5AE41"/>
<path d="M233.642 15.4937C233.303 15.4136 233.048 16.8561 232.796 17.1945C232.3 17.8267 231.766 18.0434 231.038 18.2304L230.905 18.2749C230.546 18.2749 230.587 18.5361 230.905 18.5896C231.137 18.5677 231.362 18.5022 231.57 18.3966C231.962 18.2306 232.32 17.9942 232.626 17.6991C233.152 17.2153 233.95 16.2744 233.642 15.4937Z" fill="#E5AE41"/>
<path d="M231.217 23.5523C231.217 24.0242 230.7 24.4071 230.062 24.4071C229.427 24.4071 228.911 24.0242 228.911 23.5523V16.3456C228.911 15.8737 229.427 15.4938 230.062 15.4938C230.7 15.4938 231.217 15.8737 231.217 16.3456V23.5523Z" fill="#7C5438"/>
<path opacity="0.4" d="M230.555 21.3826C230.552 21.4646 230.532 21.5451 230.497 21.6195C230.462 21.6938 230.413 21.7605 230.353 21.8158C230.292 21.871 230.221 21.9136 230.143 21.9411C230.066 21.9687 229.984 21.9806 229.902 21.9762C229.82 21.9806 229.738 21.9687 229.66 21.9412C229.583 21.9137 229.511 21.8711 229.451 21.8159C229.39 21.7608 229.34 21.694 229.305 21.6197C229.27 21.5453 229.25 21.4647 229.246 21.3826V16.4614C229.25 16.3792 229.27 16.2986 229.305 16.2243C229.34 16.1499 229.39 16.0832 229.451 16.028C229.511 15.9728 229.583 15.9302 229.66 15.9027C229.738 15.8752 229.82 15.8633 229.902 15.8677C229.984 15.8633 230.066 15.8753 230.143 15.9028C230.221 15.9304 230.292 15.973 230.353 16.0282C230.413 16.0834 230.462 16.1501 230.497 16.2245C230.532 16.2988 230.552 16.3794 230.555 16.4614V21.3826Z" fill="#CE9F38"/>
<path d="M229.857 18.548C229.765 17.8742 230.083 17.2479 229.979 16.6009C229.886 16.5525 229.786 16.5223 229.682 16.5119H229.64C229.21 16.9363 229.584 17.9573 229.557 18.5064C229.539 18.8033 229.186 20.2517 229.72 20.2517C230.255 20.2517 229.896 18.8211 229.857 18.548Z" fill="#E5AE41"/>
<path d="M230.071 8.41769C229.238 8.41769 228.424 8.17085 227.732 7.70837C227.04 7.2459 226.501 6.58857 226.182 5.81951C225.864 5.05044 225.78 4.20417 225.943 3.38773C226.105 2.5713 226.506 1.82136 227.095 1.23274C227.683 0.644122 228.433 0.243276 229.25 0.0808767C230.066 -0.0815226 230.912 0.00181509 231.681 0.320373C232.45 0.63893 233.108 1.1784 233.57 1.87054C234.033 2.56268 234.279 3.3764 234.279 4.20883C234.279 5.32485 233.835 6.39495 233.046 7.18409C232.257 7.97323 231.187 8.41691 230.071 8.41769ZM230.071 1.3505C229.505 1.3505 228.953 1.51813 228.483 1.8322C228.013 2.14628 227.646 2.59272 227.43 3.11501C227.214 3.6373 227.157 4.21202 227.267 4.76648C227.378 5.32095 227.65 5.83024 228.05 6.22998C228.449 6.62973 228.959 6.90195 229.513 7.01224C230.067 7.12253 230.642 7.06593 231.164 6.84959C231.687 6.63325 232.133 6.26691 232.447 5.79686C232.761 5.32681 232.929 4.77416 232.929 4.20883C232.928 3.45099 232.627 2.72442 232.091 2.18855C231.555 1.65268 230.829 1.35128 230.071 1.3505Z" fill="#7C5438"/>
<g opacity="0.5">
<path opacity="0.5" d="M230.116 7.96356C229.364 7.96297 228.629 7.73949 228.004 7.32134C227.379 6.90319 226.892 6.30914 226.605 5.61433C226.318 4.91951 226.243 4.15514 226.39 3.41778C226.537 2.68041 226.899 2.00319 227.431 1.47173C227.963 0.940283 228.64 0.578443 229.378 0.431974C230.115 0.285505 230.88 0.360994 231.574 0.648861C232.269 0.936728 232.863 1.42407 233.28 2.04928C233.698 2.67448 233.921 3.40946 233.921 4.16134C233.919 5.16978 233.518 6.13644 232.804 6.84923C232.091 7.56203 231.124 7.96278 230.116 7.96356ZM230.116 0.807341C229.452 0.807341 228.804 1.00406 228.252 1.3726C227.701 1.74115 227.271 2.26497 227.017 2.87784C226.763 3.49071 226.697 4.16508 226.826 4.81569C226.956 5.46631 227.275 6.06393 227.744 6.533C228.213 7.00207 228.811 7.32149 229.461 7.45091C230.112 7.58032 230.786 7.51393 231.399 7.26007C232.012 7.00622 232.536 6.5763 232.904 6.02473C233.273 5.47317 233.47 4.8247 233.47 4.16134C233.468 3.27255 233.114 2.42069 232.485 1.7925C231.857 1.16431 231.004 0.811097 230.116 0.810312V0.807341Z" fill="#CE9F38"/>
</g>
<path d="M228.545 0.952782C228.344 0.905091 228.132 0.934762 227.951 1.0359L227.726 1.17242C227.39 1.68888 226.877 2.0124 226.601 2.609C226.461 2.92399 226.37 3.25823 226.331 3.60039C226.28 3.98328 226.366 4.49084 226.702 4.00703C227.037 3.52322 226.999 2.69804 227.355 2.16378C227.616 1.81353 228.628 1.35051 228.545 0.952782Z" fill="#E5AE41"/>
<path d="M233.642 4.64512C233.303 4.56498 233.048 6.00754 232.796 6.34591C232.3 6.97813 231.766 7.1948 231.038 7.38179L230.905 7.42629C230.546 7.42629 230.587 7.69047 230.905 7.74093C231.137 7.72165 231.363 7.65711 231.57 7.55096C231.961 7.38253 232.319 7.14528 232.626 6.85048C233.152 6.36964 233.95 5.42872 233.642 4.64512Z" fill="#E5AE41"/>
<path d="M231.217 12.7126C231.217 13.1845 230.7 13.5674 230.062 13.5674C229.427 13.5674 228.911 13.1845 228.911 12.7126V5.49997C228.911 5.02803 229.427 4.64514 230.062 4.64514C230.7 4.64514 231.217 5.02803 231.217 5.49997V12.7126Z" fill="#7C5438"/>
<path opacity="0.4" d="M230.555 10.534C230.552 10.616 230.532 10.6965 230.497 10.7709C230.462 10.8452 230.413 10.9119 230.353 10.9672C230.292 11.0224 230.221 11.065 230.143 11.0925C230.066 11.1201 229.984 11.132 229.902 11.1276C229.82 11.132 229.738 11.1201 229.66 11.0926C229.583 11.0651 229.511 11.0225 229.451 10.9673C229.39 10.9122 229.34 10.8454 229.305 10.7711C229.27 10.6967 229.25 10.6161 229.246 10.534V5.61274C229.25 5.53059 229.27 5.45001 229.305 5.37564C229.34 5.30126 229.39 5.23458 229.451 5.1794C229.511 5.12422 229.583 5.08165 229.66 5.05415C229.738 5.02664 229.82 5.01471 229.902 5.01911C229.984 5.01472 230.066 5.02664 230.143 5.05418C230.221 5.08172 230.292 5.12433 230.353 5.17955C230.413 5.23476 230.462 5.30149 230.497 5.37585C230.532 5.45021 230.552 5.53073 230.555 5.61274V10.534Z" fill="#CE9F38"/>
<path d="M229.857 7.69938C229.765 7.02561 230.083 6.39935 229.979 5.75229C229.886 5.70393 229.786 5.67369 229.682 5.66323H229.64C229.21 6.09064 229.584 7.10871 229.557 7.65782C229.539 7.95464 229.186 9.40607 229.72 9.4031C230.255 9.40013 229.896 7.96355 229.857 7.69938Z" fill="#E5AE41"/>
<path d="M71.5891 126.372C63.6493 129.756 52.2694 126.966 44.2821 126.01C33.757 124.734 22.8193 124.882 12.0746 125.378C6.69631 125.627 -2.31201 124.784 0.976709 116.126C2.96537 110.884 9.20146 108.023 13.2085 104.969C18.0406 101.285 23.223 98.2311 27.7168 94.0045C32.2759 89.7155 36.2414 84.8922 41.5158 81.9597C40.8747 75.8423 34.971 74.474 31.0144 71.6097C26.4346 68.2913 21.8547 63.9459 17.8507 59.8974C14.096 56.0981 9.57842 54.7773 5.72279 51.3521C-0.118543 46.1578 5.39033 42.1508 10.2255 41.1535C16.1618 39.9306 22.6324 40.6133 28.4143 39.3726C34.1963 38.1319 40.566 37.2029 46.7041 37.2771C49.8118 37.3127 52.8868 37.5947 56.0657 37.2771C59.0902 36.9802 62.284 35.4576 65.4005 35.974C71.1973 36.9357 71.9008 47.0423 71.975 52.658L76.0057 60.5296C74.1239 70.6896 76.5222 85.8391 76.9496 96.9459C77.3474 107.192 74.6641 116.788 71.5891 126.372Z" fill="#DA9859"/>
<path d="M16.2209 53.7978C18.4856 53.7978 20.3348 54.2727 22.4867 54.5547C32.0175 55.8043 42.0765 55.1275 51.8536 55.7805C53.9521 55.923 55.7983 56.297 58.0096 56.2169C60.7551 56.1189 63.3167 55.5223 66.1928 55.5401C67.4602 55.5401 70.7875 55.8933 73.6785 55.9379L74.7708 58.069C71.6809 57.885 67.9767 58.5024 65.341 58.8081C49.2714 60.6751 32.8931 58.9387 16.3664 58.5558C14.4222 56.9589 12.3416 55.8191 10.2876 54.5873C12.2355 54.1345 14.2224 53.8701 16.2209 53.7978Z" fill="#C68655"/>
<path d="M75.3613 75.2012L75.4563 75.1686C75.5068 76.2727 75.5721 77.3887 75.6433 78.5077C73.3677 78.1773 71.0675 78.0462 68.769 78.1159C59.6034 78.3148 50.3487 80.2263 41.4412 81.2859C41.3095 80.5381 41.0726 79.8126 40.7378 79.131C42.4771 78.8639 44.1927 78.5789 45.9113 78.297C55.2995 76.7565 67.2791 78.1308 75.3613 75.2012Z" fill="#C68655"/>
<path d="M75.5365 64.3021C72.7419 63.8903 69.8878 64.2569 67.288 65.3618C63.4294 66.9616 60.8055 68.9829 56.8609 70.5234C50.9246 72.8385 44.6054 74.382 37.4076 75.501C36.2203 74.6729 34.9203 73.9724 33.6499 73.257C37.3542 73.1947 41.0287 72.1025 44.1008 71.2714C54.4507 68.4783 61.2211 61.981 74.4769 61.515C74.931 61.5002 75.4 61.4913 75.869 61.4824C75.7295 62.3877 75.6196 63.3316 75.5365 64.3021Z" fill="#C68655"/>
<path d="M68.8909 51.7854C67.0266 51.4852 65.1394 51.3512 63.2514 51.3847C58.6567 51.3847 54.1095 51.4322 49.4317 51.4174C35.0183 51.3699 20.5367 51.5895 6.09659 51.6815C5.97787 51.5806 5.85912 51.4797 5.74336 51.3847C4.95085 50.7155 4.28265 49.9116 3.76953 49.0102C7.53315 48.9805 11.3176 49.0785 15.1257 49.1616C29.9665 49.4821 44.7479 46.9592 59.4819 48.2444C63.1357 48.562 67.7185 49.6216 71.8976 49.7967C71.954 50.7881 71.9808 51.729 71.9926 52.572C70.559 52.1653 69.3332 51.8626 68.8909 51.7854Z" fill="#C68655"/>
<path d="M36.9475 40.8774C45.4572 41.5631 54.059 42.0439 62.634 42.3289C65.2845 42.4179 68.0776 42.4209 70.835 42.4951C71.0564 43.3006 71.2367 44.1169 71.3752 44.9408C63.1504 44.2997 54.6467 44.0118 46.3803 43.4746C40.0997 43.0679 33.7865 42.8246 27.488 42.5841C22.7182 42.4001 17.7347 42.8275 13.0272 42.4238C11.5248 42.3278 10.0382 42.062 8.5957 41.6314C9.13683 41.4466 9.68902 41.2959 10.249 41.1802C14.4756 40.3135 18.9576 40.4055 23.2703 40.082C27.7225 40.4055 32.1747 40.4916 36.9475 40.8774Z" fill="#C68655"/>
<path d="M72.4408 123.772C58.2204 122.748 44.2226 120.362 29.925 121.757C20.697 122.647 10.7032 122.674 1.16648 122.38C0.606849 121.586 0.304366 120.639 0.299805 119.667C1.30898 119.697 2.31518 119.709 3.30061 119.691C9.03508 119.587 14.6924 119.249 20.3378 119.032C25.7161 118.824 31.133 119.094 36.5202 118.702C42.8958 118.239 47.6033 118.373 54.0323 118.907C59.3483 119.35 63.943 120.391 69.1699 120.949C70.1791 121.059 71.6305 121.136 73.2452 121.154C72.9781 122.027 72.7169 122.899 72.4408 123.772Z" fill="#C68655"/>
<path d="M29.8183 92.0099C34.9443 91.9327 40.0525 91.9683 45.2527 92.1048C52.5425 92.2948 59.6572 93.1852 66.9588 93.4346C69.9834 93.5355 73.4116 93.7848 76.8102 93.948C76.8695 94.9127 76.92 95.8566 76.9556 96.7737C69.927 95.346 59.3396 95.254 52.1329 94.9928C43.4065 94.6604 34.8968 95.2273 26.2803 95.3401C26.77 94.9157 27.2538 94.4853 27.7287 94.0401C28.4441 93.3663 29.1356 92.6896 29.8183 92.0099Z" fill="#C68655"/>
<path d="M21.516 103.835C19.6312 104.102 16.4701 104.651 13.502 104.812C14.5972 103.983 15.7102 103.185 16.8263 102.395C21.602 102.25 25.7307 101.078 30.37 100.49C40.0343 99.27 48.262 99.6855 57.7334 101.463C62.2539 102.312 70.3867 104.82 76.7118 104.921C76.6554 105.441 76.596 105.96 76.5307 106.48C76.1716 106.456 75.8095 106.435 75.4474 106.417C70.0394 106.147 64.762 106.307 59.7161 105.076C52.8597 103.408 46.8314 102.087 38.9658 102.208C33.2402 102.289 26.9566 103.051 21.516 103.835Z" fill="#C68655"/>
<path d="M76.3796 87.9583C76.43 88.5816 76.4805 89.205 76.528 89.8194C70.746 89.763 64.8067 90.3714 59.2741 90.502C52.0496 90.6742 44.2137 90.3833 36.9773 90.2201C35.2409 90.1785 33.4601 90.1696 31.6821 90.1429C32.252 89.57 32.8219 89.0002 33.3948 88.4392C36.4134 88.3917 39.4646 88.4688 41.7739 88.457C47.8378 88.4273 53.8157 88.0563 59.8796 88.0266C64.6613 88.0029 71.4168 88.6469 76.3796 87.9583Z" fill="#C68655"/>
<path d="M25.6418 106.524C34.4335 104.993 42.9343 104.36 52.0584 106.284C57.1043 107.346 61.4319 108.658 64.4119 110.87C66.7003 112.564 68.4575 113.698 73.1175 114.043C73.8061 114.092 74.4709 114.111 75.1121 114.099C75.0201 114.488 74.9281 114.874 74.8331 115.259L74.4086 115.209C70.7875 114.793 66.8517 114.574 63.6016 113.594C58.2767 111.986 56.1485 109.371 50.0697 107.987C45.1752 106.871 39.2508 106.052 33.831 106.503C26.8439 107.097 21.5962 109.768 14.63 110.537C13.4427 110.665 8.99047 111.033 4.67773 111.131C5.62926 110.292 6.63034 109.511 7.67557 108.792C9.49208 108.875 10.9405 108.955 11.4956 108.946C16.8858 108.851 20.7117 107.397 25.6418 106.524Z" fill="#C68655"/>
<path opacity="0.2" d="M11.8045 125.185C6.42619 125.434 -2.58513 124.591 0.703582 115.933C2.69225 110.691 8.9313 107.83 12.9383 104.776C17.7705 101.092 22.9499 98.0382 27.4437 93.8115C32.0057 89.5225 35.9712 84.6993 41.2456 81.7668C40.6015 75.6494 34.6979 74.2811 30.7443 71.4168C26.1644 68.0984 21.5816 63.753 17.5805 59.7044C13.8228 55.9052 9.30827 54.5844 5.45263 51.1591C-0.391667 45.9649 5.11724 41.9579 9.95237 40.9606H9.9761C13.6032 42.0083 10.5074 48.0841 14.3422 51.7587C18.8479 56.0803 24.5972 58.7754 29.4235 62.9308C33.4602 66.4095 38.0519 70.3928 41.1388 74.7649C44.9558 80.1758 41.495 85.6877 37.4494 89.4958C31.4952 95.1027 25.5767 100.686 19.581 106.414C16.3606 109.492 8.10912 112.906 8.9313 117.717C14.0276 117.542 19.2338 119.376 24.5497 119.611C30.2872 119.863 35.7011 121.05 41.3466 121.472C50.9011 122.187 62.9488 119.59 72.7526 121.573C72.2896 123.114 71.8107 124.652 71.316 126.185C63.3762 129.569 51.9963 126.779 44.009 125.823C33.4839 124.541 22.5552 124.689 11.8045 125.185Z" fill="#FFDC78"/>
<path d="M220.279 125.259C228.145 128.821 239.572 126.286 247.586 125.491C258.138 124.443 269.067 124.829 279.799 125.559C285.172 125.924 294.195 125.283 291.096 116.551C289.223 111.267 283.05 108.269 279.108 105.129C274.359 101.342 269.245 98.1747 264.843 93.8501C260.391 89.4602 256.532 84.5539 251.308 81.5056C252.083 75.406 258.016 74.1653 262.032 71.3871C266.683 68.1697 271.358 63.9252 275.448 59.9627C279.286 56.2465 283.827 55.0237 287.757 51.6845C293.711 46.6208 288.291 42.4832 283.48 41.3909C277.544 40.0404 271.085 40.5806 265.333 39.2034C259.58 37.8262 253.232 36.7725 247.09 36.7101C243.986 36.6775 240.905 36.8942 237.732 36.4994C234.716 36.1225 231.558 34.5464 228.43 34.9945C222.612 35.8286 221.689 45.9174 221.493 51.5302L217.293 59.3127C218.952 69.5142 216.228 84.6073 215.557 95.7023C214.939 105.957 217.415 115.61 220.279 125.259Z" fill="#DA9859"/>
<path d="M277.185 53.4921C274.92 53.4357 273.062 53.8779 270.904 54.1124C261.349 55.1543 251.314 54.2608 241.519 54.7061C239.421 54.801 237.566 55.1364 235.357 55.0029C232.615 54.8426 230.068 54.1926 227.192 54.148C225.922 54.1273 222.588 54.4033 219.697 54.3825L218.561 56.4899C221.65 56.3742 225.343 57.0836 227.97 57.4338C243.998 59.6481 260.406 58.2679 276.944 58.2441C278.921 56.6888 281.025 55.5965 283.106 54.4092C281.167 53.9129 279.183 53.6058 277.185 53.4921Z" fill="#C68655"/>
<path d="M217.592 73.6043L217.5 73.5687C217.423 74.6729 217.334 75.7889 217.239 76.9049C219.521 76.6244 221.823 76.544 224.119 76.6645C233.279 77.0592 242.492 79.1726 251.373 80.4252C251.522 79.6801 251.774 78.9597 252.124 78.2851C250.388 77.9883 248.681 77.6588 246.968 77.3412C237.616 75.596 225.609 76.709 217.592 73.6043Z" fill="#C68655"/>
<path d="M217.655 62.7053C220.457 62.3552 223.302 62.7845 225.877 63.9459C229.688 65.6259 232.279 67.7066 236.191 69.3302C242.074 71.7759 248.36 73.447 255.532 74.7292C256.719 73.9278 258.051 73.2452 259.337 72.5684C255.632 72.426 251.985 71.2535 248.93 70.3572C238.646 67.3385 232.012 60.6958 218.774 59.9419C218.323 59.9152 217.851 59.8974 217.385 59.8796C217.503 60.7967 217.593 61.7317 217.655 62.7053Z" fill="#C68655"/>
<path d="M224.571 50.337C226.438 50.0772 228.326 49.9838 230.21 50.0579C234.802 50.1529 239.346 50.3043 244.024 50.3904C258.434 50.6575 272.91 51.1888 287.359 51.5954C287.478 51.4975 287.599 51.3995 287.718 51.2986C288.526 50.6465 289.212 49.8555 289.742 48.9627C285.982 48.8529 282.194 48.8677 278.389 48.8677C263.548 48.8677 248.817 46.0212 234.063 46.9859C230.4 47.2263 225.796 48.1732 221.614 48.2711C221.537 49.2625 221.49 50.2004 221.457 51.0434C222.905 50.6783 224.128 50.4082 224.571 50.337Z" fill="#C68655"/>
<path d="M256.743 40.1235C248.221 40.6251 239.61 40.919 231.032 41.014C228.382 41.0436 225.586 40.9843 222.828 41.014C222.594 41.7976 222.398 42.6168 222.235 43.4449C230.471 42.9848 238.981 42.8809 247.256 42.5247C253.543 42.2546 259.859 42.1478 266.164 42.041C270.939 41.9638 275.911 42.498 280.624 42.1953C282.13 42.1313 283.623 41.8984 285.077 41.5007C284.539 41.3045 283.99 41.1419 283.432 41.014C279.226 40.0523 274.742 40.0463 270.438 39.6308C265.977 39.8534 261.524 39.8415 256.743 40.1235Z" fill="#C68655"/>
<path d="M219.459 122.238C233.706 121.522 247.743 119.442 262.008 121.145C271.209 122.246 281.203 122.481 290.746 122.395C291.321 121.613 291.644 120.673 291.672 119.703C290.662 119.703 289.656 119.703 288.671 119.658C282.939 119.43 277.291 118.97 271.651 118.631C266.279 118.308 260.859 118.456 255.481 117.949C249.114 117.355 244.407 117.379 237.969 117.773C232.644 118.1 228.028 119.041 222.796 119.489C221.783 119.575 220.332 119.623 218.717 119.602C218.961 120.474 219.208 121.353 219.459 122.238Z" fill="#C68655"/>
<path d="M262.762 91.4014C257.639 91.2114 252.531 91.1372 247.328 91.158C240.038 91.1907 232.902 91.9268 225.598 92.0158C222.573 92.0514 219.139 92.2266 215.738 92.3126C215.657 93.2773 215.586 94.2182 215.53 95.1353C222.591 93.859 233.175 93.9985 240.385 93.8798C249.117 93.7403 257.615 94.4913 266.226 94.791C265.745 94.3577 265.27 93.9006 264.807 93.4583C264.104 92.7846 263.43 92.093 262.762 91.4014Z" fill="#C68655"/>
<path d="M270.803 103.393C272.684 103.69 275.848 104.319 278.817 104.544C277.739 103.693 276.644 102.867 275.552 102.057C270.779 101.808 266.68 100.543 262.052 99.8577C252.415 98.427 244.181 98.6704 234.671 100.235C230.136 100.986 221.95 103.319 215.625 103.28C215.669 103.802 215.717 104.322 215.773 104.841C216.129 104.826 216.491 104.812 216.856 104.803C222.267 104.651 227.524 104.927 232.608 103.805C239.5 102.286 245.555 101.095 253.418 101.389C259.117 101.6 265.383 102.499 270.803 103.393Z" fill="#C68655"/>
<path d="M216.298 86.3377C216.236 86.961 216.171 87.5814 216.108 88.1958C221.89 88.2641 227.815 89.0031 233.345 89.2524C240.563 89.5819 248.402 89.4602 255.641 89.4543C257.381 89.4543 259.159 89.481 260.936 89.4929C260.381 88.8993 259.823 88.3264 259.262 87.7535C256.244 87.6378 253.196 87.6496 250.883 87.5873C244.822 87.4241 238.856 86.9254 232.804 86.7651C228.014 86.6345 221.243 87.1332 216.298 86.3377Z" fill="#C68655"/>
<path d="M266.621 106.002C257.864 104.28 249.379 103.464 240.204 105.186C235.134 106.138 230.78 107.355 227.738 109.501C225.414 111.149 223.633 112.244 218.967 112.487C218.275 112.523 217.61 112.526 216.972 112.487C217.052 112.873 217.138 113.262 217.224 113.651L217.649 113.609C221.279 113.271 225.218 113.14 228.492 112.229C233.834 110.745 236.034 108.168 242.145 106.916C247.06 105.91 253.003 105.218 258.408 105.791C265.383 106.53 270.577 109.335 277.52 110.243C278.707 110.398 283.132 110.861 287.457 111.045C286.523 110.188 285.539 109.387 284.51 108.646C282.693 108.688 281.245 108.735 280.687 108.715C275.323 108.519 271.53 106.966 266.621 106.002Z" fill="#C68655"/>
<path opacity="0.5" d="M280.052 125.692C285.424 126.058 294.45 125.419 291.352 116.684C289.476 111.404 283.302 108.406 279.363 105.266C274.614 101.478 269.497 98.3112 265.098 93.9866C260.631 89.5997 256.77 84.6904 251.561 81.6451C252.338 75.5455 258.269 74.3048 262.284 71.5266C266.936 68.3091 271.61 64.0617 275.701 60.1022C279.538 56.3861 284.083 55.1632 288.01 51.821C293.967 46.7574 288.544 42.6197 283.732 41.5304H283.709C280.061 42.501 283.023 48.654 279.111 52.2336C274.51 56.4543 268.705 59.0248 263.792 63.0733C259.678 66.4659 255.001 70.3483 251.822 74.6491C247.886 79.977 251.228 85.5601 255.188 89.4543C261.02 95.1917 266.826 100.902 272.7 106.756C275.852 109.905 284.029 113.493 283.088 118.287C277.998 117.99 272.753 119.724 267.434 119.842C261.691 119.97 256.253 121.03 250.599 121.326C241.032 121.834 229.044 118.973 219.199 120.733C219.63 122.28 220.076 123.827 220.537 125.375C228.4 128.937 239.83 126.402 247.844 125.606C258.39 124.576 269.322 124.962 280.052 125.692Z" fill="#7C5438"/>
<path d="M241.112 85.661C240.275 84.7053 237.313 84.6993 236.277 83.8059C238.105 83.2568 240.097 83.7643 240.836 81.8707C241.376 80.4845 240.72 76.9969 240.581 75.4476C240.198 71.1912 238.34 66.8874 237.464 62.5925C236.574 58.1788 240.527 48.4967 239.563 44.5194C238.565 40.4233 232.439 41.5512 229.103 41.1743C221.923 40.3699 213.217 43.0412 205.951 43.0472C195.423 43.0472 185.231 40.5213 174.759 40.079C155.822 39.3013 137.322 41.2425 118.584 42.222C112.259 42.5515 106.043 43.6764 99.7685 44.1098L97.9876 44.647C87.5338 49.396 72.9305 42.3081 62.073 42.3081C58.526 42.3081 54.5309 42.5782 54.9672 48.0426C55.1423 50.2361 55.727 52.6878 55.8398 55.0267C55.9586 57.4932 55.3115 60.0725 55.2165 62.5064C55.1601 63.9133 55.1661 64.7533 55.8398 65.997C56.4335 67.1011 58.1669 65.9465 58.2144 67.7096C56.7303 68.6 54.3824 68.131 53.2308 69.6151C52.0198 71.1734 53.0141 74.7263 53.3555 76.7209C54.1361 81.2859 54.3528 86.13 55.2254 90.6712C56.2553 96.0614 57.0063 101.46 57.7187 106.88C57.9799 108.905 57.597 112.134 58.0926 114.114C58.8733 117.227 58.0006 120.498 60.764 121.208C64.4742 122.16 72.1558 119.308 75.9639 119.543C80.3271 119.81 84.9693 120.474 89.3206 120.077C102.562 118.866 115.984 117.462 129.37 117.459C147.096 117.459 164.691 121.208 182.429 121.208C193.129 121.208 203.918 119.845 214.571 120.406C219.836 120.682 224.327 121.08 229.622 119.869C234.805 118.682 239.319 121.03 240.581 113.98C241.768 107.275 241.893 100.205 242.124 93.3485C242.172 91.5914 242.332 87.0531 241.112 85.661Z" fill="#7C5438"/>
<path d="M239.168 85.2721C238.349 84.2719 235.455 84.263 234.44 83.325C236.221 82.7492 238.174 83.2805 238.892 81.2948C239.421 79.8404 238.779 76.1777 238.643 74.5512C238.266 70.0811 236.452 65.5666 235.595 61.0579C234.704 56.4217 238.59 46.2587 237.646 42.0825C236.672 37.7816 230.688 38.963 227.42 38.5682C220.404 37.7252 211.891 40.5301 204.782 40.5361C194.489 40.5361 184.528 37.8826 174.29 37.4314C155.781 36.6122 137.696 38.6513 119.379 39.6783C113.2 40.0256 107.124 41.2069 100.977 41.661L99.2316 42.222C89.0122 47.1996 76.6736 41.379 66.0506 41.379C62.5808 41.379 55.4008 40.1413 55.8283 45.8788C55.9974 48.1821 56.7187 50.4438 56.8374 52.8985C56.9562 55.4897 56.6831 57.9443 56.5881 60.494C56.5347 61.978 56.3596 63.7055 57.0185 65.0145C57.6121 66.172 59.0072 65.6081 59.0428 67.4513C57.6003 68.3833 55.2198 67.9322 54.0949 69.4905C52.9076 71.1259 54.4956 73.2986 54.828 75.3912C55.5938 80.1847 55.6798 85.008 56.5317 89.7897C57.5409 95.45 58.1375 101.184 58.8202 106.874C59.0725 109 58.8469 111.825 59.3337 113.903C60.0935 117.168 60.1351 121.87 62.845 122.617C66.4721 123.615 73.9815 120.623 77.7036 120.866C81.9688 121.148 86.5042 121.849 90.7635 121.43C103.708 120.16 116.83 118.685 129.913 118.682C147.239 118.682 164.433 122.617 181.779 122.617C192.239 122.617 202.785 121.187 213.2 121.775C218.347 122.071 222.737 122.484 227.913 121.211C232.98 119.97 237.39 122.43 238.625 115.028C239.795 107.987 239.907 100.564 240.133 93.3604C240.201 91.4993 240.359 86.7325 239.168 85.2721Z" fill="#C68655"/>
<path d="M235.859 81.0514C231.597 81.1346 228.094 81.4017 223.897 81.6451C210.288 82.4316 194.949 83.1618 181.156 83.15C167.502 83.15 152.958 83.4022 139.705 81.9953C128.242 80.7784 123.677 76.4538 111.211 78.5345C104.218 79.7039 97.991 81.5026 90.2441 82.031C84.9786 82.3782 79.5142 82.1378 74.6316 83.1351C68.2174 84.447 62.6848 85.753 55.6978 86.3288C55.8343 87.4835 55.9946 88.6381 56.1994 89.7897C56.3517 90.6445 56.4952 91.5013 56.6298 92.3601C59.5564 92.2829 62.0941 92.1583 63.685 92.0633C71.4764 91.5943 78.9206 90.2498 86.8842 90.4516C89.9311 90.5322 92.9638 90.8969 95.943 91.5409C102.03 92.7943 108.189 93.6726 114.384 94.1707C123.137 94.886 132.585 95.9724 141.504 96.1564C156.164 96.4532 167.072 91.158 180.841 89.7214C194.925 88.2373 206.21 91.1105 219.869 91.1194C222.318 91.1194 233.006 90.1251 239.815 89.9886C239.75 88.1127 239.519 86.13 238.818 85.2722C238.002 84.2719 235.105 84.263 234.093 83.3251C235.874 82.7492 237.827 83.2806 238.545 81.2949C238.584 81.1874 238.614 81.0772 238.637 80.9654C237.634 81.0188 236.634 81.0366 235.859 81.0514Z" fill="#DA9859"/>
<path d="M203.292 68.0806C209.427 68.7188 215.797 68.7009 222.018 69.2679C227.474 69.7635 232.347 70.3631 237.675 70.6629C237.509 69.9149 237.319 69.1788 237.123 68.4219C231.564 68.1607 225.574 67.6502 219.866 67.1694C215.806 66.828 204.471 66.6291 202.138 65.3885C206.652 63.8302 215.028 63.9934 220.896 63.9934C226.019 63.9934 230.866 63.7857 235.841 63.661C235.648 62.8923 235.47 62.1235 235.319 61.3577C234.672 61.3458 234.016 61.3379 233.351 61.334C225.93 61.334 218.56 61.6308 211.09 61.6308C206.86 61.6308 204.088 61.61 200.701 62.6162C197.555 63.5512 195.133 65.3766 190.974 65.7209C187.365 66.0177 183.192 65.4716 179.378 65.6793C176.377 65.8396 173.777 66.6262 170.803 66.6945C174.661 67.1634 180.687 66.7835 184.991 66.9378C191.212 67.1426 197.202 67.4454 203.292 68.0806Z" fill="#DA9859"/>
<path d="M70.4877 83.4378C76.8722 83.23 81.7133 81.3601 87.1925 80.2678C95.5864 78.57 105.274 77.0029 114.749 76.43C124.719 75.8364 133.941 78.3949 142.724 79.7959C149.414 80.8615 155.784 81.0366 162.907 80.7665C188.154 79.8137 213.959 81.2651 238.755 79.8256C238.754 78.9019 238.697 77.9792 238.586 77.0622C235.802 77.1572 232.056 76.899 230.994 76.8604C223.683 76.5992 216.245 76.6645 208.928 76.2667C196.165 75.5633 183.996 75.0142 171.592 73.7497C161.203 72.6931 150.652 71.8026 139.993 71.4138C134.419 71.212 129.845 71.7819 124.372 71.9689C119.536 72.1351 115.491 71.3515 110.887 71.2654C103.921 71.1318 96.1296 72.7228 89.4928 73.4025C82.3448 74.1411 75.1627 74.5017 67.9766 74.4829C63.9815 74.4829 58.8495 74.1356 54.2222 74.2721C54.3407 74.6401 54.4329 75.016 54.4982 75.3971C54.9138 78.0031 55.1304 80.618 55.3887 83.2271C56.2108 83.3161 57.0301 83.3784 57.8315 83.414C61.7643 83.5714 66.54 83.5684 70.4877 83.4378Z" fill="#DA9859"/>
<path d="M221.27 109.299C217.728 109.122 214.214 108.561 210.793 107.625C207.626 106.806 203.096 104.185 198.822 104.256C195.804 104.304 192.272 106.055 189.844 106.631C186.335 107.48 182.756 107.711 178.704 107.922C169.595 108.388 160.987 108.869 151.602 108.869C138.269 108.869 125.441 108.029 112.125 108.029C97.8218 108.029 83.5361 107.708 69.3127 107.471C66.6414 107.426 62.5483 107.83 58.5977 108.044C58.6422 108.893 58.654 109.798 58.6837 110.697C69.4641 110.564 80.2414 110.976 91.0188 111.291C105.961 111.715 120.849 112.211 135.707 112.932C148.099 113.526 160.987 114.12 173.498 113.882C191.954 113.547 210.725 113.084 229.053 112.377C231.62 112.279 235.372 112.238 238.735 112.063C238.842 111.214 238.941 110.36 239.032 109.501C233.087 109.374 227.118 109.569 221.27 109.299Z" fill="#DA9859"/>
<path d="M218.175 91.9624C209.662 91.9624 200.906 91.5616 192.556 91.0927C188.258 90.8493 183.738 90.4812 179.369 90.7959C172.729 91.2915 168.214 93.4672 163.302 95.0225C153.858 98.0085 138.708 99.1245 126.619 98.142C119.495 97.5633 113.639 96.0643 106.993 95.0285C102.838 94.3844 98.4302 94.2597 94.159 93.7343C84.7529 92.5768 74.6642 92.7133 64.8099 92.5471C62.7767 92.5115 59.8382 92.5471 56.686 92.6895C56.8839 94.0074 57.0729 95.3273 57.253 96.6491C65.7538 95.726 73.0792 94.6664 82.6841 95.3134C89.9205 95.8002 96.9461 97.0528 104.099 97.7236C109.124 98.1985 114.004 98.8277 119.047 99.2581C128.281 100.048 136.262 100.653 145.609 99.9289C153.676 99.3026 161.138 97.8096 168.52 96.4651C175.691 95.162 182.082 93.9095 190.137 93.9154C202.42 93.9154 214.497 94.7316 226.61 95.1739C228.237 95.2333 234.951 95.2125 239.735 95.5241C239.759 94.8019 239.781 94.0826 239.801 93.3663C239.801 92.9656 239.83 92.4313 239.839 91.8258C232.656 92.2592 220.994 91.9624 218.175 91.9624Z" fill="#DA9859"/>
<path d="M65.6583 104.725C71.0693 104.948 76.1775 105.396 81.6508 105.396C87.7919 105.396 93.8885 105.239 100.053 105.257C115.262 105.301 130.462 106.302 145.641 106.236C157.665 106.183 172.233 105.871 183.411 104.078C191.606 102.763 194.488 100.353 204.093 102.036C211.751 103.381 218.607 106.097 226.877 106.836C230.646 107.174 235.004 107.058 239.245 106.934C239.48 103.79 239.595 100.618 239.693 97.4683C237.616 97.3585 235.407 97.032 234.012 96.9014C229.56 96.4769 225.422 96.3256 220.828 96.3078C210.792 96.2662 200.861 95.6073 190.701 95.6073C187.169 95.6073 183.625 95.6073 180.122 95.7468C175.076 95.9516 172.319 97.3229 168.25 98.3766C159.874 100.54 147.105 102.072 137.022 102.461C122.858 103.004 111.674 100.487 98.5455 98.9939C90.4929 98.0738 81.9743 96.6817 73.515 97.1388C68.1189 97.4356 62.6338 97.3852 57.4336 97.9046C57.7304 100.202 57.9916 102.505 58.2617 104.8C61.4376 104.669 64.4058 104.663 65.6583 104.725Z" fill="#DA9859"/>
<path d="M120.353 58.0838C124.164 57.787 127.67 57.048 131.475 56.8966C136.277 56.6947 140.121 57.2201 144.671 57.6742C152.955 58.5024 161.447 59.286 169.725 59.9122C174.854 60.2981 179.016 60.5831 183.857 59.66C187.475 58.9713 190.25 57.7841 194.649 58.0067C194.138 59.7609 183.774 61.3102 179.743 61.5121C172.987 61.8534 164.308 61.2865 157.672 60.675C148.277 59.8143 139.723 59.0099 129.988 58.8229C122.137 58.6745 117.248 59.8232 110.119 60.7849C102.874 61.7614 94.26 61.5388 86.6704 61.3102C76.5787 61.0134 66.3771 60.1616 56.2676 59.9746C56.2676 60.1497 56.2527 60.3278 56.2468 60.5029C56.2082 61.5239 56.1132 62.6667 56.2765 63.7085C62.0822 64.1063 68.3242 64.2754 70.5236 64.4149C83.815 65.2608 96.1774 64.6939 109.406 63.9935C114.485 63.7263 125.826 62.1859 129.56 64.1092C123.758 64.9997 116.028 64.3556 109.76 64.7029C100.211 65.2282 91.1167 66.552 81.2476 66.3828C75.4982 66.2849 69.8083 66.0266 64.0916 65.7031C62.2484 65.5992 59.5533 65.3647 56.787 65.2074C57.4192 66.1216 58.6658 65.715 58.7015 67.4602C57.3599 68.3269 55.2079 67.9975 54.0088 69.1996C56.8612 69.6953 59.5741 70.0574 60.6575 70.1821C69.7905 71.2358 79.1313 71.2447 88.5403 70.8855C104.123 70.2919 120.665 68.2498 135.672 70.3216C144.662 71.5652 154 71.212 163.371 71.5504C169.716 71.7819 175.768 72.0579 181.972 72.6338C194.895 73.8359 207.341 74.5215 220.6 74.7678C222.446 74.8005 232.891 74.9163 238.388 75.4921C238.349 75.1389 238.313 74.8213 238.29 74.5601C238.23 73.8596 238.138 73.1562 238.017 72.4557C235.984 72.3755 233.781 72.1588 232.478 72.1114C223.105 71.7581 213.414 72.2004 204.138 71.3753C195.441 70.6006 187.077 69.2976 178.14 68.8583C170.643 68.4902 163.94 68.8286 156.499 69.0393C151.002 69.1966 142.4 69.3836 138.198 67.7749C131.561 65.2312 152.923 65.2787 156.6 65.4004C167.757 65.7773 182.376 64.4624 191.969 62.453C196.46 61.5121 199.656 59.8737 204.488 59.2414C208.77 58.6769 213.098 58.5466 217.406 58.8526C224.161 59.3334 229.014 59.8559 235.105 59.0663C235.184 57.5169 235.375 55.9753 235.678 54.4538L234.787 54.1718C227.99 51.9368 222.618 52.0437 213.743 51.83C210.594 51.7528 207.151 51.0493 204.019 51.3016C200.511 51.5984 198.626 52.9311 195.789 53.6197C193.117 54.2698 189.799 54.3974 186.884 54.807C183.97 55.2166 181.417 55.8934 178.591 56.3148C170.901 57.4635 166.499 58.8556 158.808 56.4514C152.664 54.5339 150.281 51.4055 140.786 51.9724C123.746 52.9935 107.186 56.7215 89.5435 56.0358C81.3455 55.7212 74.3229 53.9818 66.3682 53.3645C63.1388 53.1181 59.7908 53.0677 56.4635 52.9905C56.5199 54.3825 56.4635 55.736 56.3952 57.0866C77.7303 57.5318 99.107 59.752 120.353 58.0838Z" fill="#DA9859"/>
<path d="M59.6571 44.831C65.2788 44.7716 69.5262 45.6858 74.5157 46.6119C82.1261 48.0277 90.4903 48.4106 98.9258 48.0544C108.555 47.6478 117.263 46.6475 127.091 46.6475C139.99 46.6475 151.599 46.0064 163.744 44.273C172.299 43.056 178.214 42.314 187.534 42.9076C194.803 43.3707 201.039 44.5312 208.552 44.4125C215.197 44.3116 223.591 44.0266 229.602 42.875C232.19 42.3793 234.47 41.7055 237.085 41.3909C235.636 37.933 230.157 38.9541 227.085 38.5831C220.068 37.7401 211.555 40.545 204.444 40.5509C194.153 40.5509 184.192 37.8974 173.955 37.4462C155.445 36.627 137.36 38.6662 119.044 39.6931C112.861 40.0404 106.788 41.2217 100.641 41.6758L98.8961 42.2368C88.6738 47.2144 76.3381 41.3939 65.7151 41.3939C62.4294 41.3939 55.8163 40.2838 55.4868 45.0418C57.1965 44.8785 59.013 44.8369 59.6571 44.831Z" fill="#DA9859"/>
<path d="M218.326 65.6437C223.482 65.7565 228.569 66.0326 233.633 66.368C234.523 66.4273 235.61 66.5639 236.669 66.742C236.521 66.1988 236.373 65.6586 236.224 65.1154C234.906 65.2045 233.571 65.2519 232.128 65.249C229.068 65.249 219.807 64.5455 218.326 65.6437Z" fill="#DA9859"/>
<path d="M77.3739 120.866C81.6421 121.148 86.1774 121.849 90.4338 121.43C103.378 120.16 116.497 118.685 129.584 118.682C146.909 118.682 164.103 122.618 181.446 122.618C191.909 122.618 202.455 121.187 212.87 121.775C218.017 122.071 222.407 122.484 227.583 121.211C231.169 120.32 234.428 121.309 236.464 119.326C231.608 119.1 226.5 118.97 221.442 118.982C218.821 119.112 216.159 119.145 213.479 119.124C212.448 119.164 211.428 119.208 210.419 119.258C206.587 119.456 187.718 121.421 187.285 118.551C195.753 118.4 204.72 119.059 213.479 119.124C216.088 119.032 218.759 118.984 221.442 118.982C222.998 118.901 224.535 118.792 226.058 118.64C229.24 118.317 233.478 118.18 237.473 117.865C237.875 116.962 238.151 116.007 238.292 115.028C238.34 114.752 238.382 114.473 238.423 114.194C225.408 114.609 212.253 114.663 199.282 115.206C189.336 115.622 179.318 115.277 169.559 114.755C159.114 114.194 148.675 114.102 138.31 113.214C127.856 112.324 116.8 112.324 105.957 112.517C98.4805 112.653 91.0838 113.407 83.5031 113.496C79.2468 113.547 75.3407 113.2 71.1616 112.968C66.9824 112.737 62.9457 112.888 58.8467 113.063C58.8882 113.36 58.9387 113.636 59.001 113.903C59.7638 117.168 59.8054 121.87 62.5153 122.618C66.1454 123.615 73.6518 120.623 77.3739 120.866Z" fill="#DA9859"/>
<path d="M214.619 45.6592C205.391 45.6592 196.89 46.042 187.683 45.3861C180.114 44.8459 175.436 44.9498 168.147 45.6592C160.987 46.3596 153.374 47.817 145.793 48.0337C140.78 48.1821 136.194 47.6953 131.193 48.2147C127.011 48.6451 123.413 49.0458 119.148 49.2862C108.973 49.8621 98.1752 50.2835 87.8816 49.5385C78.9326 48.8915 70.0222 46.6535 61.1326 46.4962C60.1798 46.4783 57.6895 46.6001 55.5732 46.5912C55.7691 48.2207 56.1669 49.8561 56.3925 51.542C60.9486 51.6251 65.6175 51.9487 69.8709 52.4325C76.1396 53.1359 82.257 54.5369 88.8344 54.7566C95.0201 54.9643 100.74 54.1421 106.741 53.8097C115.889 53.2992 125.067 52.3434 134.114 51.6816C138.269 51.3847 142.128 50.5418 146.354 50.3103C151.661 50.0134 152.926 50.5833 155.514 52.1624C159.886 54.8337 164.315 55.9468 172.433 54.8961C179.259 54.0056 184.531 52.5008 190.69 51.2274C203.203 48.6362 214.393 49.3575 226.883 51.2274C229.985 51.6889 233.125 51.836 236.257 51.6667C236.631 49.8205 237.011 47.9802 237.242 46.324C230.6 45.4306 219.641 45.6592 214.619 45.6592Z" fill="#DA9859"/>
<path opacity="0.5" d="M238.637 114.817C239.806 107.78 239.919 100.356 240.145 93.1496C240.201 91.2797 240.359 86.5158 239.168 85.0525C238.349 84.0522 235.455 84.0433 234.44 83.1084C236.221 82.5147 238.174 83.0609 238.892 81.0752C239.421 79.6208 238.779 75.9581 238.643 74.3315C238.266 69.8644 236.452 65.3469 235.595 60.8383C234.704 56.205 238.589 46.039 237.646 41.8658C237.646 41.8005 237.616 41.7382 237.598 41.6759C237.303 41.8652 237.02 42.0734 236.752 42.2992C234.274 44.3769 234.749 46.9354 234.357 49.7641C233.944 52.7322 232.232 55.7004 231.795 58.7428C231.359 61.7851 232.202 64.6405 233.217 67.3504C234.232 70.0603 234.455 72.4319 235.182 75.1982C235.98 78.2376 237.951 79.4219 234.722 81.8469C233.597 82.6928 231.344 81.4581 231.516 83.7228C231.596 84.7824 233.757 85.5333 234.431 86.0498C237.263 88.2284 237.429 88.457 237.423 92.4076C237.423 95.5093 237.595 98.6645 237.423 101.76C237.144 106.779 235.894 115.197 230.317 117.109C225.084 118.889 217.222 117.37 211.618 117.931C194.551 119.634 177.508 116.001 160.073 115.209C151.575 114.823 143.38 114.992 135.028 114.084C125.671 113.084 116.267 112.588 106.857 112.6C96.0824 112.6 85.9639 116.613 75.3409 117.465C72.0759 117.726 65.1482 119.477 60.3784 118.996C60.8236 120.664 61.5122 122.015 62.8598 122.386C66.4869 123.383 73.9963 120.391 77.7184 120.638C81.9836 120.935 86.5189 121.617 90.7783 121.199C103.722 119.928 116.845 118.453 129.928 118.45C147.253 118.45 164.448 122.386 181.794 122.386C192.254 122.386 202.799 120.958 213.215 121.543C218.361 121.84 222.751 122.252 227.928 120.982C232.997 119.759 237.402 122.22 238.637 114.817Z" fill="#7C5438"/>
<path opacity="0.2" d="M174.076 37.4314C155.567 36.6122 137.482 38.6513 119.166 39.6783C112.983 40.0256 106.91 41.2069 100.763 41.661L99.0177 42.222C88.7983 47.1996 76.4597 41.379 65.8367 41.379C62.3669 41.379 55.1869 40.1413 55.6144 45.8788C55.7835 48.1821 56.5048 50.4438 56.6235 52.8985C56.7393 55.4897 56.4662 57.9443 56.3742 60.494C56.3178 61.978 56.1457 63.7055 56.8046 65.0145C57.3982 66.172 58.7903 65.6081 58.8289 67.4513C57.3863 68.3833 55.0059 67.9322 53.881 69.4905C52.6937 71.1259 54.2787 73.2986 54.6141 75.3912C55.3799 80.1847 55.4659 85.008 56.3178 89.7897C57.324 95.45 57.9236 101.184 58.6033 106.874C58.8585 109 58.633 111.825 59.1168 113.903C59.5739 115.862 59.7727 118.334 60.4436 120.163C62.9991 118.337 63.9667 115.743 63.1772 111.626C62.0879 105.928 59.752 100.448 58.5024 94.7257C57.3863 89.6086 57.6594 83.9246 57.1875 78.7155C57.0035 76.6882 56.5256 74.0436 57.1311 72.049C58.1492 68.7069 61.0075 68.1667 63.6284 66.6202C67.0685 64.5871 64.9195 63.6224 63.3612 61.1292C62.2422 59.3483 62.1502 56.9411 61.9395 54.8248C61.7555 53.0083 61.0223 49.7641 62.1146 48.1049C63.7056 45.6799 67.6829 46.7425 70.1672 46.6208C74.8361 46.3893 79.1548 45.2109 83.8831 45.6176C87.1926 45.9144 90.1874 46.8523 93.4138 47.3985C99.6469 48.4818 106.1 45.668 112.363 44.8636C120.673 43.7951 128.957 42.875 137.313 42.1211C142.109 41.6877 146.621 39.6397 151.45 40.1057C153.967 40.3491 156.425 40.8744 158.945 40.3758C161.103 39.9484 162.943 39.0015 165.178 38.865C169.85 38.5682 174.29 39.7406 178.894 39.1143C179.707 39.0045 181.437 38.7997 182.634 38.2239C179.802 37.8588 176.95 37.5561 174.076 37.4314Z" fill="#FFDC78"/>
<path opacity="0.2" d="M211.962 47.6775C200.072 44.5669 186.486 46.1934 174.267 46.2824C163.762 46.3626 154.044 49.7997 143.674 50.8623C135.226 51.729 126.734 52.94 118.254 53.3051C111.805 53.5811 105.616 52.4147 99.1662 52.7115C94.7437 52.9192 90.5734 52.8925 86.2785 51.5064C83.4023 50.5774 81.8678 49.2328 78.8789 48.8885C76.6285 48.6963 74.3623 48.8222 72.1471 49.2625H72.5211C64.881 50.4112 68.4102 63.1 68.4042 67.9619C68.4042 71.8205 69.9685 76.243 68.8791 79.9532C67.499 84.6548 63.4593 88.3234 64.9463 93.6987C67.1101 101.514 73.4709 106.975 81.0397 102.01C87.7834 97.5811 88.6649 85.8866 91.1314 78.8372C94.4439 69.3836 99.285 66.1632 109.08 65.7239C121.623 65.1629 134.748 64.2695 146.974 61.328C156.44 59.0515 165.347 58.6062 175.106 58.6151C183.741 58.6151 191.954 56.9826 200.745 57.4101C205.043 57.6178 213.826 58.7606 217.314 55.3323C221.068 51.6667 215.678 48.6481 211.962 47.6775Z" fill="#FFDC78"/>
</svg>
