<svg width="10" height="10" viewBox="0 0 10 10" fill="none" xmlns="http://www.w3.org/2000/svg">
<path d="M9.97143 2.06628C9.96501 2.03647 9.95155 2.00769 9.9205 1.98326C9.63726 1.75903 8.96768 0.854872 8.52792 1.00477C7.91445 1.21409 4.54192 5.65104 3.79428 6.6289C3.5332 6.25581 1.35862 3.27293 1.24951 3.33981C0.875797 3.56818 0.490075 3.76342 0.133132 4.02119C0.0931725 4.05018 0.0726751 4.08765 0.0666709 4.12595C0.0178086 4.16405 -0.013455 4.2272 0.00559301 4.30443C0.312018 5.54876 1.35386 6.5287 2.09798 7.50884C2.53008 8.078 3.13257 9.51075 3.9448 8.83433C3.95868 8.82274 3.96696 8.80949 3.97607 8.79603C4.13549 8.73102 4.27193 8.60452 4.41479 8.45047C5.03385 7.78379 5.57879 7.05127 6.15313 6.34484C6.76702 5.58955 7.44798 4.88249 8.12232 4.18517C8.71116 3.57625 9.23415 2.77003 9.92816 2.29383C10.0147 2.23399 10.0149 2.13523 9.97143 2.06628ZM1.95532 4.26198C1.7607 4.08993 1.55904 3.92264 1.34848 3.76156C1.5754 3.90214 1.77561 4.07129 1.95532 4.26198ZM1.02218 4.40484C0.980561 4.3655 0.933977 4.35743 0.891533 4.36716C0.864824 4.29262 0.84267 4.21767 0.830662 4.14335C0.822794 4.09531 0.799191 4.05991 0.768549 4.0361C0.780971 4.02678 0.792566 4.01746 0.805403 4.00835C0.80768 4.04293 0.820103 4.07751 0.846397 4.10898C1.31659 4.6653 1.84642 5.16179 2.32448 5.71067C2.37935 5.77381 2.43297 5.83758 2.4868 5.90094C1.97893 5.41977 1.53109 4.88332 1.02218 4.40484ZM2.92739 8.1192C2.97481 8.17386 3.02201 8.22873 3.07046 8.28235C3.12657 8.35896 3.1833 8.43557 3.24189 8.51114C3.2421 8.51197 3.24231 8.513 3.24251 8.51362C3.1276 8.4101 3.02201 8.26393 2.92739 8.1192ZM3.07957 6.90614C3.21891 7.02912 3.36467 7.14631 3.51788 7.2403C3.51415 7.26474 3.51602 7.28855 3.52202 7.31153C3.52389 7.32167 3.52803 7.33182 3.53196 7.34176C3.38558 7.19268 3.23299 7.0492 3.07957 6.90614ZM3.75722 8.50472C3.75681 8.50327 3.75702 8.50182 3.7564 8.50079C3.75143 8.4894 3.74563 8.47925 3.74066 8.46807C3.88269 8.46642 4.06862 8.36103 4.27276 8.19685C4.09243 8.36704 3.91416 8.48691 3.75722 8.50472ZM8.5948 1.4023C8.46229 1.46006 8.35194 1.54909 8.25318 1.65365C8.3509 1.5141 8.45442 1.40685 8.5948 1.4023ZM5.31626 5.69597C5.23717 5.77899 5.09555 5.90467 4.92474 6.05871C5.07568 5.90777 5.2322 5.76429 5.37279 5.62102C5.83139 5.15475 6.18647 4.5829 6.55666 4.0363C6.97654 3.62429 7.41154 3.23215 7.81279 2.79901C8.07677 2.51371 8.2393 2.05635 8.54801 1.81266C8.3422 2.02964 8.17968 2.3431 8.04096 2.64435C7.82087 2.87624 7.62625 3.13836 7.4221 3.39219C6.77385 4.19925 6.02829 4.94875 5.31626 5.69597ZM8.02791 3.76632C7.7014 4.16198 7.33494 4.52224 6.98648 4.89823C7.24943 4.56861 7.51051 4.23734 7.75027 3.88827C7.76911 3.86073 7.79188 3.82201 7.81694 3.7746C7.9012 3.69033 7.98547 3.60627 8.06808 3.52056C8.30742 3.27128 8.5919 2.99736 8.76644 2.67851C8.90578 2.49114 9.05837 2.30521 9.23084 2.19341C8.98093 2.7605 8.37492 3.34623 8.02791 3.76632Z" fill="#319A00"/>
</svg>
